<?xml version="1.0" encoding="UTF-8"?>
<svg version="1.1" xmlns="http://www.w3.org/2000/svg" width="100" height="100">
<path d="M0 0 C9.40707465 5.68464327 15.68680199 13.83643636 18.546875 24.5390625 C19.81816587 35.18018906 19.08411233 45.14253855 13.546875 54.5390625 C12.556875 55.5290625 12.556875 55.5290625 11.546875 56.5390625 C13.031875 57.0340625 13.031875 57.0340625 14.546875 57.5390625 C14.546875 58.8590625 14.546875 60.1790625 14.546875 61.5390625 C13.226875 61.5390625 11.906875 61.5390625 10.546875 61.5390625 C10.216875 60.8790625 9.886875 60.2190625 9.546875 59.5390625 C9.01320313 59.99796875 8.47953125 60.456875 7.9296875 60.9296875 C-2.56169886 69.56965274 -11.91574525 71.83539098 -25.31445312 70.80957031 C-34.8744138 69.60038807 -42.8797787 64.22976046 -48.828125 56.828125 C-51.453125 53.09114583 -51.453125 53.09114583 -51.453125 50.5390625 C-52.2575 50.5596875 -53.061875 50.5803125 -53.890625 50.6015625 C-56.453125 50.5390625 -56.453125 50.5390625 -57.453125 49.5390625 C-57.578125 46.5390625 -57.578125 46.5390625 -57.453125 43.5390625 C-56.958125 43.0440625 -56.958125 43.0440625 -56.453125 42.5390625 C-56.37687052 40.5797461 -56.30610979 38.62003955 -56.26513672 36.65966797 C-55.96707395 24.96481162 -53.82146128 15.03480794 -45.4765625 6.2890625 C-32.87910695 -4.60603419 -15.10756629 -7.47031593 0 0 Z " fill="#CDE0F1" transform="translate(68.453125,16.4609375)"/>
<path d="M0 0 C2.3967285 2.78329761 2.94751121 4.47511207 3.3125 8.125 C3 11 3 11 1 14 C0.01 14.33 -0.98 14.66 -2 15 C-1.195625 15.61875 -0.39125 16.2375 0.4375 16.875 C3 19 3 19 4 21 C4.1251687 23.94874168 4.18517983 26.86356546 4.1875 29.8125 C4.19974609 30.62009766 4.21199219 31.42769531 4.22460938 32.25976562 C4.23534342 36.62852255 4.04117085 40.02254059 2 44 C1.34 44 0.68 44 0 44 C0.01160156 44.78246094 0.02320313 45.56492188 0.03515625 46.37109375 C0.04417969 47.38300781 0.05320313 48.39492187 0.0625 49.4375 C0.07410156 50.44683594 0.08570313 51.45617187 0.09765625 52.49609375 C0 55 0 55 -1 56 C-4.00331018 56.14193337 -6.99217134 56.04236378 -10 56 C-10.33 52.04 -10.66 48.08 -11 44 C-12.485 43.505 -12.485 43.505 -14 43 C-15.43158611 39.09938585 -15.34075713 34.86496612 -15.5625 30.75 C-15.60568359 30.00492188 -15.64886719 29.25984375 -15.69335938 28.4921875 C-15.79896725 26.661651 -15.89994201 24.83084824 -16 23 C-16.99 23.33 -17.98 23.66 -19 24 C-18.98839844 24.92683594 -18.97679688 25.85367188 -18.96484375 26.80859375 C-18.95582031 28.00613281 -18.94679688 29.20367187 -18.9375 30.4375 C-18.92589844 31.63246094 -18.91429688 32.82742187 -18.90234375 34.05859375 C-19 37 -19 37 -20 38 C-20.21158966 40.46266855 -20.37617784 42.90772884 -20.5 45.375 C-20.86668514 52.60005543 -20.86668514 52.60005543 -22 56 C-23.47906892 56.02689216 -24.95827483 56.04634621 -26.4375 56.0625 C-27.26121094 56.07410156 -28.08492187 56.08570313 -28.93359375 56.09765625 C-31 56 -31 56 -32 55 C-32.07313567 52.46950598 -32.09247527 49.96695163 -32.0625 47.4375 C-32.05798828 46.72658203 -32.05347656 46.01566406 -32.04882812 45.28320312 C-32.03700864 43.52209987 -32.01907263 41.76103964 -32 40 C-33.32 39.67 -34.64 39.34 -36 39 C-36.08706892 35.72933434 -36.14041241 32.45896635 -36.1875 29.1875 C-36.22520508 27.7943457 -36.22520508 27.7943457 -36.26367188 26.37304688 C-36.27333984 25.48037109 -36.28300781 24.58769531 -36.29296875 23.66796875 C-36.3086792 22.84578857 -36.32438965 22.0236084 -36.34057617 21.17651367 C-35.91656115 18.46676893 -35.15876456 17.6434649 -33 16 C-32.01 15.67 -31.02 15.34 -30 15 C-30.495 14.46375 -30.99 13.9275 -31.5 13.375 C-33.44280469 10.29889257 -33.52224493 8.58110811 -33 5 C-31.625 2.5625 -31.625 2.5625 -29 1 C-25.59982118 0.97335283 -22.34438755 1.41281745 -19 2 C-18.91832554 3.41569064 -18.86050302 4.83276805 -18.8125 6.25 C-18.76029297 7.43335938 -18.76029297 7.43335938 -18.70703125 8.640625 C-19 11 -19 11 -22 15 C-18.04 15 -14.08 15 -10 15 C-10.99 14.67 -11.98 14.34 -13 14 C-15.51922437 10.22116344 -15.13873893 8.43408549 -14.546875 4.09375 C-14 2 -14 2 -12.125 0 C-7.34008408 -2.25172514 -4.92952176 -1.93659783 0 0 Z " fill="#5B3F38" transform="translate(66,21)"/>
<path d="M0 0 C2.3967285 2.78329761 2.94751121 4.47511207 3.3125 8.125 C3 11 3 11 1 14 C0.01 14.33 -0.98 14.66 -2 15 C-1.195625 15.61875 -0.39125 16.2375 0.4375 16.875 C3 19 3 19 4 21 C4.1251687 23.94874168 4.18517983 26.86356546 4.1875 29.8125 C4.19974609 30.62009766 4.21199219 31.42769531 4.22460938 32.25976562 C4.23534342 36.62852255 4.04117085 40.02254059 2 44 C1.34 44 0.68 44 0 44 C0.01160156 44.78246094 0.02320312 45.56492188 0.03515625 46.37109375 C0.04417969 47.38300781 0.05320312 48.39492187 0.0625 49.4375 C0.07410156 50.44683594 0.08570312 51.45617187 0.09765625 52.49609375 C0 55 0 55 -1 56 C-4.00331018 56.14193337 -6.99217134 56.04236378 -10 56 C-10.33 52.04 -10.66 48.08 -11 44 C-11.99 43.67 -12.98 43.34 -14 43 C-15.47271188 39.06784345 -15.11005061 34.89056046 -15.0625 30.75 C-15.05798828 30.00492188 -15.05347656 29.25984375 -15.04882812 28.4921875 C-15.03709246 26.6614236 -15.0191585 24.83070127 -15 23 C-14.67 23 -14.34 23 -14 23 C-13.67 25.97 -13.34 28.94 -13 32 C-12.67 32 -12.34 32 -12 32 C-12 35.3 -12 38.6 -12 42 C-7.71 42 -3.42 42 1 42 C0.67 40.02 0.34 38.04 0 36 C-0.08825223 33.95981608 -0.13022272 31.91708511 -0.125 29.875 C-0.12757812 28.86179687 -0.13015625 27.84859375 -0.1328125 26.8046875 C-0.01721552 24.36355131 0.29798252 22.32891512 1 20 C-2.75857371 19.22597091 -6.52626251 18.56160508 -10.3125 17.9375 C-11.91544922 17.67259766 -11.91544922 17.67259766 -13.55078125 17.40234375 C-14.76314453 17.20318359 -14.76314453 17.20318359 -16 17 C-16.33 18.32 -16.66 19.64 -17 21 C-17 19.68 -17 18.36 -17 17 C-20.96 17.495 -20.96 17.495 -25 18 C-25 16.68 -25 15.36 -25 14 C-24.34 14.33 -23.68 14.66 -23 15 C-20.7927077 15.07092842 -18.58332548 15.08415025 -16.375 15.0625 C-14.59222656 15.04896484 -14.59222656 15.04896484 -12.7734375 15.03515625 C-11.40058594 15.01775391 -11.40058594 15.01775391 -10 15 C-10.99 14.67 -11.98 14.34 -13 14 C-15.51922437 10.22116344 -15.13873893 8.43408549 -14.546875 4.09375 C-14 2 -14 2 -12.125 0 C-7.34008408 -2.25172514 -4.92952176 -1.93659783 0 0 Z " fill="#5E4B3E" transform="translate(66,21)"/>
<path d="M0 0 C0.7734375 -0.00515625 1.546875 -0.0103125 2.34375 -0.015625 C4.5 0.25 4.5 0.25 7.5 2.25 C7.33701416 2.82073242 7.17402832 3.39146484 7.00610352 3.97949219 C6.49631481 6.26653267 6.38564032 8.23964456 6.40234375 10.578125 C6.40556641 11.37734375 6.40878906 12.1765625 6.41210938 13 C6.42048828 13.825 6.42886719 14.65 6.4375 15.5 C6.44201172 16.34046875 6.44652344 17.1809375 6.45117188 18.046875 C6.46292039 20.11461401 6.48085478 22.18231624 6.5 24.25 C2.21 24.25 -2.08 24.25 -6.5 24.25 C-6.48259766 22.37054688 -6.48259766 22.37054688 -6.46484375 20.453125 C-6.45546284 18.80208483 -6.44636296 17.15104304 -6.4375 15.5 C-6.42912109 14.675 -6.42074219 13.85 -6.41210938 13 C-6.40727539 11.80117188 -6.40727539 11.80117188 -6.40234375 10.578125 C-6.39710693 9.8449707 -6.39187012 9.11181641 -6.38647461 8.35644531 C-6.5024891 6.2038151 -6.90926729 4.3185865 -7.5 2.25 C-4.377998 0.16866533 -3.56733011 -0.0237822 0 0 Z " fill="#66B689" transform="translate(60.5,38.75)"/>
<path d="M0 0 C1.39456452 0.00667256 2.78911118 0.01863093 4.18359375 0.03515625 C4.89451172 0.03966797 5.60542969 0.04417969 6.33789062 0.04882812 C8.09899388 0.06064761 9.86005411 0.07858362 11.62109375 0.09765625 C11.29109375 1.74765625 10.96109375 3.39765625 10.62109375 5.09765625 C9.96109375 5.09765625 9.30109375 5.09765625 8.62109375 5.09765625 C8.62109375 9.38765625 8.62109375 13.67765625 8.62109375 18.09765625 C5.32109375 18.09765625 2.02109375 18.09765625 -1.37890625 18.09765625 C-1.37890625 14.13765625 -1.37890625 10.17765625 -1.37890625 6.09765625 C-2.36890625 6.09765625 -3.35890625 6.09765625 -4.37890625 6.09765625 C-4.42162725 4.4315372 -4.41954457 2.7638274 -4.37890625 1.09765625 C-3.37890625 0.09765625 -3.37890625 0.09765625 0 0 Z " fill="#F9CB58" transform="translate(36.37890625,38.90234375)"/>
<path d="M0 0 C2.3967285 2.78329761 2.94751121 4.47511207 3.3125 8.125 C3 11 3 11 1 14 C-0.32 14.33 -1.64 14.66 -3 15 C-2.34 12.36 -1.68 9.72 -1 7 C-6.05009595 6.06213918 -6.05009595 6.06213918 -11 7 C-10.39816251 9.02045442 -9.72693904 11.02111039 -9 13 C-8.34 13.33 -7.68 13.66 -7 14 C-7 15.32 -7 16.64 -7 18 C-9.97 17.67 -12.94 17.34 -16 17 C-16.33 18.32 -16.66 19.64 -17 21 C-17 19.68 -17 18.36 -17 17 C-20.96 17.495 -20.96 17.495 -25 18 C-25 16.68 -25 15.36 -25 14 C-24.34 14.33 -23.68 14.66 -23 15 C-20.7927077 15.07092842 -18.58332548 15.08415025 -16.375 15.0625 C-14.59222656 15.04896484 -14.59222656 15.04896484 -12.7734375 15.03515625 C-11.40058594 15.01775391 -11.40058594 15.01775391 -10 15 C-10.99 14.67 -11.98 14.34 -13 14 C-15.51922437 10.22116344 -15.13873893 8.43408549 -14.546875 4.09375 C-14 2 -14 2 -12.125 0 C-7.34008408 -2.25172514 -4.92952176 -1.93659783 0 0 Z " fill="#4F3533" transform="translate(66,21)"/>
<path d="M0 0 C2.97 0 5.94 0 9 0 C10.00051595 6.00309571 10.96006223 12.11981331 9 18 C7.52093108 18.02689216 6.04172517 18.04634621 4.5625 18.0625 C3.32693359 18.07990234 3.32693359 18.07990234 2.06640625 18.09765625 C0 18 0 18 -1 17 C-0.90903444 14.13311752 -0.76232012 11.29699485 -0.5625 8.4375 C-0.51029297 7.63119141 -0.45808594 6.82488281 -0.40429688 5.99414062 C-0.27422624 3.99578262 -0.13770944 1.99784614 0 0 Z " fill="#A29991" transform="translate(35,59)"/>
<path d="M0 0 C4.29 0 8.58 0 13 0 C13.33 0.66 13.66 1.32 14 2 C13.01 2.495 13.01 2.495 12 3 C12.15984375 3.53367188 12.3196875 4.06734375 12.484375 4.6171875 C13.10605998 7.49012568 13.20667826 10.18634209 13.25 13.125 C13.27578125 14.17945313 13.3015625 15.23390625 13.328125 16.3203125 C13.21984375 17.20460938 13.1115625 18.08890625 13 19 C12.01 19.66 11.02 20.32 10 21 C9.67 16.05 9.34 11.1 9 6 C7.68 6.33 6.36 6.66 5 7 C5 11.29 5 15.58 5 20 C1.04 20 -2.92 20 -7 20 C-7 19.67 -7 19.34 -7 19 C-3.7 19 -0.4 19 3 19 C3 14.71 3 10.42 3 6 C3.66 5.67 4.32 5.34 5 5 C5.65213292 2.97536745 5.65213292 2.97536745 6 1 C4.02 1 2.04 1 0 1 C0 0.67 0 0.34 0 0 Z " fill="#866543" transform="translate(42,38)"/>
<path d="M0 0 C2.97 0 5.94 0 9 0 C9 3.63 9 7.26 9 11 C8.071875 10.835 7.14375 10.67 6.1875 10.5 C3.04378647 9.92251612 3.04378647 9.92251612 0 10 C0 6.7 0 3.4 0 0 Z " fill="#997152" transform="translate(57,65)"/>
<path d="M0 0 C0.66 0.226875 1.32 0.45375 2 0.6875 C2.99 1.0175 3.98 1.3475 5 1.6875 C5.125 4.0625 5.125 4.0625 5 6.6875 C3 8.6875 3 8.6875 0 8.9375 C-3 8.6875 -3 8.6875 -5 6.6875 C-5.3125 4.1875 -5.3125 4.1875 -5 1.6875 C-2 -0.3125 -2 -0.3125 0 0 Z " fill="#A0734E" transform="translate(60,26.3125)"/>
<path d="M0 0 C3 0.125 3 0.125 4 1.125 C4.125 4.125 4.125 4.125 4 7.125 C3 8.125 3 8.125 0 8.25 C-3 8.125 -3 8.125 -4 7.125 C-4.125 4.125 -4.125 4.125 -4 1.125 C-3 0.125 -3 0.125 0 0 Z " fill="#F0BB19" transform="translate(83,10.875)"/>
<path d="M0 0 C4.95 0 9.9 0 15 0 C15 0.33 15 0.66 15 1 C11.37 1 7.74 1 4 1 C4 4.3 4 7.6 4 11 C4.99 11 5.98 11 7 11 C7 8.69 7 6.38 7 4 C7.33 4 7.66 4 8 4 C8 6.31 8 8.62 8 11 C8.99 11 9.98 11 11 11 C11 9.02 11 7.04 11 5 C11.33 5 11.66 5 12 5 C12 7.64 12 10.28 12 13 C9.03 13 6.06 13 3 13 C2.95101562 12.14535156 2.90203125 11.29070312 2.8515625 10.41015625 C2.77679688 9.30542969 2.70203125 8.20070313 2.625 7.0625 C2.55539063 5.96035156 2.48578125 4.85820313 2.4140625 3.72265625 C2.27742188 2.82417969 2.14078125 1.92570312 2 1 C1.34 0.67 0.68 0.34 0 0 Z " fill="#523631" transform="translate(53,64)"/>
<path d="M0 0 C2.5625 0.1875 2.5625 0.1875 4.5625 2.1875 C4.00694444 6.74305556 4.00694444 6.74305556 2.5625 8.1875 C0.0625 8.3125 0.0625 8.3125 -2.4375 8.1875 C-3.4375 7.1875 -3.4375 7.1875 -3.5625 4.1875 C-3.39891479 0.26145498 -3.39891479 0.26145498 0 0 Z " fill="#F9CD5C" transform="translate(14.4375,58.8125)"/>
<path d="M0 0 C3.3 0 6.6 0 10 0 C9.125 4.875 9.125 4.875 8 6 C5.0625 6.1875 5.0625 6.1875 2 6 C1.34 5.34 0.68 4.68 0 4 C0 2.68 0 1.36 0 0 Z " fill="#F3B97E" transform="translate(35,29)"/>
<path d="M0 0 C0.99 0 1.98 0 3 0 C3 4.62 3 9.24 3 14 C2.01 14 1.02 14 0 14 C0 9.38 0 4.76 0 0 Z " fill="#F7BD80" transform="translate(31,46)"/>
<path d="M0 0 C1.98 0.495 1.98 0.495 4 1 C3.67 2.32 3.34 3.64 3 5 C1.68 4.67 0.36 4.34 -1 4 C-0.67 2.68 -0.34 1.36 0 0 Z " fill="#F9FBFD" transform="translate(17,51)"/>
<path d="M0 0 C1.32 0 2.64 0 4 0 C4 1.32 4 2.64 4 4 C2.68 4 1.36 4 0 4 C0 2.68 0 1.36 0 0 Z " fill="#779FCE" transform="translate(23,85)"/>
<path d="M0 0 C1.32 0 2.64 0 4 0 C4 1.32 4 2.64 4 4 C2.68 4 1.36 4 0 4 C0 2.68 0 1.36 0 0 Z " fill="#779FCE" transform="translate(11,27)"/>
<path d="M0 0 C1.32 0 2.64 0 4 0 C4 1.32 4 2.64 4 4 C2.68 4 1.36 4 0 4 C0 2.68 0 1.36 0 0 Z " fill="#779FCE" transform="translate(85,22)"/>
<path d="M0 0 C0.66 0 1.32 0 2 0 C2 0.66 2 1.32 2 2 C1.34 2 0.68 2 0 2 C0 1.34 0 0.68 0 0 Z " fill="#F0BB18" transform="translate(76,12)"/>
</svg>
