<?xml version="1.0" encoding="UTF-8"?>
<svg version="1.1" xmlns="http://www.w3.org/2000/svg" width="512" height="512">
<path d="M0 0 C1.16832572 -0.00573832 1.16832572 -0.00573832 2.36025399 -0.01159257 C4.95477265 -0.02186256 7.54906751 -0.01794188 10.14360046 -0.01396179 C12.01015934 -0.01831164 13.87671643 -0.0234957 15.74327087 -0.02944946 C20.80330395 -0.04282258 25.86326226 -0.04341991 30.92330956 -0.04088616 C35.15275299 -0.03981513 39.38218136 -0.0447033 43.61162156 -0.04949158 C53.59348408 -0.06058132 63.57530898 -0.06102742 73.55717468 -0.05497742 C83.84148926 -0.04893973 94.12566696 -0.06124468 104.40995818 -0.08254749 C113.25095563 -0.10018471 122.09190959 -0.10616142 130.93292397 -0.10290974 C136.20820252 -0.10109985 141.48338345 -0.10370362 146.75864601 -0.11762428 C151.72207334 -0.1302322 156.68528796 -0.12823048 161.64871216 -0.11521339 C163.46509563 -0.11285437 165.2814942 -0.115558 167.09786034 -0.12383652 C184.22442078 -0.19623491 198.01897639 2.89389735 210.90800476 14.99897766 C220.44461699 25.43697101 225.07888151 37.73625517 225.21269226 51.70210266 C225.22076401 52.50679489 225.22883575 53.31148712 225.2371521 54.14056396 C225.2509355 55.83577859 225.26168314 57.5310203 225.26957703 59.22627258 C225.28114552 60.95942822 225.30167341 62.69254692 225.33110046 64.42549133 C225.37367623 66.93460701 225.38992607 69.44267117 225.40019226 71.95210266 C225.41770035 72.72510208 225.43520844 73.4981015 225.45324707 74.29452515 C225.43890804 77.84465671 225.25596062 79.87501867 223.13529968 82.77998352 C220.97441101 84.26069641 220.97441101 84.26069641 217.97441101 84.26069641 C218.00738372 87.20126255 218.0744802 90.13417604 218.16191101 93.07319641 C218.16771179 93.90657532 218.17351257 94.73995422 218.17948914 95.59858704 C218.26352501 97.92357966 218.3871776 100.00820829 218.97441101 102.26069641 C221.33391931 104.28643136 221.33391931 104.28643136 223.97441101 105.26069641 C225.25559371 107.82306181 225.12244294 109.67639036 225.15141296 112.54560852 C225.1642482 113.65113571 225.17708344 114.7566629 225.19030762 115.89569092 C225.20138802 117.69865379 225.20138802 117.69865379 225.21269226 119.53804016 C225.22076401 120.77429642 225.22883575 122.01055267 225.2371521 123.28427124 C225.25100882 125.90961805 225.26172383 128.53498299 225.26957703 131.16035461 C225.28272143 135.15046404 225.33057118 139.13995322 225.37480164 143.12983704 C225.38493577 145.68256533 225.39344961 148.23530066 225.40019226 150.78804016 C225.41770035 151.97179733 225.43520844 153.1555545 225.45324707 154.37518311 C225.42583835 164.99830148 222.55082393 173.29860422 216.97441101 182.26069641 C217.58891617 182.26434204 218.20342133 182.26798767 218.83654785 182.27174377 C225.27797709 182.31380989 231.71870971 182.38332194 238.15971375 182.46821594 C240.5580801 182.49630477 242.95653694 182.51757892 245.35502625 182.5316925 C248.81846546 182.55328951 252.28083036 182.60002693 255.74394226 182.65132141 C257.33212517 182.65316437 257.33212517 182.65316437 258.95239258 182.65504456 C270.88445251 182.88566356 280.57463801 186.68949947 288.97441101 195.26069641 C295.33098623 203.45361559 298.37281274 211.22378255 298.34941101 221.57319641 C298.34779968 222.31867737 298.34618835 223.06415833 298.3445282 223.83222961 C298.124543 233.76499253 294.29242486 241.61052765 287.53691101 248.88569641 C282.08735312 253.93650617 275.77492238 259.26069641 267.97441101 259.26069641 C268.30441101 269.49069641 268.63441101 279.72069641 268.97441101 290.26069641 C272.27441101 291.58069641 275.57441101 292.90069641 278.97441101 294.26069641 C288.35688235 300.4696848 294.02589514 307.29641662 297.55644226 318.03022766 C299.57008684 328.77593843 298.76449554 339.86699284 292.97441101 349.26069641 C288.00935678 356.09845001 282.67187235 360.79911616 274.97441101 364.26069641 C274.17003601 364.67319641 273.36566101 365.08569641 272.53691101 365.51069641 C268.41161538 366.71810001 264.25356553 366.91836405 259.97441101 367.26069641 C259.97441101 373.53069641 259.97441101 379.80069641 259.97441101 386.26069641 C261.62441101 386.59069641 263.27441101 386.92069641 264.97441101 387.26069641 C269.1804309 391.67767407 268.39596367 397.49824917 268.3625946 403.21382141 C268.36785156 404.31842712 268.37310852 405.42303284 268.37852478 406.56111145 C268.39172467 410.21111709 268.38298636 413.86068636 268.37284851 417.51069641 C268.37486924 420.04748112 268.37778067 422.58426526 268.38154602 425.12104797 C268.38596938 430.43719043 268.3798242 435.75317659 268.36552429 441.06929016 C268.34919853 447.20931148 268.35448737 453.34903392 268.37100351 459.489048 C268.3862741 465.40347525 268.38463713 471.31780989 268.37585831 477.23225403 C268.37385618 479.74568219 268.37631598 482.25911797 268.38329697 484.77253723 C268.39091038 488.28442123 268.3793079 491.79573026 268.3625946 495.30757141 C268.3686673 496.347724 268.37473999 497.38787659 268.3809967 498.45954895 C268.33163421 504.05466984 268.14007055 508.09503687 263.97441101 512.26069641 C256.78700624 512.84982795 256.78700624 512.84982795 253.47441101 510.44819641 C251.97441101 508.26069641 251.97441101 508.26069641 251.97441101 505.26069641 C197.52441101 505.26069641 143.07441101 505.26069641 86.97441101 505.26069641 C86.64441101 506.91069641 86.31441101 508.56069641 85.97441101 510.26069641 C82.75985031 512.40373688 80.74512685 512.73280115 76.91581726 512.65522766 C74.97441101 512.26069641 74.97441101 512.26069641 72.47441101 509.88569641 C70.97441101 507.26069641 70.97441101 507.26069641 70.97441101 505.26069641 C28.07441101 505.26069641 -14.82558899 505.26069641 -59.02558899 505.26069641 C-59.35558899 506.91069641 -59.68558899 508.56069641 -60.02558899 510.26069641 C-63.81806585 512.78901432 -66.57508611 512.8739181 -71.02558899 512.26069641 C-73.69990388 510.44906374 -73.98479258 509.38308564 -75.02558899 506.26069641 C-75.11485039 504.85926486 -75.14935146 503.45395092 -75.14863682 502.04967976 C-75.15062787 501.1867913 -75.15261891 500.32390284 -75.1546703 499.43486625 C-75.15175746 498.48643149 -75.14884462 497.53799674 -75.14584351 496.56082153 C-75.14669793 495.55370438 -75.14755236 494.54658722 -75.14843267 493.50895137 C-75.15008586 490.11864608 -75.14456869 486.72838976 -75.13911438 483.33808899 C-75.13883245 480.91403199 -75.13899036 478.48997491 -75.13955688 476.06591797 C-75.13978494 470.83904353 -75.13694002 465.61218026 -75.13131905 460.38530922 C-75.12319732 452.82810039 -75.12058813 445.2708976 -75.11933105 437.71368488 C-75.1171416 425.45306616 -75.11048438 413.1924541 -75.10102844 400.93183899 C-75.09185159 389.02070652 -75.08477209 377.10957585 -75.08052063 365.19844055 C-75.08025791 364.46442781 -75.07999518 363.73041507 -75.0797245 362.97415952 C-75.07841948 359.2918899 -75.07715576 355.60962028 -75.07591259 351.92735064 C-75.06554329 321.37179447 -75.04785359 290.81624636 -75.02558899 260.26069641 C-75.657995 260.26986084 -76.290401 260.27902527 -76.94197083 260.28846741 C-79.83439537 260.32506446 -82.72677099 260.34768028 -85.61933899 260.37007141 C-86.61417297 260.3847345 -87.60900696 260.39939758 -88.63398743 260.414505 C-99.83699877 260.47953078 -108.11572546 257.57957359 -116.52558899 250.01069641 C-125.84323799 239.76128251 -128.84629325 231.33924756 -128.36933899 217.42475891 C-127.76319229 207.85197069 -123.72907456 200.04093945 -117.02558899 193.26069641 C-106.75442 184.51999962 -97.47591366 182.74446405 -84.21308899 182.82319641 C-82.99943665 182.80321594 -81.7857843 182.78323547 -80.53535461 182.76264954 C-79.37068665 182.76329407 -78.20601868 182.7639386 -77.00605774 182.76460266 C-75.95313538 182.76274963 -74.90021301 182.76089661 -73.81538391 182.75898743 C-70.33797903 183.38435428 -69.13190612 184.46755736 -67.02558899 187.26069641 C-67.02558899 188.25069641 -67.02558899 189.24069641 -67.02558899 190.26069641 C-63.58661559 190.23792175 -60.15097769 190.16065738 -56.71308899 190.07319641 C-55.73662415 190.06739563 -54.7601593 190.06159485 -53.75410461 190.05561829 C-51.08567926 189.97308967 -48.62974011 189.85315087 -46.02558899 189.26069641 C-43.88940635 186.92760427 -43.88940635 186.92760427 -43.02558899 184.26069641 C-40.6201697 183.05798677 -38.92192308 183.05752978 -36.23652649 182.94429016 C-34.82500305 182.88144836 -34.82500305 182.88144836 -33.38496399 182.81733704 C-32.40012024 182.77802063 -31.41527649 182.73870422 -30.40058899 182.69819641 C-29.40801086 182.65501282 -28.41543274 182.61182922 -27.39277649 182.56733704 C-24.93719061 182.46108572 -22.48150196 182.35904678 -20.02558899 182.26069641 C-20.43551086 181.62003235 -20.84543274 180.97936829 -21.26777649 180.31929016 C-27.96360742 169.57071946 -29.25484575 159.69150754 -29.02558899 147.26069641 C-29.97433899 147.32257141 -30.92308899 147.38444641 -31.90058899 147.44819641 C-41.21356421 147.37309177 -48.3807555 143.58973584 -55.02558899 137.26069641 C-60.58371692 131.36991244 -63.07414699 123.79400824 -63.40058899 115.76069641 C-62.98992979 106.43051939 -59.65946428 98.87949471 -53.02558899 92.26069641 C-52.03558899 91.93069641 -51.04558899 91.60069641 -50.02558899 91.26069641 C-50.03606262 90.05123352 -50.04653625 88.84177063 -50.05732727 87.59565735 C-50.09386393 83.05564908 -50.1166105 78.51565347 -50.13545227 73.97554016 C-50.14543384 72.02043971 -50.15902386 70.06535389 -50.1764679 68.11030579 C-50.35740696 47.29166991 -49.0559098 29.89357541 -33.99824524 14.13960266 C-24.63654143 5.18419341 -13.00105039 -0.06862838 0 0 Z " fill="#020101" transform="translate(171.0255889892578,-0.2606964111328125)"/>
<path d="M0 0 C22.089375 -0.37125 44.17875 -0.7425 66.9375 -1.125 C73.82101318 -1.28887207 80.70452637 -1.45274414 87.79663086 -1.62158203 C93.39591375 -1.69744014 98.99066567 -1.76051143 104.58984375 -1.7578125 C105.31762362 -1.75829543 106.04540349 -1.75877835 106.7952373 -1.75927591 C135.10415745 -1.72414304 154.71112242 3.88269252 180 18 C180 34.83 180 51.66 180 69 C166.50340136 63.37641723 166.50340136 63.37641723 161.50390625 61.125 C159.82204224 60.36920654 159.82204224 60.36920654 158.10620117 59.59814453 C156.93677979 59.07075684 155.7673584 58.54336914 154.5625 58 C153.30517546 57.43455281 152.04776799 56.86928996 150.7902832 56.30419922 C148.17853378 55.13031123 145.56713843 53.95564135 142.95605469 52.78027344 C139.04708653 51.02086425 135.13709773 49.26373566 131.2265625 47.5078125 C130.59611023 47.22469711 129.96565796 46.94158173 129.31610107 46.64988708 C126.21702881 45.25869971 123.11712686 43.86940565 120.015625 42.48364258 C114.94630004 40.21860272 109.87935808 37.95113646 104.8359375 35.62890625 C103.41145924 34.98176883 101.98698017 34.33463321 100.5625 33.6875 C99.40878906 33.15511719 98.25507813 32.62273437 97.06640625 32.07421875 C92.66296371 30.53161149 89.40590263 30.53136579 85 32 C84.78215431 33.38876626 84.62788819 34.78758104 84.5 36.1875 C84.4071875 36.96480469 84.314375 37.74210937 84.21875 38.54296875 C85.11204985 42.27066316 85.11204985 42.27066316 93 46 C105.54 51.61 118.08 57.22 131 63 C131 123.06 131 183.12 131 245 C87.77 245 44.54 245 0 245 C0 164.15 0 83.3 0 0 Z " fill="#89C8FD" transform="translate(112,260)"/>
<path d="M0 0 C15.74403044 6.84523063 31.42090322 13.76774447 46.96118164 21.05444336 C55.94635696 25.26021727 64.84896059 29.25936931 74.41796875 31.94921875 C75.07944412 32.13579544 75.74091949 32.32237213 76.42243958 32.51460266 C97.21917498 37.9143638 118.66285801 36.5037874 140 37 C140 82.54 140 128.08 140 175 C93.8 175 47.6 175 0 175 C0 117.25 0 59.5 0 0 Z " fill="#EA5569" transform="translate(258,330)"/>
<path d="M0 0 C63.03 0 126.06 0 191 0 C191 14.52 191 29.04 191 44 C194.57772232 52.34801876 196.91943899 56.01573264 204.90893555 59.91699219 C210.82423362 61.98951902 216.9180057 61.78333113 223.125 61.8125 C229.993125 61.9053125 229.993125 61.9053125 237 62 C237 71.9 237 81.8 237 92 C229.13031478 92.06316335 221.2615644 92.1232383 213.3918457 92.15525055 C209.72596223 92.17099751 206.06029179 92.19198858 202.39453125 92.22631836 C198.85427025 92.25925991 195.31421394 92.27692504 191.77381134 92.28463173 C189.78661845 92.29275518 187.79950626 92.31611689 185.81243896 92.33988953 C174.17288089 92.34201584 164.2884142 89.91398391 153.6953125 85.2265625 C152.44417915 84.68641006 152.44417915 84.68641006 151.16777039 84.13534546 C148.48300952 82.97385063 145.80404205 81.7996171 143.125 80.625 C141.24865748 79.81035334 139.37194416 78.99656022 137.49487305 78.18359375 C133.74391138 76.55737131 129.99518563 74.92616924 126.24853516 73.29003906 C121.63228307 71.27436115 117.01111763 69.27034338 112.38671875 67.2734375 C107.70010912 65.24872604 103.01463159 63.22147129 98.33203125 61.1875 C97.19789795 60.71296387 96.06376465 60.23842773 94.89526367 59.74951172 C91.92363509 58.46852426 89.11123845 56.99081511 86.27075195 55.44189453 C69.33603494 46.62054257 53.51809844 46.59682881 34.89849854 46.84979248 C30.24835365 46.89997171 25.59801858 46.87400018 20.9477005 46.86157227 C13.96335561 46.85104426 6.98591364 46.93404025 0 47 C0 31.49 0 15.98 0 0 Z " fill="#E95468" transform="translate(186,198)"/>
<path d="M0 0 C0.88308838 0.46575439 1.76617676 0.93150879 2.67602539 1.41137695 C4.6613369 2.40950026 6.64703726 3.40685038 8.63305664 4.40356445 C9.70378418 4.94980469 10.77451172 5.49604492 11.87768555 6.05883789 C17.81965768 9.05639807 23.82332158 11.92564923 29.82064819 14.81036377 C35.36001338 17.48109233 40.89236233 20.16635896 46.42602539 22.84887695 C46.51904591 31.29871522 46.58995157 39.74833659 46.63327408 48.19856167 C46.6540755 52.12311942 46.6822549 56.04732472 46.7277832 59.97167969 C46.77150957 63.76481105 46.79521838 67.55760519 46.80553436 71.35096931 C46.81287807 72.79215866 46.82721783 74.23333128 46.84894562 75.67437553 C47.0074737 86.63244445 45.72294366 95.02976938 38.14086914 103.3449707 C32.3521535 108.42163476 25.68239507 109.99563802 18.17578125 110.04174805 C17.44038116 110.04992554 16.70498108 110.05810303 15.94729614 110.06652832 C13.51182864 110.09135043 11.07641955 110.10789501 8.64086914 110.12231445 C7.80659456 110.12763813 6.97231998 110.13296181 6.11276436 110.13844681 C1.69221033 110.16517156 -2.72831559 110.18454386 -7.14892578 110.19897461 C-10.79501609 110.21228269 -14.4405426 110.24007767 -18.08642578 110.28100586 C-22.49903261 110.33053556 -26.91113032 110.35512103 -31.32400322 110.36220169 C-32.99881994 110.36888263 -34.67362671 110.38402168 -36.34828377 110.4080925 C-47.35310775 110.55717674 -55.74208419 109.79330578 -64.44897461 102.41137695 C-70.00167697 95.71547117 -72.83573505 90.07426783 -72.80102539 81.29272461 C-72.80087433 80.01184967 -72.80072327 78.73097473 -72.80056763 77.4112854 C-72.7903567 76.02850181 -72.77992475 74.64571983 -72.76928711 73.26293945 C-72.76555296 71.83662108 -72.76270789 70.41030013 -72.76071167 68.98397827 C-72.7531068 65.24555269 -72.73348569 61.50728462 -72.71130371 57.7689209 C-72.69077718 53.94793834 -72.68169545 50.12693011 -72.67163086 46.3059082 C-72.65023652 38.82015962 -72.61613901 31.33454043 -72.57397461 23.84887695 C-61.32140406 17.87985783 -50.03376345 11.99586669 -38.63354492 6.31347656 C-36.51579538 5.2573632 -34.40030343 4.19681412 -32.28491211 3.13598633 C-30.9230616 2.45539028 -29.56108755 1.77504137 -28.19897461 1.0949707 C-27.57410156 0.78152206 -26.94922852 0.46807343 -26.30541992 0.14512634 C-17.16835706 -4.39853812 -9.17918881 -4.56462954 0 0 Z " fill="#FECDBE" transform="translate(230.573974609375,73.151123046875)"/>
<path d="M0 0 C7.09831811 -0.07640051 14.19652918 -0.12874659 21.29516602 -0.16479492 C23.7073157 -0.17983145 26.11943828 -0.20026599 28.53149414 -0.22631836 C32.00934564 -0.26292732 35.48683394 -0.27977829 38.96484375 -0.29296875 C40.03395493 -0.30845261 41.1030661 -0.32393646 42.20457458 -0.33988953 C53.47837315 -0.34239307 62.37972303 2.8906573 70.75 10.5 C71.4925 11.325 72.235 12.15 73 13 C73.680625 13.7425 74.36125 14.485 75.0625 15.25 C80.38979527 22.81132232 82.09624949 30.1934932 82.17578125 39.34765625 C82.198963 40.77149943 82.22307965 42.19532764 82.24804688 43.61914062 C82.28323059 45.84654047 82.31256527 48.07338058 82.32592773 50.30102539 C82.34140665 52.46307307 82.38158305 54.62352983 82.42578125 56.78515625 C82.44036377 58.07301025 82.45494629 59.36086426 82.4699707 60.68774414 C83.08476216 64.52969516 83.92509755 65.69687608 87 68 C88.485 68.495 88.485 68.495 90 69 C90 75.27 90 81.54 90 88 C88.35 88.66 86.7 89.32 85 90 C82.48176527 92.51823473 82.74550892 93.3581296 82.72875977 96.84179688 C82.71857315 97.850448 82.70838654 98.85909912 82.69789124 99.89831543 C82.69575119 100.99405884 82.69361115 102.08980225 82.69140625 103.21875 C82.66622589 105.53646063 82.6408282 107.8541689 82.61523438 110.171875 C82.58659858 113.8274666 82.56258774 117.48301683 82.54370117 121.13867188 C82.52190935 124.66559394 82.48243563 128.19200666 82.44140625 131.71875 C82.44129044 132.79829956 82.44117462 133.87784912 82.4410553 134.9901123 C82.30621145 145.4416559 80.53101696 153.4254048 73.1953125 161.0859375 C67.41686851 166.12408261 61.16234929 168.13195633 53.58203125 168.09765625 C52.32841797 168.09443359 51.07480469 168.09121094 49.78320312 168.08789062 C48.47287109 168.07951172 47.16253906 168.07113281 45.8125 168.0625 C44.47721519 168.05748317 43.14192859 168.05292059 41.80664062 168.04882812 C38.53771527 168.03702695 35.26888009 168.02056297 32 168 C28.12926258 156.74692833 24.60934331 145.4626291 21.53759766 133.96508789 C21.00391367 132.01430571 20.42989377 130.07856419 19.8515625 128.140625 C18.93475281 124.75936357 18.82716232 123.26719067 20 120 C20.61875 119.113125 21.2375 118.22625 21.875 117.3125 C25.87862491 111.07155529 28.19042776 103.44359428 27 96 C25.40989226 88.95657284 25.40989226 88.95657284 21.0871582 83.43237305 C16.9078965 79.83851511 14.85178123 76.74831159 14.30419922 71.25366211 C13.99738029 65.39863873 14.08533642 59.5472112 14.1875 53.6875 C14.22236075 49.69130705 14.23531764 45.69555634 14.23046875 41.69921875 C14.22889015 40.27070839 14.22889015 40.27070839 14.22727966 38.81333923 C14.12782833 29.05804833 12.3881832 20.58536587 7.5625 12.0625 C6.98628906 11.02222656 6.41007812 9.98195313 5.81640625 8.91015625 C4.05449466 6.08730864 2.09789277 3.57741111 0 1 C0 0.67 0 0.34 0 0 Z " fill="#50757E" transform="translate(299,15)"/>
<path d="M0 0 C2.23857384 -0.00337468 4.47714588 -0.00823271 6.7157135 -0.01449585 C11.39162764 -0.02183783 16.06706189 -0.01124884 20.74291992 0.01220703 C26.70541877 0.0406759 32.66679112 0.0242847 38.62924862 -0.00565529 C43.24756697 -0.02381466 47.86562295 -0.01793041 52.48394966 -0.00501633 C54.68095601 -0.00170531 56.87798698 -0.00568726 59.07496452 -0.01741409 C73.63639369 -0.07809308 87.15920536 -0.05970388 98.26171875 10.78515625 C103.64903792 16.70136748 106.84917288 21.9186951 108.97265625 29.6640625 C109.30265625 30.6540625 109.63265625 31.6440625 109.97265625 32.6640625 C110.05795755 35.54100921 110.0885127 38.39306432 110.0703125 41.26953125 C110.06819008 42.52833855 110.06819008 42.52833855 110.06602478 43.81257629 C110.0604284 46.49227466 110.0478766 49.1718894 110.03515625 51.8515625 C110.03014078 53.66861858 110.02557796 55.48567598 110.02148438 57.30273438 C110.01046016 61.75654263 109.99319803 66.21028839 109.97265625 70.6640625 C100.00558187 71.47513874 93.41652133 69.78532068 84.6796875 65.08203125 C83.56760422 64.5120491 82.45552094 63.94206696 81.30973816 63.35481262 C78.38236182 61.8502121 75.46737545 60.32474533 72.55767822 58.78631592 C68.46099604 56.62589832 64.34541231 54.50189441 60.22843933 52.38044739 C58.04682827 51.25375589 55.87044322 50.11686514 53.70039368 48.96806335 C42.6741298 43.22155294 31.82946803 39.37613101 19.296875 42.28515625 C16.43409559 43.26258473 13.72716528 44.41169313 10.97265625 45.6640625 C10.04477295 46.08268555 10.04477295 46.08268555 9.09814453 46.50976562 C1.32723385 50.03502345 -6.3318876 53.78841759 -13.96484375 57.6015625 C-14.61251709 57.92286133 -15.26019043 58.24416016 -15.92749023 58.57519531 C-19.52836192 60.37186964 -23.08170054 62.23119178 -26.609375 64.16796875 C-27.38740479 64.58377197 -28.16543457 64.9995752 -28.96704102 65.42797852 C-30.45118597 66.22204234 -31.92550047 67.03492008 -33.38647461 67.87084961 C-39.55416113 71.12763546 -45.1524848 71.08124737 -52.02734375 70.6640625 C-52.12693247 65.00818904 -52.19914971 59.35283672 -52.24707031 53.69628906 C-52.26706711 51.77595111 -52.29427381 49.85567311 -52.32910156 47.93554688 C-52.60335557 32.41599668 -51.34681413 21.79808814 -40.5078125 10.01171875 C-29.00852592 -0.98394944 -14.83109196 -0.07907966 0 0 Z " fill="#50767F" transform="translate(189.02734375,14.3359375)"/>
<path d="M0 0 C4.59464571 1.53154857 8.96297149 3.21382954 13.3828125 5.15234375 C14.81232682 5.77058287 16.24202025 6.388408 17.671875 7.00585938 C19.8915282 7.96707463 22.10989982 8.93087985 24.32519531 9.90209961 C26.48666007 10.84816355 28.65301151 11.78224106 30.8203125 12.71484375 C31.46138947 12.9993187 32.10246643 13.28379364 32.76296997 13.57688904 C43.91264022 18.34045332 54.44235397 19.42169049 66.40839005 19.34955978 C68.94112392 19.33561648 71.47309215 19.34237632 74.00582886 19.35440063 C81.19713782 19.3850862 88.38825632 19.38048859 95.57958984 19.36035156 C100.00271219 19.34938214 104.42525176 19.36272415 108.8482933 19.39024734 C110.52025878 19.39565021 112.19228393 19.39172137 113.86420059 19.37784958 C131.47279134 19.23332949 131.47279134 19.23332949 139 25 C144.73797446 31.08820558 147.57591909 36.88254953 147.375 45.30859375 C146.36188564 52.57979992 142.50369997 58.23307761 136.94140625 62.84375 C131.76396519 65.92729639 126.61357505 66.29047024 120.72241211 66.25878906 C119.50884033 66.26404602 119.50884033 66.26404602 118.27075195 66.26940918 C115.60619418 66.27818243 112.94190406 66.27238905 110.27734375 66.265625 C108.41134084 66.26697383 106.54533827 66.26891618 104.67933655 66.27142334 C100.76804255 66.27436942 96.85683999 66.27009694 92.94555664 66.26074219 C87.9651982 66.2494034 82.98505669 66.25587489 78.00470638 66.26788712 C74.14820264 66.27516713 70.29174898 66.27278887 66.43524361 66.26763153 C64.60107967 66.26630906 62.766911 66.26789284 60.93275261 66.27259064 C37.50821929 66.31938695 21.87041413 61.29195959 0 51 C0 34.17 0 17.34 0 0 Z " fill="#FDCCBD" transform="translate(307,285)"/>
<path d="M0 0 C25.08 0 50.16 0 76 0 C76 6.6 76 13.2 76 20 C77.65 20.33 79.3 20.66 81 21 C85.20601989 25.41697766 84.42155265 31.23755276 84.38818359 36.953125 C84.39344055 38.05773071 84.39869751 39.16233643 84.40411377 40.30041504 C84.41731365 43.95042068 84.40857535 47.59998995 84.3984375 51.25 C84.40045823 53.78678471 84.40336966 56.32356885 84.40713501 58.86035156 C84.41155837 64.17649402 84.40541319 69.49248018 84.39111328 74.80859375 C84.37478752 80.94861507 84.38007636 87.08833751 84.3965925 93.22835159 C84.41186309 99.14277884 84.41022612 105.05711348 84.4014473 110.97155762 C84.39944517 113.48498578 84.40190497 115.99842156 84.40888596 118.51184082 C84.41649937 122.02372482 84.40489689 125.53503385 84.38818359 129.046875 C84.39425629 130.08702759 84.40032898 131.12718018 84.40658569 132.19885254 C84.3572232 137.79397343 84.16565954 141.83434046 80 146 C72.81259523 146.58913154 72.81259523 146.58913154 69.5 144.1875 C68 142 68 142 68 139 C59.75 139 51.5 139 43 139 C43 93.46 43 47.92 43 1 C28.81 1 14.62 1 0 1 C0 0.67 0 0.34 0 0 Z " fill="#E3384F" transform="translate(355,366)"/>
<path d="M0 0 C7.26 0 14.52 0 22 0 C22.99 2.475 22.99 2.475 24 5 C26.34800136 7.34800136 26.80884017 7.2602854 29.99072266 7.31884766 C30.82289307 7.33890869 31.65506348 7.35896973 32.51245117 7.37963867 C33.38748291 7.39099854 34.26251465 7.4023584 35.1640625 7.4140625 C35.96803467 7.43170654 36.77200684 7.44935059 37.6003418 7.4675293 C40.60835641 7.5306741 43.61670869 7.57680704 46.625 7.625 C56.710625 7.810625 56.710625 7.810625 67 8 C67 23.51 67 39.02 67 55 C43.94189117 55.20054405 43.94189117 55.20054405 34.07421875 55.24414062 C27.35445285 55.2739706 20.63502927 55.30916874 13.91552734 55.37719727 C8.49494055 55.43172888 3.07472112 55.46146525 -2.34611893 55.47438622 C-4.40889896 55.48358816 -6.47166005 55.5015573 -8.53428268 55.52865028 C-30.02706654 55.79960331 -30.02706654 55.79960331 -39.4375 47.97265625 C-44.48447917 41.80272421 -46.57723377 36.70783671 -46.37109375 28.65625 C-45.43441287 21.95158687 -42.31391554 16.6464644 -37 12.5 C-32.40165515 9.31082534 -28.19500203 7.77041941 -22.5859375 7.65625 C-21.57789062 7.62660156 -20.56984375 7.59695312 -19.53125 7.56640625 C-17.41927428 7.52197112 -15.30729508 7.47770149 -13.1953125 7.43359375 C-12.18984375 7.40394531 -11.184375 7.37429687 -10.1484375 7.34375 C-9.23239746 7.32505859 -8.31635742 7.30636719 -7.37255859 7.28710938 C-4.73484201 7.1487505 -4.73484201 7.1487505 -2 5 C-1.34 3.35 -0.68 1.7 0 0 Z " fill="#FDCDBE" transform="translate(104,190)"/>
<path d="M0 0 C23 10 23 10 25 11 C25 71.06 25 131.12 25 193 C16.75 192.67 8.5 192.34 0 192 C0 128.64 0 65.28 0 0 Z " fill="#5FB5FC" transform="translate(218,312)"/>
<path d="M0 0 C30.58888484 -2.46905797 46.0925573 4.3773839 74 18 C74 34.83 74 51.66 74 69 C60.50340136 63.37641723 60.50340136 63.37641723 55.50390625 61.125 C54.38177734 60.62073486 53.25964844 60.11646973 52.10351562 59.59692383 C50.93498047 59.06993896 49.76644531 58.5429541 48.5625 58 C47.31323315 57.43821255 46.06388238 56.8766117 44.81445312 56.31518555 C42.21074843 55.14498606 39.60740515 53.97398867 37.00439453 52.80224609 C30.97560083 50.08854112 24.94507641 47.37869829 18.91329956 44.67163086 C17.03497662 43.82820559 15.15724005 42.98348504 13.27954102 42.13867188 C12.13541748 41.62498047 10.99129395 41.11128906 9.8125 40.58203125 C8.80832031 40.13061768 7.80414063 39.6792041 6.76953125 39.21411133 C4.20264904 38.08883759 1.60224129 37.04089652 -1 36 C-0.67 24.12 -0.34 12.24 0 0 Z " fill="#5FB5FD" transform="translate(218,260)"/>
<path d="M0 0 C1.29269051 -0.00574036 1.29269051 -0.00574036 2.61149597 -0.01159668 C4.43119477 -0.01431257 6.25093281 -0.00697395 8.07055664 0.00976562 C10.83635028 0.03110251 13.59952326 0.00999484 16.36523438 -0.015625 C18.13932859 -0.01298013 19.91342119 -0.00785187 21.6875 0 C22.91446342 -0.01214539 22.91446342 -0.01214539 24.16621399 -0.02453613 C31.28848807 0.08999474 36.41016144 2.25746187 41.79296875 6.90625 C47.07698373 13.07093414 49.4416189 17.77578129 49.3125 25.83984375 C48.56271575 33.3268198 44.98928362 38.1913879 39.43359375 43.0234375 C33.18395124 46.96520549 27.34915218 47.99812063 20.125 48 C19.30472824 48.00761353 18.48445648 48.01522705 17.639328 48.02307129 C15.91916936 48.03380314 14.19894593 48.03675379 12.47875977 48.03222656 C9.85128103 48.03124844 7.22667191 48.07306403 4.59960938 48.1171875 C2.92057896 48.12239128 1.24153848 48.12508275 -0.4375 48.125 C-1.21780075 48.14139526 -1.9981015 48.15779053 -2.80204773 48.17468262 C-6.60304976 48.12653338 -8.76646147 47.65841578 -11.94799805 45.53540039 C-14.63075069 41.52382289 -14.68144473 38.59873717 -14.62109375 33.87109375 C-14.62587738 33.04420547 -14.63066101 32.2173172 -14.6355896 31.3653717 C-14.63898213 29.62303761 -14.62982483 27.88063931 -14.60888672 26.13842773 C-14.58207405 23.47300447 -14.60866998 20.81177845 -14.640625 18.14648438 C-14.63732145 16.45051155 -14.63091634 14.75454134 -14.62109375 13.05859375 C-14.6312149 12.26372055 -14.64133606 11.46884735 -14.65176392 10.64988708 C-14.57448817 7.00032383 -14.26717636 4.9224753 -11.9753418 2.03149414 C-7.88400435 -0.00209549 -4.51286679 -0.04434247 0 0 Z " fill="#FECDBE" transform="translate(404.95703125,197.46875)"/>
<path d="M0 0 C3.47598164 0.57977557 6.29104698 1.46521105 9.42578125 3.06640625 C10.22177734 3.46923828 11.01777344 3.87207031 11.83789062 4.28710938 C12.65451172 4.70798828 13.47113281 5.12886719 14.3125 5.5625 C15.14845703 5.98724609 15.98441406 6.41199219 16.84570312 6.84960938 C18.89996426 7.8943479 20.95120292 8.94459762 23 10 C23.09302052 18.44983827 23.16392618 26.89945963 23.20724869 35.34968472 C23.22805011 39.27424246 23.25622951 43.19844777 23.30175781 47.12280273 C23.34548418 50.9159341 23.36919299 54.70872824 23.37950897 58.50209236 C23.38685268 59.9432817 23.40119244 61.38445432 23.42292023 62.82549858 C23.58144831 73.7835675 22.29691827 82.18089243 14.71484375 90.49609375 C8.75689774 95.72117169 2.02569942 97.15612427 -5.6875 97.0625 C-6.38939453 97.05798828 -7.09128906 97.05347656 -7.81445312 97.04882812 C-9.54300538 97.03706927 -11.27151365 97.01913454 -13 97 C-12.61328125 96.5875 -12.2265625 96.175 -11.828125 95.75 C-4.65625229 87.79703224 -0.71508626 79.16696746 -0.68115234 68.34228516 C-0.67110672 67.60013763 -0.6610611 66.85799011 -0.65071106 66.09335327 C-0.62000512 63.65859702 -0.60287932 61.22395009 -0.5859375 58.7890625 C-0.56721569 57.09368965 -0.54764153 55.39832602 -0.5272522 53.70297241 C-0.47603192 49.25447028 -0.43635228 44.80593798 -0.39910889 40.3572998 C-0.35900573 35.81234331 -0.30794224 31.26751125 -0.2578125 26.72265625 C-0.16117293 17.81519171 -0.07673001 8.90765674 0 0 Z " fill="#FDAF9D" transform="translate(254,86)"/>
<path d="M0 0 C4.07797946 4.68422241 3.42242072 10.08886667 3.38818359 15.953125 C3.39344055 17.05773071 3.39869751 18.16233643 3.40411377 19.30041504 C3.41731365 22.95042068 3.40857535 26.59998995 3.3984375 30.25 C3.40045823 32.78678471 3.40336966 35.32356885 3.40713501 37.86035156 C3.41155837 43.17649402 3.40541319 48.49248018 3.39111328 53.80859375 C3.37478752 59.94861507 3.38007636 66.08833751 3.3965925 72.22835159 C3.41186309 78.14277884 3.41022612 84.05711348 3.4014473 89.97155762 C3.39944517 92.48498578 3.40190497 94.99842156 3.40888596 97.51184082 C3.41649937 101.02372482 3.40489689 104.53503385 3.38818359 108.046875 C3.39729263 109.60710388 3.39729263 109.60710388 3.40658569 111.19885254 C3.3572232 116.79397343 3.16565954 120.83434046 -1 125 C-8.08413086 125.58066646 -8.08413086 125.58066646 -11.09924316 123.66906738 C-14.14755232 119.38859216 -13.55625545 114.9964124 -13.51757812 109.86914062 C-13.5245874 108.73381393 -13.53159668 107.59848724 -13.53881836 106.42875671 C-13.5564423 102.67100664 -13.54475918 98.91400791 -13.53125 95.15625 C-13.53394363 92.54837906 -13.53782496 89.9405091 -13.54284668 87.3326416 C-13.5501216 81.86506998 -13.54053971 76.39771457 -13.52148438 70.93017578 C-13.49971561 64.61114949 -13.50676712 58.29263944 -13.52879 51.97362566 C-13.54913615 45.89203073 -13.54697384 39.81066449 -13.53526306 33.72904968 C-13.53259117 31.14222644 -13.53588167 28.55539006 -13.54518127 25.96858215 C-13.55531877 22.35565081 -13.53988317 18.7437163 -13.51757812 15.13085938 C-13.52567505 14.05748825 -13.53377197 12.98411713 -13.54211426 11.8782196 C-13.45910593 4.63533552 -13.45910593 4.63533552 -11.08874512 1.35510254 C-7.27895181 -1.11655403 -4.34069029 -1.55819651 0 0 Z " fill="#020000" transform="translate(436,387)"/>
<path d="M0 0 C12.87 0 25.74 0 39 0 C39 15.51 39 31.02 39 47 C7.98 47 -23.04 47 -55 47 C-55 46.67 -55 46.34 -55 46 C-31.9 46 -8.8 46 15 46 C15 31.15 15 16.3 15 1 C10.05 1 5.1 1 0 1 C0 0.67 0 0.34 0 0 Z " fill="#F6AB9A" transform="translate(132,198)"/>
<path d="M0 0 C8.25 0 16.5 0 25 0 C25 9.9 25 19.8 25 30 C4.54 30 -15.92 30 -37 30 C-37 29.67 -37 29.34 -37 29 C-24.79 29 -12.58 29 0 29 C0 19.43 0 9.86 0 0 Z " fill="#E23950" transform="translate(398,260)"/>
<path d="M0 0 C5.55007795 -0.09938156 11.09963018 -0.1717096 16.65039062 -0.21972656 C18.53589916 -0.23975767 20.42134623 -0.26699073 22.30664062 -0.30175781 C25.02749862 -0.35065272 27.74753056 -0.37305382 30.46875 -0.390625 C31.30241089 -0.41127014 32.13607178 -0.43191528 32.99499512 -0.45318604 C40.21694176 -0.45591267 45.29462206 1.66353723 50.75 6.375 C56.03401498 12.53968414 58.39865015 17.24453129 58.26953125 25.30859375 C57.519747 32.7955698 53.94631487 37.6601379 48.390625 42.4921875 C42.0156411 46.51301068 36.26130751 47.43714236 28.90625 47.29296875 C28.07411987 47.28872391 27.24198975 47.28447906 26.38464355 47.28010559 C23.75608407 47.26346307 21.12832333 47.22583976 18.5 47.1875 C16.70574033 47.17243444 14.9114685 47.15874933 13.1171875 47.14648438 C8.74448917 47.11360714 4.37237947 47.06192722 0 47 C0 46.67 0 46.34 0 46 C1.3614917 46.01740234 1.3614917 46.01740234 2.75048828 46.03515625 C6.14009861 46.05942037 9.52572889 46.04774866 12.91503906 46.01220703 C14.37759493 46.0041284 15.84030209 46.01010404 17.30273438 46.03076172 C25.74422566 46.40768854 25.74422566 46.40768854 33.26513672 43.30834961 C34.84909028 41.24853739 35.96240255 39.37755727 37 37 C37.33974854 36.2280127 37.67949707 35.45602539 38.02954102 34.66064453 C41.44247787 26.1908844 40.39010202 19.08361673 37.36328125 10.67578125 C35.66899581 7.3503213 33.8440034 4.43150845 31 2 C27.54309183 1.08990096 27.54309183 1.08990096 23.73046875 1.1953125 C22.70896477 1.17475296 22.70896477 1.17475296 21.66682434 1.15377808 C19.50637055 1.11659117 17.34822737 1.12018394 15.1875 1.125 C13.71676113 1.10686472 12.24605261 1.08605939 10.77539062 1.0625 C7.18342641 1.01076054 3.59238423 0.99556144 0 1 C0 0.67 0 0.34 0 0 Z " fill="#F4AA99" transform="translate(396,198)"/>
<path d="M0 0 C3.96 0 7.92 0 12 0 C14.13416439 4.04811612 15.73933965 7.96755484 17.04296875 12.3515625 C17.39423828 13.53234375 17.74550781 14.713125 18.10742188 15.9296875 C18.46384766 17.14914063 18.82027344 18.36859375 19.1875 19.625 C19.55552734 20.8521875 19.92355469 22.079375 20.30273438 23.34375 C23 32.49143379 23 32.49143379 23 37 C12.44 37 1.88 37 -9 37 C-8.34 35.68 -7.68 34.36 -7 33 C-6.13787516 31.1495202 -5.28416343 29.29510484 -4.4375 27.4375 C-4.00308594 26.48746094 -3.56867188 25.53742188 -3.12109375 24.55859375 C-1.60972469 21.10930199 -0.85900866 18.28461292 -0.68359375 14.55078125 C-0.64169922 13.70322266 -0.59980469 12.85566406 -0.55664062 11.98242188 C-0.49766602 10.66081055 -0.49766602 10.66081055 -0.4375 9.3125 C-0.39431641 8.41982422 -0.35113281 7.52714844 -0.30664062 6.60742188 C-0.2006478 4.40512656 -0.09982779 2.20258338 0 0 Z " fill="#F8AB9A" transform="translate(292,146)"/>
<path d="M0 0 C7.50932723 -0.60559091 12.78392297 0.60969772 19 5 C24.0308173 10.14491831 27.00022793 15.47811692 27.4375 22.6875 C27.2776949 29.38932627 24.75824121 34.89537501 20.3203125 39.890625 C14.10721156 45.57906408 8.1617974 46.3264719 0 46 C0.40992188 45.40832031 0.81984375 44.81664062 1.2421875 44.20703125 C1.78101563 43.41683594 2.31984375 42.62664062 2.875 41.8125 C3.67550781 40.64654297 3.67550781 40.64654297 4.4921875 39.45703125 C9.21598404 31.75944569 9.23395626 22.80026263 8 14 C6.51191468 9.88722431 4.56977847 6.52179484 2 3 C1.34 2.01 0.68 1.02 0 0 Z " fill="#FBAE9C" transform="translate(427,305)"/>
<path d="M0 0 C2.94767364 2.18891878 3.89228542 3.38679102 4.53344727 7.03686523 C4.59915496 14.05785452 4.59915496 14.05785452 4.57641602 16.41723633 C4.56255901 18.42893299 4.59661216 20.43596257 4.63476562 22.44726562 C4.63283203 23.72150391 4.63089844 24.99574219 4.62890625 26.30859375 C4.62963135 27.47189209 4.63035645 28.63519043 4.63110352 29.83374023 C3.81190379 33.94368267 2.27346062 35.45932824 -1 38 C-4.625 38.0625 -4.625 38.0625 -8 37 C-10.378992 34.6627447 -10.96311592 33.27866981 -11.40405273 29.94726562 C-11.46199374 23.00200601 -11.46199374 23.00200601 -11.44604492 20.52783203 C-11.43752446 18.50580367 -11.4663264 16.48659393 -11.49804688 14.46484375 C-11.49740234 13.18738281 -11.49675781 11.90992187 -11.49609375 10.59375 C-11.49794678 9.42521484 -11.4997998 8.25667969 -11.50170898 7.05273438 C-10.40465124 0.37749834 -6.23123187 -0.89017598 0 0 Z " fill="#050403" transform="translate(222,105)"/>
<path d="M0 0 C0 10.23 0 20.46 0 31 C-10.32381616 31 -10.32381616 31 -14.55859375 27.47265625 C-18.19976904 23.75253949 -19.20044316 20.13192346 -19.5 15.0625 C-19.33378868 9.80705629 -17.68660366 6.67639146 -14 3 C-9.21591199 -1.11963134 -7.18936448 0 0 0 Z " fill="#FAAD9B" transform="translate(143,100)"/>
<path d="M0 0 C9.95901639 0 9.95901639 0 14.44921875 4.4296875 C17.49887905 7.94247673 18.83158691 10.56848873 19.375 15.1875 C18.80787941 20.95322601 16.12830913 25.05948286 11.875 28.9375 C7.56637741 31.3790528 5.37619115 31 0 31 C0 20.77 0 10.54 0 0 Z " fill="#FBCBBC" transform="translate(293,100)"/>
<path d="M0 0 C3.60052794 3.60052794 3.86739908 9.16070514 5 14 C0.71 14 -3.58 14 -8 14 C-6.53094581 11.06189162 -5.02746723 8.18393336 -3.4375 5.3125 C-3.00308594 4.52488281 -2.56867188 3.73726562 -2.12109375 2.92578125 C-1 1 -1 1 0 0 Z " fill="#F6C5B7" transform="translate(291,169)"/>
</svg>
