<?xml version="1.0" encoding="UTF-8"?>
<svg version="1.1" xmlns="http://www.w3.org/2000/svg" width="512" height="512">
<path d="M0 0 C2.45176022 1.95608095 4.60923888 4.14178759 6.78637695 6.39575195 C7.42482544 7.0400415 8.06327393 7.68433105 8.72106934 8.34814453 C10.09940246 9.74164 11.47309722 11.13973568 12.84258461 12.54192543 C15.01648227 14.76714808 17.20286855 16.97939599 19.39286804 19.18876648 C24.8305506 24.67977524 30.24635108 30.19220416 35.66271973 35.70422363 C40.2417558 40.36250078 44.82910495 45.01228903 49.42760277 49.65135765 C51.57062721 51.82011503 53.70113409 54.00065718 55.83137512 56.18196106 C70.97714325 71.55546238 84.46247957 76.30831138 105.54858398 79.28735352 C119.62161232 81.37911408 133.50929428 84.99460646 146.93359375 89.71484375 C150.1044704 90.77061611 152.63792328 91.59132003 156 91 C159.09636037 89.49669 159.09636037 89.49669 162.3125 87.4375 C177.61151991 78.29119131 193.7346197 71.78713861 211.67089844 70.94604492 C225.3822339 70.0399308 233.22732659 61.42866725 242.31260109 52.09378815 C244.49167343 49.85503401 246.686016 47.63227762 248.88468933 45.41278076 C253.54159397 40.7058313 258.17758492 35.97858728 262.8125 31.25 C268.20375938 25.75467781 273.60339623 20.26790955 279.01880455 14.79637909 C281.17950845 12.60602547 283.32737509 10.40361173 285.47480774 8.20025635 C286.79620214 6.86114056 288.11812874 5.52254965 289.44067383 4.18457031 C290.03348648 3.56952133 290.62629913 2.95447235 291.23707581 2.32078552 C293.59415416 -0.04361256 295.44100282 -1.76315863 298.53495789 -3.07403564 C305.669306 -2.85976098 310.23642635 2.81970334 314.91723633 7.56079102 C315.68703827 8.32854858 316.45684021 9.09630615 317.24996948 9.8873291 C319.78463738 12.41899636 322.30841824 14.96122296 324.83203125 17.50390625 C326.59167622 19.2666095 328.35191314 21.02872201 330.11271667 22.79026794 C334.26781855 26.9505564 338.41583172 31.11781314 342.56079739 35.28819841 C346.80980597 39.56219317 351.06827027 43.82668341 355.32777882 48.09021091 C358.95955371 51.72613421 362.58848824 55.36488037 366.21637535 59.00468254 C367.95950034 60.75351729 369.70310287 62.50187618 371.44718361 64.24975777 C373.87734244 66.68676216 376.304078 69.12712059 378.72973633 71.56860352 C379.81826653 72.6588105 379.81826653 72.6588105 380.92878723 73.77104187 C381.58620911 74.43417389 382.24363098 75.09730591 382.92097473 75.78053284 C383.49483319 76.35736596 384.06869165 76.93419909 384.65993977 77.528512 C386.68224606 79.74915804 387.01668097 81.10425609 387.5 84.125 C386.97588966 88.1868551 386.65579095 88.80291524 384.05078125 91.65234375 C383.41543457 92.3484375 382.78008789 93.04453125 382.12548828 93.76171875 C378.37204787 97.71434242 374.5511612 101.592732 370.6875 105.4375 C369.87732422 106.25154297 369.06714844 107.06558594 368.23242188 107.90429688 C367.45833984 108.67708984 366.68425781 109.44988281 365.88671875 110.24609375 C365.18764404 110.94404053 364.48856934 111.6419873 363.76831055 112.36108398 C362 114 362 114 360 115 C358.6027591 114.89186323 357.20698794 114.76420878 355.8125 114.625 C351.87039955 114.59310598 349.89394062 115.31290476 346.9375 117.9375 C345.03595279 120.07513095 344.04093058 121.23502154 343.88671875 124.1171875 C343.96535156 124.84164062 344.04398437 125.56609375 344.125 126.3125 C344.33045015 129.30405459 344.23251525 130.62916123 342.62109375 133.19921875 C340.18780143 135.91878076 337.63274572 138.47659659 335 141 C318.41424659 156.97691447 309.29797975 168.9107725 306.1875 192.1875 C304.92253378 200.97139535 303.32782743 209.54272767 301.0625 218.125 C300.69463379 219.55295898 300.69463379 219.55295898 300.31933594 221.00976562 C299.18225211 225.25863428 297.95653757 229.28537492 296.1171875 233.28515625 C293.04751767 240.11967876 293.04751767 240.11967876 293.75634766 247.32958984 C296.21958439 252.66079076 299.39350549 257.54993864 302.52148438 262.50830078 C310.57450923 276.07982847 314.18722315 292.27349135 314.49609375 307.90234375 C315.73802179 315.5368316 320.19714913 320.77624793 325.58862305 326.02685547 C326.24109009 326.67830032 326.89355713 327.32974518 327.5657959 328.00093079 C329.70521927 330.13252671 331.85832452 332.2497146 334.01171875 334.3671875 C335.50670858 335.85216729 337.00073856 337.33811396 338.49385071 338.82498169 C342.41228951 342.72255391 346.3421614 346.60838366 350.27502441 350.49139404 C356.58335111 356.72423021 362.87289027 362.97604177 369.16468239 369.22555923 C371.36478412 371.40792965 373.56902281 373.58604891 375.77409363 375.76339722 C377.1159631 377.09205441 378.45778788 378.42075675 379.79956055 379.74951172 C380.41618057 380.35625229 381.0328006 380.96299286 381.66810608 381.58811951 C386.78660851 386.66630316 386.78660851 386.66630316 387.5 391.125 C386.97099397 395.22479672 386.58652105 395.87512519 383.94099426 398.76185608 C383.30266474 399.46109255 382.66433521 400.16032902 382.00666237 400.88075447 C378.86593422 404.19769218 375.67903367 407.46022798 372.4440918 410.68530273 C371.36473106 411.76729195 371.36473106 411.76729195 370.26356506 412.87113953 C367.91127273 415.22779336 365.55538935 417.58081789 363.19921875 419.93359375 C361.55477027 421.57871647 359.9104702 423.22398755 358.26631165 424.86940002 C354.83435524 428.30282528 351.40060999 431.73444861 347.96557617 435.16479492 C343.5558493 439.56879793 339.15066321 443.97731146 334.74678326 448.3871603 C331.35922903 451.7783191 327.96930784 455.16710369 324.57865334 458.55516243 C322.95235539 460.18079221 321.32680293 461.80716814 319.70200157 463.43429375 C317.44005125 465.69877176 315.17494096 467.9600398 312.90893555 470.22045898 C312.23516876 470.89625 311.56140198 471.57204102 310.86721802 472.26831055 C310.25193741 472.88077133 309.6366568 473.49323212 309.00273132 474.12425232 C308.46796519 474.65864142 307.93319906 475.19303053 307.3822279 475.74361324 C305.21286473 477.7154727 303.82202564 478.0284759 300.875 478.5 C291.60878222 477.304359 283.58179479 465.65768915 277.19342613 459.17689514 C275.22324518 457.17974987 273.24844383 455.18728338 271.27217102 453.19616699 C265.65826785 447.53983869 260.04710436 441.88088572 254.45239258 436.20556641 C251.01547124 432.7198054 247.56859029 429.24415958 244.11524391 425.77467346 C242.81157419 424.4611871 241.51154615 423.14407472 240.21545982 421.82310486 C224.40473156 405.71555542 210.60913457 399.84958494 188.44238281 396.71020508 C180.1951236 395.48319957 172.22757513 393.70068675 164.1875 391.5 C163.08905762 391.20448242 161.99061523 390.90896484 160.85888672 390.60449219 C156.48271748 389.39362017 152.21392975 388.19838319 148.078125 386.30859375 C142.75526375 383.90682591 142.75526375 383.90682591 137.15234375 384.69384766 C133.45973829 386.56815204 130.04901993 388.82777594 126.6015625 391.11328125 C112.45830517 400.35750029 95.00617449 405.16368214 78.23046875 405.49609375 C70.12409364 406.76057064 64.4479859 410.81542009 58.85961914 416.58862305 C58.20802826 417.24109009 57.55643738 417.89355713 56.88510132 418.5657959 C54.75648383 420.70292327 52.64600903 422.85705625 50.53515625 425.01171875 C49.05182687 426.5069271 47.56730538 428.00095369 46.08164978 429.49385071 C42.19004928 433.41010819 38.31328342 437.34071794 34.43994141 441.27502441 C28.96206802 446.83362021 23.46400263 452.37225831 17.96836853 457.9132843 C15.04407666 460.86184649 12.12536873 463.81577094 9.21095276 466.77409363 C7.88552234 468.11592988 6.56007854 469.45775292 5.23461914 470.79956055 C4.62944962 471.41618057 4.02428009 472.0328006 3.40077209 472.66810608 C-1.68475508 477.80739401 -1.68475508 477.80739401 -6.59877014 478.52700806 C-12.49282113 478.42243033 -15.51872733 474.57956848 -19.41967773 470.56787109 C-20.21903244 469.77771606 -21.01838715 468.98756104 -21.84196472 468.17346191 C-24.47591432 465.5594104 -27.07987358 462.91757415 -29.68359375 460.2734375 C-31.50683722 458.44796437 -33.33148859 456.62389642 -35.15748596 454.80117798 C-38.97861973 450.97830111 -42.78612177 447.14259595 -46.58276367 443.29541016 C-50.96807321 438.85202296 -55.37585362 434.43197157 -59.79688686 430.02414644 C-64.05575689 425.77728879 -68.30005678 421.51623733 -72.53770638 417.24818802 C-74.33938386 415.43562541 -76.14438218 413.6263575 -77.95272636 411.82044601 C-80.47647669 409.29527001 -82.98331585 406.75444715 -85.48608398 404.20849609 C-86.23668091 403.46330719 -86.98727783 402.71811829 -87.76062012 401.9503479 C-90.76507594 398.86441508 -92.75039296 396.80603677 -94.03918457 392.64424133 C-93.92973566 385.25844275 -85.95439562 379.36287684 -81.0690918 374.36889648 C-79.98291619 373.24956513 -78.90758758 372.11960335 -77.84350586 370.97924805 C-68.91727538 361.41848411 -68.91727538 361.41848411 -64.13769531 360.37524414 C-61.48046875 360.453125 -61.48046875 360.453125 -59.05200195 360.76831055 C-56.84824785 361.20215422 -56.84824785 361.20215422 -54.4921875 359.78515625 C-51.10654136 356.32609282 -51.10654136 356.32609282 -49.8203125 351.8125 C-49.93849111 350.33269824 -50.06322604 348.85340289 -50.19506836 347.37475586 C-49.94872397 344.37576725 -49.09087462 343.43868732 -47.05859375 341.25390625 C-46.41776855 340.56192139 -45.77694336 339.86993652 -45.11669922 339.15698242 C-42.26223457 336.24819405 -39.3381867 333.4199825 -36.38891602 330.60766602 C-20.97362086 315.81357701 -15.10661876 302.62537786 -12.33032227 281.60864258 C-10.2020509 266.37139533 -6.17783857 251.36222024 -0.8828125 236.92578125 C0.44620328 232.52121125 0.62798635 230.24762183 -1.46875 226.08203125 C-2.1390625 225.00308594 -2.809375 223.92414063 -3.5 222.8125 C-13.15261168 206.63069149 -20.34186755 189.55684449 -20.53125 170.4765625 C-21.69828242 161.82107207 -25.45557778 155.64711912 -31.68041992 149.71777344 C-32.34264053 149.06270813 -33.00486115 148.40764282 -33.68714905 147.73272705 C-35.11329842 146.32592278 -36.54636486 144.92610195 -37.98567772 143.53276825 C-40.26456037 141.32636769 -42.52413377 139.10169588 -44.77986145 136.87164307 C-49.56570242 132.14726111 -54.37561693 127.44783126 -59.1875 122.75 C-64.77576205 117.28942916 -70.35379625 111.81892007 -75.91250038 106.3282547 C-78.13855716 104.13830947 -80.37949724 101.96442288 -82.62162781 99.79095459 C-83.98437417 98.4495644 -85.34645589 97.10749855 -86.70776367 95.76464844 C-87.33373444 95.16608032 -87.9597052 94.56751221 -88.60464478 93.95080566 C-91.26999179 91.29389771 -92.82950817 89.49065174 -94.08076477 85.88970947 C-93.88883868 79.02272248 -87.95422028 74.66405657 -83.37915039 70.10449219 C-82.60485184 69.3250827 -81.83055328 68.54567322 -81.03279114 67.74264526 C-78.4762281 65.17220058 -75.91232107 62.60923445 -73.34765625 60.046875 C-71.56768557 58.26301766 -69.78793909 56.47893657 -68.00840759 54.69464111 C-64.28025077 50.95902591 -60.54830862 47.22723086 -56.8137207 43.49804688 C-52.4975238 39.18789945 -48.19060779 34.86863384 -43.88808447 30.54484057 C-39.74445378 26.38148128 -35.5925222 22.22648677 -31.43725395 18.07474518 C-29.67142196 16.30839885 -27.90796083 14.53967911 -26.14689827 12.76857758 C-23.68843053 10.29781568 -21.22066639 7.83673068 -18.75024414 5.37792969 C-18.0212793 4.64132111 -17.29231445 3.90471252 -16.54125977 3.14578247 C-15.86696426 2.47850128 -15.19266876 1.81122009 -14.49794006 1.12371826 C-13.91557618 0.54118664 -13.3332123 -0.04134499 -12.73320103 -0.64152908 C-8.28960204 -4.12439108 -4.53017562 -2.70158429 0 0 Z " fill="#020101" transform="translate(109,18)"/>
<path d="M0 0 C4.48117092 3.74631319 8.73963449 7.60957617 12.82080078 11.78662109 C13.35689468 12.33060043 13.89298859 12.87457977 14.44532776 13.43504333 C15.59757116 14.60434418 16.74874466 15.77470014 17.8989296 16.94602585 C20.3631705 19.45283135 22.83717114 21.94991286 25.31056023 24.44768715 C29.89886145 29.08141248 34.48332736 33.71876196 39.05078125 38.37304688 C42.24434391 41.6265602 45.45046555 44.86724221 48.66479111 48.1002388 C49.87562388 49.32268526 51.08195076 50.54961447 52.28329849 51.78138351 C67.38883029 67.25955312 82.1816426 74.60558244 103.55273438 77.64550781 C114.97586232 79.30017479 125.95927345 81.57315154 137 85 C138.45152497 85.43329104 139.90336212 85.8655373 141.35546875 86.296875 C142.82057481 86.73871445 144.28542364 87.18140788 145.75 87.625 C146.44230713 87.83108887 147.13461426 88.03717773 147.84790039 88.24951172 C152.76997094 89.76997094 152.76997094 89.76997094 155 92 C147.45877285 104.81469018 139.91603667 117.62337293 132.0625 130.25 C131.53873779 131.09667236 131.01497559 131.94334473 130.4753418 132.81567383 C128.07215071 136.69540988 125.64632001 140.55566926 123.16015625 144.3828125 C122.31499474 145.71347217 121.46993568 147.04419692 120.625 148.375 C120.23707275 148.9515332 119.84914551 149.52806641 119.44946289 150.12207031 C117.47847522 153.26561207 117.00083105 155.03664191 117.0859375 158.7890625 C117.70156195 162.26931782 117.70156195 162.26931782 121 164 C124.46046778 163.86917536 126.32666116 163.66158099 128.83154297 161.20043945 C129.33830566 160.40855225 129.84506836 159.61666504 130.3671875 158.80078125 C130.95467773 157.89279785 131.54216797 156.98481445 132.14746094 156.04931641 C135.16734859 151.07852083 138.14829985 146.08975146 141.05133057 141.04995728 C142.89779308 137.84696254 144.76120236 134.65386725 146.625 131.4609375 C146.9961795 130.82479019 147.36735901 130.18864288 147.74978638 129.53321838 C151.13348988 123.7468425 154.59963495 118.01375023 158.125 112.3125 C158.62016113 111.50772217 159.11532227 110.70294434 159.62548828 109.8737793 C162.21315845 105.71330588 164.88063229 101.60706603 167.6171875 97.54296875 C168.44259033 96.31163208 168.44259033 96.31163208 169.28466797 95.05541992 C172.03098195 91.76461187 174.14779534 91.07890784 178.375 90.6875 C183.52483264 91.13145109 186.54843082 92.70122757 190.375 96.125 C192.73039068 100.29222967 192.86226253 103.33191915 192 108 C190.90112305 110.42749023 190.90112305 110.42749023 189.44921875 112.99609375 C188.63130859 114.44435547 188.63130859 114.44435547 187.796875 115.921875 C184.65749304 121.2997728 181.4386034 126.62662951 178.1875 131.9375 C177.44349025 133.15738378 176.69976268 134.37743969 175.95629883 135.59765625 C174.41338772 138.12942609 172.86928119 140.66046048 171.32421875 143.19091797 C167.60240012 149.28812115 163.89498973 155.39407756 160.1875 161.5 C159.83081238 162.08718811 159.47412476 162.67437622 159.10662842 163.27935791 C154.17914029 171.39158006 149.26187176 179.50983539 144.41186523 187.66870117 C141.72048276 192.18482883 138.96616719 196.65269697 136.15234375 201.09375 C135.50354248 202.12846436 134.85474121 203.16317871 134.1862793 204.22924805 C132.9258818 206.23625346 131.65318759 208.23560597 130.36645508 210.22583008 C126.05063188 217.1236933 126.05063188 217.1236933 126 225 C127.91025497 227.29069271 127.91025497 227.29069271 131.125 227.5625 C135.15440728 226.97758604 135.81652678 226.6366061 138.65383911 224.04708862 C139.70397879 223.08914209 139.70397879 223.08914209 140.7753334 222.11184311 C144.72047408 218.36677939 148.57913572 214.54216813 152.41357422 210.68408203 C153.80265301 209.29276198 155.19173193 207.90144205 156.58081555 206.51012683 C158.05747944 205.0301147 159.53288752 203.54886129 161.00793076 202.06723404 C164.08958776 198.9719595 167.17514101 195.88058831 170.26126099 192.7897644 C176.80215829 186.23781746 183.33878373 179.68161624 189.875 173.125 C196.95358789 166.0243702 204.03292387 158.92449534 211.11712086 151.82946098 C214.1863305 148.75526578 217.25308532 145.67864863 220.31799006 142.60016179 C221.76177039 141.15072997 223.20668059 139.70243622 224.65211487 138.25465393 C226.41602804 136.48786125 228.17812973 134.71925756 229.93812561 132.94856262 C230.71182999 132.17478775 231.48553436 131.40101288 232.28268433 130.60379028 C232.95626417 129.92798983 233.62984402 129.25218937 234.32383537 128.55591011 C237.59423038 125.52014586 240.46773927 125.72339287 244.75 125.78515625 C249.06118301 126.19681435 251.26791241 128.30748472 254.3125 131.1875 C256.47318796 134.78864659 256.95055101 137.9601582 256 142 C252.76727981 148.80160362 247.89324316 153.47185558 242.54980469 158.69555664 C241.58301754 159.65165961 240.61694148 160.60848205 239.65151978 161.56596375 C237.58108776 163.61683257 235.50622841 165.66307443 233.42787933 167.70591927 C230.14150498 170.9371877 226.86839364 174.18167229 223.59747314 177.42857361 C214.29784111 186.65591309 204.98049012 195.86523995 195.65039062 205.06176758 C190.4900862 210.14842765 185.34062037 215.24581351 180.20254827 220.35493177 C176.9531598 223.5847031 173.69072561 226.80049438 170.41796064 230.00656712 C168.38713756 232.00220347 166.36896893 234.01026714 164.35416794 236.02206612 C162.97111219 237.3956077 161.57312643 238.7540644 160.17477417 240.11203003 C158.94656448 241.34610847 158.94656448 241.34610847 157.69354248 242.6051178 C156.97605206 243.31318101 156.25856163 244.02124422 155.51932907 244.75076389 C153.54636385 247.67156933 153.63380698 249.54366404 154 253 C155 255 155 255 157 256 C162.30533744 256.61033144 165.63993954 254.91712379 170.0234375 252.1953125 C170.68179092 251.8007486 171.34014435 251.40618469 172.01844788 250.99966431 C174.14518732 249.72067464 176.25999348 248.42328242 178.375 247.125 C179.84189522 246.23755783 181.30942688 245.35116682 182.77758789 244.46582031 C190.29414872 239.92221935 197.7831104 235.33069654 205.20361328 230.6315918 C212.03298964 226.31320542 218.97589118 222.18347417 225.91918945 218.05151367 C231.19948995 214.90383322 236.45666462 211.73084466 241.66369629 208.46366882 C244.19632835 206.87490339 246.73565742 205.29699624 249.27502441 203.71902466 C250.49819509 202.9543513 251.71792555 202.18414436 252.93395996 201.40817261 C254.63720873 200.32188454 256.3535646 199.25623243 258.0703125 198.19140625 C259.04758301 197.57467041 260.02485352 196.95793457 261.03173828 196.32250977 C265.66506608 194.25812938 269.45643006 194.45521061 274.1875 196.125 C277.63961024 198.42640683 279.1701251 200.2698704 281 204 C281.65756352 207.76806061 281.37348219 211.01960926 280 214.625 C274.24058378 221.46430676 265.77885499 225.67743635 258.17816162 230.17214966 C255.51663799 231.74622382 252.8612373 233.33050278 250.20541382 234.91416931 C248.83007302 235.73420527 247.45444046 236.5537521 246.07852173 237.37281799 C239.32050412 241.39748324 232.59425135 245.47353503 225.875 249.5625 C223.58725559 250.9544534 221.29949526 252.34638061 219.01171875 253.73828125 C218.44471756 254.0833522 217.87771637 254.42842316 217.29353333 254.78395081 C213.60689293 257.02643935 209.91550045 259.26091431 206.22094727 261.49034119 C203.65878235 263.03653943 201.09783387 264.58474659 198.53692627 266.13302612 C197.322149 266.86669931 196.10679353 267.59941615 194.89080811 268.33108521 C185.65745355 273.74637162 185.65745355 273.74637162 177 280 C176.3724445 283.63982187 176.32174853 285.72329135 178.0625 289 C181.82682364 290.94287672 186.27650118 289.2023665 190.18399048 288.10942078 C191.26618866 287.75064346 192.34838684 287.39186615 193.46337891 287.0222168 C194.70221832 286.6147673 195.94105774 286.20731781 197.21743774 285.78752136 C198.55383986 285.34150197 199.89021407 284.89539896 201.2265625 284.44921875 C202.6201284 283.98885381 204.01387991 283.52905041 205.4078064 283.06977844 C209.07053006 281.86151316 212.73096261 280.64645538 216.39086914 279.4296875 C221.51796646 277.72644459 226.64805691 276.0322362 231.77792358 274.33735657 C234.5024199 273.43719648 237.22601634 272.53439487 239.94888306 271.62931824 C243.62866085 270.40744932 247.31374027 269.20218351 251 268 C252.78866486 267.4075499 252.78866486 267.4075499 254.61346436 266.8031311 C255.75212952 266.4360202 256.89079468 266.0689093 258.06396484 265.69067383 C259.06535492 265.36408279 260.066745 265.03749176 261.09848022 264.70100403 C264.80753038 263.80490154 268.41671333 263.13035407 271.86328125 265.0234375 C276.94405161 269.76183789 276.94405161 269.76183789 277.08984375 272.98828125 C277.03957031 273.75527344 276.98929687 274.52226562 276.9375 275.3125 C276.90527344 276.07175781 276.87304688 276.83101563 276.83984375 277.61328125 C275.58771717 281.17165028 273.05522505 282.97731218 270 285 C266.79819699 286.51605263 263.5002599 287.66948145 260.15234375 288.8203125 C259.19514435 289.16090195 258.23794495 289.50149139 257.2517395 289.85240173 C255.20734327 290.57847744 253.16097072 291.29900852 251.11282349 292.01443481 C247.91660306 293.13230868 244.72701013 294.26740469 241.53881836 295.40795898 C233.726523 298.20112013 225.90751771 300.97513408 218.08300781 303.73388672 C214.0669595 305.15205404 210.06445592 306.60506172 206.0625 308.0625 C204.92997803 308.4538916 203.79745605 308.8452832 202.63061523 309.24853516 C195.39064649 311.91167944 191.09917238 315.28663115 186 321 C183.41323251 323.26389636 180.75474783 325.39615194 178.0703125 327.54296875 C175.95839484 329.23304026 173.87452125 330.93639901 171.8046875 332.67578125 C151.43698757 349.62796111 126.3480008 368.24912057 100 374 C99.21109375 374.185625 98.4221875 374.37125 97.609375 374.5625 C94.35900285 375.10747258 91.16802553 375.19219113 87.875 375.3125 C69.51063717 376.3288783 59.3083562 387.3951144 47.09375 399.7109375 C45.76040829 401.04801504 44.42662012 402.38464749 43.09240723 403.72085571 C39.60280055 407.21805391 36.11924527 410.72121873 32.63696289 414.22570801 C29.07414669 417.8090797 25.50557528 421.38671003 21.9375 424.96484375 C14.95272417 431.97099033 7.97433484 438.98346084 1 446 C-3.74190735 442.04145382 -8.22496834 437.9163086 -12.57788086 433.53564453 C-13.19337799 432.92029343 -13.80887512 432.30494232 -14.44302368 431.67094421 C-16.45267998 429.6605979 -18.45878274 427.64674589 -20.46484375 425.6328125 C-21.86709544 424.22869339 -23.26956981 422.82479664 -24.67225647 421.42111206 C-28.34541268 417.74415621 -32.01555454 414.06420609 -35.68505859 410.38360596 C-39.43729767 406.62109763 -43.19240493 402.86145421 -46.94726562 399.1015625 C-54.30097336 391.73716251 -61.65149708 384.36959333 -69 377 C-68.04001075 375.87162042 -67.07883567 374.74424965 -66.11715698 373.61730957 C-65.58202925 372.98939766 -65.04690151 372.36148575 -64.49555779 371.7145462 C-62.94229166 369.93384167 -61.32383107 368.30214699 -59.5703125 366.71875 C-59.003125 366.18636719 -58.4359375 365.65398437 -57.8515625 365.10546875 C-56.68789274 364.02341383 -55.51306577 362.95325007 -54.328125 361.89453125 C-51.20302888 358.92064946 -50.08561384 357.7149507 -49.5546875 353.28125 C-49.89635556 350.00130856 -49.89635556 350.00130856 -51 347 C-48.24179351 343.65494106 -45.48870715 340.59267142 -42 338 C-39.53740467 337.86318915 -37.69227082 338.31171708 -35.3125 338.90283203 C-32.95723891 339.22017817 -32.95723891 339.22017817 -31.11767578 337.82202148 C-30.5039209 337.24009033 -29.89016602 336.65815918 -29.2578125 336.05859375 C-28.21983521 335.08841309 -28.21983521 335.08841309 -27.16088867 334.09863281 C-26.44779541 333.40608398 -25.73470215 332.71353516 -25 332 C-23.94872925 331.00371582 -23.94872925 331.00371582 -22.8762207 329.98730469 C-3.54979932 311.49596191 5.27497362 295.33268245 9.25 268.8125 C11.40408257 255.16094392 14.61300191 242.11515105 19 229 C19.39461426 227.81857422 19.78922852 226.63714844 20.19580078 225.41992188 C31.44138722 192.13470619 44.97463925 159.28951686 61 128 C65.18818779 129.31771215 66.93491176 130.72726648 69.25 134.4375 C69.75015625 135.21996094 70.2503125 136.00242188 70.765625 136.80859375 C75.95085776 146.01402279 72.13034277 157.0386492 69.80807495 166.63024902 C69.24273698 168.96752753 68.69176421 171.30777796 68.14477539 173.64941406 C67.42699077 176.71958143 66.70539978 179.78879206 65.97900391 182.85693359 C64.76690479 187.98111869 63.57290016 193.10821361 62.4375 198.25 C62.26959961 198.96148193 62.10169922 199.67296387 61.92871094 200.40600586 C60.95323487 204.8809748 60.92316852 208.54266769 62 213 C63.31572733 215.09555174 63.31572733 215.09555174 65.125 216.75 C68.92605629 220.73914979 71.68703044 225.06515133 74.51953125 229.77734375 C75.80849243 232.11111752 75.80849243 232.11111752 78 233 C81.99491297 233.47737811 81.99491297 233.47737811 85.46264648 231.84814453 C87.47197773 229.43260737 89.0368619 226.87078094 90.66015625 224.1796875 C91.00667236 223.60797318 91.35318848 223.03625885 91.71020508 222.44721985 C92.83244382 220.59266455 93.94804223 218.73424015 95.0625 216.875 C95.82925769 215.59931233 96.59610369 214.32367774 97.36303711 213.0480957 C98.50786259 211.14309189 99.65194347 209.23766093 100.79371643 207.33082581 C102.9462472 203.73847216 105.12762179 200.16694206 107.34375 196.61328125 C108.2500769 195.13806807 109.15633427 193.66281218 110.0625 192.1875 C110.67847046 191.22336182 110.67847046 191.22336182 111.30688477 190.23974609 C113.85092487 186.03889916 114.66734469 182.88784896 114 178 C110.51921688 175.67947792 109.09482441 175.46788739 105 176 C102.99131459 177.7653774 102.99131459 177.7653774 101.54296875 180.296875 C100.95692871 181.21146484 100.37088867 182.12605469 99.76708984 183.06835938 C99.1839502 184.03580078 98.60081055 185.00324219 98 186 C97.43619629 186.92103516 96.87239258 187.84207031 96.29150391 188.79101562 C94.60319825 191.59487035 92.95241207 194.41760146 91.3125 197.25 C84.63260849 208.73227577 84.63260849 208.73227577 81 214 C77.38397446 210.75484888 75.50046375 208.86285429 75 204 C75.35791016 201.3347168 75.35791016 201.3347168 76.0390625 198.44921875 C76.28769043 197.36979004 76.53631836 196.29036133 76.79248047 195.17822266 C77.06721191 194.02628418 77.34194336 192.8743457 77.625 191.6875 C78.18325183 189.25152192 78.74052369 186.81531909 79.296875 184.37890625 C79.58111328 183.1480127 79.86535156 181.91711914 80.15820312 180.64892578 C87.70376012 153.06151809 87.70376012 153.06151809 80.45703125 126.4921875 C75.74469132 119.95745524 70.46949478 115.33638081 62.375 113.9375 C59.1031178 113.7576027 57.86675626 114.05893473 54.75 115.4375 C48.18659757 121.55339772 44.82123206 130.2244859 41.125 138.25 C40.57344238 139.44206055 40.02188477 140.63412109 39.45361328 141.86230469 C33.32773519 155.20137997 27.7092534 168.7586282 22.1171875 182.328125 C21.8458197 182.98546631 21.5744519 183.64280762 21.29486084 184.32006836 C19.43857207 188.84779943 17.70105967 193.41165724 16 198 C13.74473535 195.8223907 12.35190568 194.02559268 11.0625 191.15625 C10.55795288 190.03742432 10.55795288 190.03742432 10.04321289 188.89599609 C9.69895264 188.10531738 9.35469238 187.31463867 9 186.5 C8.64478271 185.6848291 8.28956543 184.8696582 7.92358398 184.02978516 C4.17032896 175.25913076 1.97656253 167.57575259 1.5625 158 C0.74865655 139.33629438 -10.11814102 128.43365044 -22.7109375 115.99609375 C-24.04823416 114.66440176 -25.38486303 113.33203887 -26.72085571 111.9990387 C-30.21585559 108.51541895 -33.71977359 105.04090866 -37.22570801 101.56829834 C-40.81091306 98.0139423 -44.38749722 94.45093406 -47.96484375 90.88867188 C-54.96821187 83.91734717 -61.98104404 76.95562769 -69 70 C-65.04145382 65.25809265 -60.9163086 60.77503166 -56.53564453 56.42211914 C-55.92029343 55.80662201 -55.30494232 55.19112488 -54.67094421 54.55697632 C-52.6605979 52.54732002 -50.64674589 50.54121726 -48.6328125 48.53515625 C-47.22869339 47.13290456 -45.82479664 45.73043019 -44.42111206 44.32774353 C-40.74415621 40.65458732 -37.06420609 36.98444546 -33.38360596 33.31494141 C-29.62109763 29.56270233 -25.86145421 25.80759507 -22.1015625 22.05273438 C-14.73716251 14.69902664 -7.36959333 7.34850292 0 0 Z " fill="#FDC69E" transform="translate(102,33)"/>
<path d="M0 0 C4.48117092 3.74631319 8.73963449 7.60957617 12.82080078 11.78662109 C13.35689468 12.33060043 13.89298859 12.87457977 14.44532776 13.43504333 C15.59757116 14.60434418 16.74874466 15.77470014 17.8989296 16.94602585 C20.3631705 19.45283135 22.83717114 21.94991286 25.31056023 24.44768715 C29.89886145 29.08141248 34.48332736 33.71876196 39.05078125 38.37304688 C42.24434391 41.6265602 45.45046555 44.86724221 48.66479111 48.1002388 C49.87562388 49.32268526 51.08195076 50.54961447 52.28329849 51.78138351 C67.38883029 67.25955312 82.1816426 74.60558244 103.55273438 77.64550781 C114.97586232 79.30017479 125.95927345 81.57315154 137 85 C138.45152497 85.43329104 139.90336212 85.8655373 141.35546875 86.296875 C142.82057481 86.73871445 144.28542364 87.18140788 145.75 87.625 C146.44230713 87.83108887 147.13461426 88.03717773 147.84790039 88.24951172 C152.76997094 89.76997094 152.76997094 89.76997094 155 92 C147.45877285 104.81469018 139.91603667 117.62337293 132.0625 130.25 C131.53873779 131.09667236 131.01497559 131.94334473 130.4753418 132.81567383 C128.07215071 136.69540988 125.64632001 140.55566926 123.16015625 144.3828125 C122.31499474 145.71347217 121.46993568 147.04419692 120.625 148.375 C120.23707275 148.9515332 119.84914551 149.52806641 119.44946289 150.12207031 C117.45526268 153.30263391 116.99970469 154.99362785 117.17578125 158.79296875 C117.97774064 161.91338894 118.45632775 163.11989442 121 165 C120.2575 165.70125 119.515 166.4025 118.75 167.125 C115.88812459 169.881391 115.88812459 169.881391 114.125 173.3125 C113.42375 174.199375 112.7225 175.08625 112 176 C110.906875 175.9175 109.81375 175.835 108.6875 175.75 C105.00629099 175.57253394 105.00629099 175.57253394 103.34375 177.81640625 C102.7971875 178.64011719 102.250625 179.46382812 101.6875 180.3125 C101.08059326 181.22483398 100.47368652 182.13716797 99.84838867 183.07714844 C96.89810719 187.74241986 94.07811599 192.47332516 91.3125 197.25 C84.63260849 208.73227577 84.63260849 208.73227577 81 214 C77.38397446 210.75484888 75.50046375 208.86285429 75 204 C75.35791016 201.3347168 75.35791016 201.3347168 76.0390625 198.44921875 C76.28769043 197.36979004 76.53631836 196.29036133 76.79248047 195.17822266 C77.06721191 194.02628418 77.34194336 192.8743457 77.625 191.6875 C78.18325183 189.25152192 78.74052369 186.81531909 79.296875 184.37890625 C79.58111328 183.1480127 79.86535156 181.91711914 80.15820312 180.64892578 C87.70376012 153.06151809 87.70376012 153.06151809 80.45703125 126.4921875 C75.74469132 119.95745524 70.46949478 115.33638081 62.375 113.9375 C59.1031178 113.7576027 57.86675626 114.05893473 54.75 115.4375 C48.18659757 121.55339772 44.82123206 130.2244859 41.125 138.25 C40.57344238 139.44206055 40.02188477 140.63412109 39.45361328 141.86230469 C33.32773519 155.20137997 27.7092534 168.7586282 22.1171875 182.328125 C21.8458197 182.98546631 21.5744519 183.64280762 21.29486084 184.32006836 C19.43857207 188.84779943 17.70105967 193.41165724 16 198 C13.74473535 195.8223907 12.35190568 194.02559268 11.0625 191.15625 C10.55795288 190.03742432 10.55795288 190.03742432 10.04321289 188.89599609 C9.69895264 188.10531738 9.35469238 187.31463867 9 186.5 C8.64478271 185.6848291 8.28956543 184.8696582 7.92358398 184.02978516 C4.17032896 175.25913076 1.97656253 167.57575259 1.5625 158 C0.74865655 139.33629438 -10.11814102 128.43365044 -22.7109375 115.99609375 C-24.04823416 114.66440176 -25.38486303 113.33203887 -26.72085571 111.9990387 C-30.21585559 108.51541895 -33.71977359 105.04090866 -37.22570801 101.56829834 C-40.81091306 98.0139423 -44.38749722 94.45093406 -47.96484375 90.88867188 C-54.96821187 83.91734717 -61.98104404 76.95562769 -69 70 C-65.04145382 65.25809265 -60.9163086 60.77503166 -56.53564453 56.42211914 C-55.92029343 55.80662201 -55.30494232 55.19112488 -54.67094421 54.55697632 C-52.6605979 52.54732002 -50.64674589 50.54121726 -48.6328125 48.53515625 C-47.22869339 47.13290456 -45.82479664 45.73043019 -44.42111206 44.32774353 C-40.74415621 40.65458732 -37.06420609 36.98444546 -33.38360596 33.31494141 C-29.62109763 29.56270233 -25.86145421 25.80759507 -22.1015625 22.05273438 C-14.73716251 14.69902664 -7.36959333 7.34850292 0 0 Z " fill="#F1AE81" transform="translate(102,33)"/>
<path d="M0 0 C2.52697953 1.72058793 3.5333991 3.41318503 5.0378418 6.07080078 C5.58142334 7.02591553 6.12500488 7.98103027 6.68505859 8.96508789 C7.52870972 10.49661499 7.52870972 10.49661499 8.3894043 12.05908203 C9.25722534 13.61671265 9.25722534 13.61671265 10.14257812 15.20581055 C17.19719224 28.07163188 23.05310224 40.84069932 23.3894043 55.68408203 C24.15892127 73.48376556 33.45665691 83.12764546 45.60590935 95.02172089 C47.57374822 96.94981083 49.53369557 98.88560942 51.49159241 100.8237915 C57.05363726 106.32805536 62.62569654 111.82202526 68.21191406 117.30175781 C71.63993157 120.66550915 75.05579062 124.04120396 78.46417427 127.42484283 C79.76377929 128.71016467 81.06804555 129.99079083 82.37696648 131.26662445 C84.19850267 133.04268526 86.00424951 134.83345044 87.80712891 136.62841797 C88.35299149 137.15316208 88.89885406 137.67790619 89.46125793 138.21855164 C90.93516541 139.70452881 90.93516541 139.70452881 93.0144043 142.37158203 C92.6881457 145.54132507 91.57244563 147.18676336 89.35057068 149.3961792 C88.5028862 150.25004967 88.5028862 150.25004967 87.63807678 151.12117004 C87.01517258 151.73328842 86.39226837 152.3454068 85.75048828 152.97607422 C85.09685303 153.63014755 84.44321777 154.28422089 83.76977539 154.95811462 C81.60705104 157.11874861 79.43389371 159.26856207 77.26049805 161.41845703 C75.75911813 162.91424191 74.25839909 164.41069041 72.75831604 165.90777588 C68.80782456 169.84681149 64.84840682 173.77675523 60.88708496 177.70489502 C56.84663807 181.71465728 52.81466745 185.73292254 48.78198242 189.75048828 C40.86774541 197.632548 32.94405568 205.50503208 25.0144043 213.37158203 C20.56051259 209.64504388 16.31743791 205.80809856 12.25366211 201.66088867 C11.72410919 201.12505661 11.19455627 200.58922455 10.6489563 200.03715515 C9.51141846 198.88588446 8.3749735 197.73353307 7.2395401 196.58018684 C5.43325579 194.74695343 3.62236648 192.91838858 1.80999756 191.09117126 C-3.33881263 185.89992652 -8.48493924 180.70612279 -13.61450195 175.49584961 C-16.76495493 172.29650495 -19.92540455 169.10732698 -23.0923233 165.92428398 C-24.28714731 164.71965315 -25.47833193 163.51139983 -26.66555023 162.29927254 C-41.40110636 147.26147892 -57.05504547 138.4906541 -78.0480957 135.55908203 C-86.6552283 134.29603283 -95.14830434 132.83459372 -103.6105957 130.80908203 C-104.44341064 130.61145264 -105.27622559 130.41382324 -106.13427734 130.21020508 C-111.24843151 128.94250493 -116.0846427 127.30616874 -120.9855957 125.37158203 C-117.10839899 121.26235231 -112.92779007 117.99364317 -108.3605957 114.68408203 C-102.51374315 110.37979768 -97.0581099 105.93920578 -91.8059082 100.91845703 C-90.40985352 99.65775391 -90.40985352 99.65775391 -88.9855957 98.37158203 C-88.40495361 97.7828833 -87.82431152 97.19418457 -87.22607422 96.58764648 C-79.36347655 89.35242616 -69.73965895 86.53912755 -59.79638672 83.1305542 C-56.63437384 82.04579816 -53.48208106 80.93626103 -50.33129883 79.81933594 C-46.1502831 78.33873285 -41.96678366 76.8656654 -37.7800293 75.40136719 C-30.16209456 72.73530077 -22.56129804 70.03034286 -14.9855957 67.24658203 C-13.84437256 66.84656982 -12.70314941 66.44655762 -11.52734375 66.03442383 C-3.57222721 63.0936495 1.46495835 59.48359163 5.9519043 52.24658203 C8.3130231 45.70923434 8.2865726 37.28764892 5.4519043 30.93408203 C1.91647917 25.05411182 -3.30795057 20.90508763 -9.8527832 18.85205078 C-18.45324102 16.91458501 -25.19008173 19.17689732 -33.18457031 22.32446289 C-38.69745486 24.46762898 -38.69745486 24.46762898 -41.9855957 23.37158203 C-40.33846029 22.38330078 -38.69132487 21.39501953 -37.04418945 20.40673828 C-35.46577271 19.45915649 -35.46577271 19.45915649 -33.85546875 18.49243164 C-31.56300809 17.11677415 -29.26875284 15.74417719 -26.97314453 14.3737793 C-21.99294216 11.39788053 -17.01985929 8.41827706 -12.1262207 5.30126953 C-11.44374268 4.87193115 -10.76126465 4.44259277 -10.05810547 4.00024414 C-8.83145794 3.22510966 -7.61262557 2.43741975 -6.40332031 1.63549805 C-2.51962118 -0.79743083 -2.51962118 -0.79743083 0 0 Z " fill="#F2AF83" transform="translate(384.985595703125,265.62841796875)"/>
<path d="M0 0 C4.74190735 3.95854618 9.22496834 8.0836914 13.57788086 12.46435547 C14.19337799 13.07970657 14.80887512 13.69505768 15.44302368 14.32905579 C17.45267998 16.3394021 19.45878274 18.35325411 21.46484375 20.3671875 C22.86709544 21.77130661 24.26956981 23.17520336 25.67225647 24.57888794 C29.34541268 28.25584379 33.01555454 31.93579391 36.68505859 35.61639404 C40.43729767 39.37890237 44.19240493 43.13854579 47.94726562 46.8984375 C55.30097336 54.26283749 62.65149708 61.63040667 70 69 C69.04001075 70.12837958 68.07883567 71.25575035 67.11715698 72.38269043 C66.58202925 73.01060234 66.04690151 73.63851425 65.49555779 74.2854538 C63.94229166 76.06615833 62.32383107 77.69785301 60.5703125 79.28125 C60.003125 79.81363281 59.4359375 80.34601563 58.8515625 80.89453125 C57.68789274 81.97658617 56.51306577 83.04674993 55.328125 84.10546875 C52.20302888 87.07935054 51.08561384 88.2850493 50.5546875 92.71875 C50.89635556 95.99869144 50.89635556 95.99869144 52 99 C49.03 101.97 46.06 104.94 43 108 C42.01 107.67 41.02 107.34 40 107 C35.55134122 106.47614539 33.64201706 106.54169496 29.94555664 109.18041992 C28.91516953 110.17826065 27.90418155 111.19640037 26.91015625 112.23046875 C26.08782753 113.04986687 26.08782753 113.04986687 25.24888611 113.88581848 C24.09177468 115.04692282 22.94327349 116.21666344 21.80297852 117.39428711 C20.09145091 119.15767191 18.35099312 120.88755552 16.60351562 122.61523438 C2.27276151 137.01042522 -5.48733017 152.30869163 -7.90087891 172.59399414 C-8.94272251 181.24994079 -10.79838941 189.57353105 -13 198 C-15.11956509 195.38041224 -17.15232494 192.77843645 -19.0625 190 C-23.33785697 184.96863478 -29.49973652 182.73204956 -35.8203125 181.41015625 C-51.32445073 180.20615641 -67.01709475 193.50873062 -79.43896484 201.37939453 C-82.6717297 203.42506595 -85.91742818 205.44958609 -89.1640625 207.47314453 C-92.1121505 209.31100939 -95.05612608 211.15539442 -98 213 C-98.33 212.34 -98.66 211.68 -99 211 C-98.54839508 210.61700241 -98.09679016 210.23400482 -97.63150024 209.83940125 C-88.19417501 201.72017567 -79.47651739 192.81616557 -70.64550781 184.05053711 C-68.46962008 181.89246518 -66.28553351 179.74324224 -64.09375 177.60131836 C-61.41897115 174.98725808 -58.75971044 172.35828167 -56.1103096 169.71851158 C-55.11008713 168.7267481 -54.10481266 167.74004853 -53.09406662 166.75901222 C-44.7616247 158.65863384 -38.01107441 150.35812672 -37.3125 138.375 C-37.73517536 130.35377446 -40.45694417 123.98487062 -46.4375 118.5625 C-51.85677379 114.1879055 -56.94571259 112.48990747 -63.875 112.5625 C-64.54402344 112.54251953 -65.21304688 112.52253906 -65.90234375 112.50195312 C-73.4682285 112.50924203 -79.31559409 115.87728253 -84.61265564 121.11497498 C-85.11688553 121.63358597 -85.62111542 122.15219696 -86.140625 122.68652344 C-86.69774673 123.24306107 -87.25486847 123.79959869 -87.82887268 124.3730011 C-89.64557523 126.1924631 -91.44773845 128.0256174 -93.25 129.859375 C-94.5156414 131.13248638 -95.78217601 132.40471034 -97.04956055 133.67608643 C-100.36611089 137.0078333 -103.67046667 140.35141943 -106.97235107 143.69769287 C-110.35052833 147.11695209 -113.74020523 150.52476966 -117.12890625 153.93359375 C-123.76385124 160.61130398 -130.38595829 167.30158965 -137 174 C-137 170.76942957 -136.60418672 169.97942913 -134.97265625 167.31640625 C-134.51834229 166.56721924 -134.06402832 165.81803223 -133.59594727 165.04614258 C-133.08990967 164.22654053 -132.58387207 163.40693848 -132.0625 162.5625 C-131.53906006 161.70229248 -131.01562012 160.84208496 -130.47631836 159.95581055 C-129.3073264 158.03588899 -128.13534985 156.11778259 -126.9609375 154.20117188 C-123.6899266 148.86134432 -120.43789582 143.50999798 -117.1857605 138.15866089 C-116.08494707 136.3493934 -114.98133101 134.54186177 -113.87719727 132.73461914 C-103.4442833 116.14971037 -103.4442833 116.14971037 -102 97 C-104.09213967 90.12314628 -107.94059719 84.89122787 -114 81 C-115.485 80.505 -115.485 80.505 -117 80 C-117 79.34 -117 78.68 -117 78 C-114.41767086 77.01811439 -111.83421317 76.03940411 -109.25 75.0625 C-108.52039063 74.78470703 -107.79078125 74.50691406 -107.0390625 74.22070312 C-106.33007812 73.95322266 -105.62109375 73.68574219 -104.890625 73.41015625 C-104.24125977 73.16402588 -103.59189453 72.91789551 -102.92285156 72.66430664 C-98.9569976 71.29418366 -95.47434937 70.90795239 -91.26342773 70.81176758 C-70.52037268 70.22962749 -59.16437937 59.47648723 -45.3125 45.5078125 C-44.00157862 44.19315514 -42.69021066 42.87894297 -41.37841797 41.56515503 C-37.94799413 38.12714081 -34.5236225 34.68316067 -31.1005249 31.237854 C-27.59803314 27.71480425 -24.0897838 24.19749796 -20.58203125 20.6796875 C-13.71574367 13.79203119 -6.85584343 6.8980512 0 0 Z " fill="#E3A67E" transform="translate(409,33)"/>
<path d="M0 0 C2.92810762 1.81651121 5.43591638 3.87183276 7 7 C7.08984375 8.98828125 7.08984375 8.98828125 6.9375 11.3125 C6.90527344 12.07175781 6.87304688 12.83101563 6.83984375 13.61328125 C5.58771717 17.17165028 3.05522505 18.97731218 0 21 C-3.20180301 22.51605263 -6.4997401 23.66948145 -9.84765625 24.8203125 C-10.80485565 25.16090195 -11.76205505 25.50149139 -12.7482605 25.85240173 C-14.79265673 26.57847744 -16.83902928 27.29900852 -18.88717651 28.01443481 C-22.08339694 29.13230868 -25.27298987 30.26740469 -28.46118164 31.40795898 C-36.273477 34.20112013 -44.09248229 36.97513408 -51.91699219 39.73388672 C-55.9330405 41.15205404 -59.93554408 42.60506172 -63.9375 44.0625 C-65.07002197 44.4538916 -66.20254395 44.8452832 -67.36938477 45.24853516 C-74.60935351 47.91167944 -78.90082762 51.28663115 -84 57 C-86.58676749 59.26389636 -89.24525217 61.39615194 -91.9296875 63.54296875 C-94.04160516 65.23304026 -96.12547875 66.93639901 -98.1953125 68.67578125 C-118.56301243 85.62796111 -143.6519992 104.24912057 -170 110 C-170.78890625 110.185625 -171.5778125 110.37125 -172.390625 110.5625 C-175.64099715 111.10747258 -178.83197447 111.19219113 -182.125 111.3125 C-200.48936283 112.3288783 -210.6916438 123.3951144 -222.90625 135.7109375 C-224.23959171 137.04801504 -225.57337988 138.38464749 -226.90759277 139.72085571 C-230.39719945 143.21805391 -233.88075473 146.72121873 -237.36303711 150.22570801 C-240.92585331 153.8090797 -244.49442472 157.38671003 -248.0625 160.96484375 C-255.04727583 167.97099033 -262.02566516 174.98346084 -269 182 C-270.12120157 181.0449028 -271.24156401 180.08882049 -272.36157227 179.13232422 C-272.98556412 178.6000119 -273.60955597 178.06769958 -274.25245667 177.51925659 C-276.23224136 175.79809702 -278.10154154 173.998427 -279.9375 172.125 C-280.52402344 171.52945313 -281.11054688 170.93390625 -281.71484375 170.3203125 C-282.35099609 169.66675781 -282.35099609 169.66675781 -283 169 C-282.29546692 168.29710342 -281.59093384 167.59420685 -280.86505127 166.87001038 C-277.9490099 163.95382918 -275.05331838 161.01772764 -272.15917969 158.07983398 C-266.44296913 152.2818952 -260.71402052 146.49671704 -254.97771835 140.71865749 C-251.51570338 137.23053183 -248.05852709 133.73787336 -244.61181641 130.23461914 C-241.26490833 126.83318357 -237.90575099 123.44429174 -234.53794098 120.06355476 C-233.26258851 118.77901357 -231.99162046 117.4901029 -230.72530365 116.19665337 C-220.80007808 106.06717772 -213.24246319 100.28378346 -198.625 99.6875 C-161.70229541 96.97652583 -123.36563173 68.48437373 -97.95825195 42.94787598 C-91.61266031 36.77221446 -85.608376 33.66406622 -77.29296875 30.80859375 C-76.09174881 30.37418472 -74.89052887 29.9397757 -73.65290833 29.49220276 C-70.48056997 28.34500369 -67.29903685 27.22599198 -64.11437988 26.11352539 C-60.94360131 25.00109132 -57.78161642 23.86429313 -54.61914062 22.72851562 C-49.71447334 20.97015873 -44.80798678 19.21705626 -39.89990234 17.46826172 C-33.56504868 15.20498696 -27.23357452 12.93543333 -20.92578125 10.59765625 C-20.07001999 10.28976669 -19.21425873 9.98187714 -18.33256531 9.66465759 C-14.03981134 8.05377479 -10.97451526 6.66136794 -8 3 C-8.33 2.34 -8.66 1.68 -9 1 C-5.61670875 -0.12776375 -3.54843366 -0.41746278 0 0 Z " fill="#F5BA92" transform="translate(372,297)"/>
<path d="M0 0 C0.66 0.33 1.32 0.66 2 1 C1.34 1.66 0.68 2.32 0 3 C5.40238334 5.09418231 10.77859525 6.93775394 16.375 8.4375 C17.57201538 8.75835571 17.57201538 8.75835571 18.79321289 9.08569336 C26.98532676 11.17193204 35.28609143 12.39547563 43.66357422 13.48022461 C65.01609577 16.39916503 78.79960723 26.99917491 93.421875 41.93359375 C94.74118109 43.26225543 96.06161784 44.58979525 97.38311768 45.91627502 C100.81950405 49.37153492 104.24059667 52.84154154 107.65844727 56.31512451 C111.1562471 59.86447066 114.6685936 63.39935971 118.1796875 66.93554688 C124.32313958 73.12657619 130.45413057 79.32972275 136.5758667 85.54222107 C138.04595884 87.03271727 139.51967067 88.51967067 141 90 C136.71 94.29 132.42 98.58 128 103 C121.65027929 97.82558268 115.96329814 92.03729355 110.2251358 86.20860481 C108.4188515 84.3753714 106.60796218 82.54680655 104.79559326 80.71958923 C99.64678307 75.52834449 94.50065646 70.33454076 89.37109375 65.12426758 C86.22064077 61.92492292 83.06019116 58.73574495 79.8932724 55.55270195 C78.6984484 54.34807111 77.50726377 53.1398178 76.32004547 51.92769051 C61.58448934 36.88989689 45.93055024 28.11907207 24.9375 25.1875 C16.3303674 23.9244508 7.83729136 22.46301169 -0.625 20.4375 C-1.45781494 20.23987061 -2.29062988 20.04224121 -3.14868164 19.83862305 C-8.26283581 18.5709229 -13.09904699 16.93458671 -18 15 C-14.31911357 11.15274582 -10.43814081 7.88614275 -6.1875 4.6875 C-5.59001953 4.23310547 -4.99253906 3.77871094 -4.37695312 3.31054688 C-2.92052412 2.20366083 -1.46062183 1.10134736 0 0 Z " fill="#E7A476" transform="translate(282,376)"/>
<path d="M0 0 C4.91935902 4.11619836 9.52647956 8.40410362 14 13 C11.07598888 16.59235652 8.09244289 19.95108356 4.70703125 23.11328125 C4.12010498 23.66991455 3.53317871 24.22654785 2.9284668 24.80004883 C1.73968731 25.92059459 0.53684713 27.0264346 -0.68041992 28.1159668 C-3.80364182 31.08368308 -4.91506689 32.29073401 -5.4453125 36.71875 C-5.10364444 39.99869144 -5.10364444 39.99869144 -4 43 C-6.97 45.97 -9.94 48.94 -13 52 C-14.485 51.505 -14.485 51.505 -16 51 C-20.44865878 50.47614539 -22.35798294 50.54169496 -26.05444336 53.18041992 C-27.08483047 54.17826065 -28.09581845 55.19640037 -29.08984375 56.23046875 C-29.91217247 57.04986687 -29.91217247 57.04986687 -30.75111389 57.88581848 C-31.90822532 59.04692282 -33.05672651 60.21666344 -34.19702148 61.39428711 C-35.90854909 63.15767191 -37.64900688 64.88755552 -39.39648438 66.61523438 C-53.72723849 81.01042522 -61.48733017 96.30869163 -63.90087891 116.59399414 C-64.94272251 125.24994079 -66.79838941 133.57353105 -69 142 C-73 137 -73 137 -74.34375 135.3046875 C-76.68408201 132.41089859 -78.98705345 130.15757613 -82 128 C-81.81824219 127.46375 -81.63648438 126.9275 -81.44921875 126.375 C-78.14674737 116.07806359 -76.41257837 105.45588464 -75.0625 94.75 C-72.02041764 72.98550835 -59.03039885 59.84509201 -44.07841492 45.00325012 C-42.30229518 43.24009784 -40.52949775 41.47366143 -38.75744629 39.7064209 C-35.00780593 35.968088 -31.25418472 32.23376849 -27.5 28.5 C-23.11825957 24.14189505 -18.73818407 19.78214221 -14.36225891 15.41819763 C-12.61540488 13.67782454 -10.86557093 11.94048583 -9.11560059 10.20324707 C-8.0528322 9.14410839 -6.99020238 8.08483064 -5.92773438 7.02539062 C-4.99779663 6.1006897 -4.06785889 5.17598877 -3.10974121 4.2232666 C-0.97191717 2.18656115 -0.97191717 2.18656115 0 0 Z " fill="#D59A71" transform="translate(465,89)"/>
</svg>
