<?xml version="1.0" encoding="UTF-8"?>
<svg version="1.1" xmlns="http://www.w3.org/2000/svg" width="512" height="512">
<path d="M0 0 C6.71559982 5.57805944 10.71612599 11.33209099 13.40625 19.671875 C13.6558548 20.43383179 13.90545959 21.19578857 14.16262817 21.98083496 C18.1616074 34.44266543 21.55649318 47.09645353 25.0425415 59.70916748 C25.82849161 62.54733438 26.61987806 65.38397378 27.41129875 68.2206192 C28.17509598 70.96002342 28.93626118 73.7001531 29.69653702 76.4405365 C30.23390131 78.3763989 30.77292831 80.31179951 31.3119812 82.24719238 C31.63296783 83.41020874 31.95395447 84.5732251 32.28466797 85.77148438 C32.56857391 86.79640991 32.85247986 87.82133545 33.14498901 88.87731934 C33.75 91.3125 33.75 91.3125 33.75 93.3125 C34.98234375 93.25449219 36.2146875 93.19648438 37.484375 93.13671875 C51.02978827 92.68849469 61.08765131 94.46165499 71.78515625 103.4375 C79.21633053 110.52887903 84.27492046 120.05840094 84.953125 130.4140625 C85.12878711 143.61799744 82.27605176 154.63782356 73.125 164.5 C68.59546661 168.82995625 63.35316168 171.5933186 57.75 174.3125 C57.88277344 175.16972656 58.01554688 176.02695312 58.15234375 176.91015625 C58.41724609 178.62525391 58.41724609 178.62525391 58.6875 180.375 C58.86152344 181.50035156 59.03554688 182.62570312 59.21484375 183.78515625 C59.39144531 184.94917969 59.56804687 186.11320313 59.75 187.3125 C59.93046875 188.41078125 60.1109375 189.5090625 60.296875 190.640625 C63.56739177 217.14308846 57.16170355 244.2756936 41.73828125 266.16796875 C39.80709319 268.61515205 37.80831067 270.9716761 35.75 273.3125 C35.11320313 274.08078125 34.47640625 274.8490625 33.8203125 275.640625 C17.91118533 294.42489563 -5.31237016 305.14280365 -29.25 309.3125 C-61.17360494 311.23178133 -88.44634049 305.4673567 -113.25 284.3125 C-114.37341797 283.40757812 -114.37341797 283.40757812 -115.51953125 282.484375 C-130.8244826 269.72578158 -139.29790085 252.48565127 -145.60498047 233.97973633 C-146.12436787 232.30335323 -146.12436787 232.30335323 -147.25 231.3125 C-149.07450562 231.35493036 -150.89906956 231.40297593 -152.72241211 231.48071289 C-164.51726222 231.90426041 -173.69256216 229.77582765 -182.8125 221.8125 C-192.28237039 212.74186529 -197.05408795 203.17444685 -197.625 190.0625 C-197.36917743 178.64641774 -193.05287391 168.34529911 -185.1796875 160.16015625 C-181.53809022 156.75329608 -177.95580597 154.09169675 -173.58520508 151.69238281 C-172.77368484 151.24566223 -171.96216461 150.79894165 -171.12605286 150.33868408 C-170.50695541 150.00004333 -169.88785797 149.66140259 -169.25 149.3125 C-169.43570053 148.64486633 -169.62140106 147.97723267 -169.81272888 147.28936768 C-171.74369546 140.34673072 -173.67393855 133.40389291 -175.60375977 126.4609375 C-176.3242186 123.86907263 -177.04493462 121.27727947 -177.76586914 118.68554688 C-178.80142992 114.96237448 -179.83632716 111.23901819 -180.87109375 107.515625 C-181.19403915 106.35508606 -181.51698456 105.19454712 -181.84971619 103.99884033 C-182.14995193 102.91802185 -182.45018768 101.83720337 -182.75952148 100.72363281 C-183.15590065 99.29800018 -183.15590065 99.29800018 -183.56028748 97.84356689 C-186.54906829 86.87551296 -186.42292751 75.82150776 -180.80859375 65.71875 C-172.78242541 53.35360898 -162.55472168 49.09121785 -148.69140625 45.68359375 C-145.74416607 45.23561324 -142.91726395 45.21725534 -139.9375 45.25 C-138.33455078 45.26353516 -138.33455078 45.26353516 -136.69921875 45.27734375 C-135.89097656 45.28894531 -135.08273438 45.30054688 -134.25 45.3125 C-134.15203125 44.6834375 -134.0540625 44.054375 -133.953125 43.40625 C-132.05417375 32.53639112 -128.41910139 25.80184822 -119.25 19.3125 C-116.01655715 17.56764045 -112.75349082 16.40247492 -109.25 15.3125 C-107.5175 14.755625 -107.5175 14.755625 -105.75 14.1875 C-99.77566624 12.3648219 -94.55744913 10.83325754 -88.25 11.3125 C-87.651875 12.01375 -87.05375 12.715 -86.4375 13.4375 C-84.44780722 15.58488076 -84.44780722 15.58488076 -82.03125 15.16796875 C-79.41560649 14.62041687 -76.83875067 13.97455415 -74.25 13.3125 C-71.92063923 12.92083757 -69.59263003 12.61806044 -67.25 12.3125 C-67.1675 11.219375 -67.085 10.12625 -67 9 C-66.25 5.3125 -66.25 5.3125 -64.63208008 3.72338867 C-59.87622559 0.90653071 -54.38930413 -0.2656157 -49.1003418 -1.7590332 C-46.97635007 -2.36393569 -44.86277168 -2.99834312 -42.74804688 -3.63476562 C-27.95878879 -7.93521655 -13.31802696 -9.14181965 0 0 Z " fill="#020201" transform="translate(208.25,202.6875)"/>
<path d="M0 0 C22.00225307 19.76064421 34.80019428 43.38476668 37.4921875 73.23828125 C37.60823646 75.9344855 37.60230617 78.5403739 37.4921875 81.23828125 C38.2759375 81.27953125 39.0596875 81.32078125 39.8671875 81.36328125 C47.95154644 83.31467823 55.48147065 88.61041373 60.4921875 95.23828125 C67.47345854 106.92747642 70.24578278 117.73848712 67.4296875 131.17578125 C64.72925439 140.99324369 59.01111644 149.55899529 50.4921875 155.23828125 C42.54599055 159.47625296 36.22949505 161.40399238 27.2421875 161.30078125 C26.49710938 161.29626953 25.75203125 161.29175781 24.984375 161.28710938 C23.1536111 161.27537371 21.32288877 161.25743975 19.4921875 161.23828125 C19.2240625 161.91890625 18.9559375 162.59953125 18.6796875 163.30078125 C9.49564312 186.01920683 -3.02115392 209.21642835 -25.5078125 221.23828125 C-31.68906734 221.78049659 -31.68906734 221.78049659 -34.27734375 220.06640625 C-37.76430531 218.77177254 -40.40084547 220.27304092 -43.6328125 221.67578125 C-44.26574219 221.91232422 -44.89867187 222.14886719 -45.55078125 222.39257812 C-47.68701443 223.23098331 -47.68701443 223.23098331 -50.5078125 225.23828125 C-51.85495877 228.7669014 -51.85495877 228.7669014 -52.5078125 232.23828125 C-62.1474105 239.79364184 -81.07911701 238.16329957 -92.77734375 237.015625 C-115.3951235 234.16329398 -134.32814851 224.92555876 -151.5078125 210.23828125 C-152.19359375 209.655625 -152.879375 209.07296875 -153.5859375 208.47265625 C-170.76806123 192.57517728 -181.98378328 167.43419158 -183.72900391 144.30712891 C-183.84637295 141.26002882 -183.88663401 138.2251081 -183.8828125 135.17578125 C-183.88474609 133.55845093 -183.88474609 133.55845093 -183.88671875 131.90844727 C-183.76142359 122.29987468 -182.14286805 113.44921202 -179.5078125 104.23828125 C-180.41789062 103.96113281 -181.32796875 103.68398437 -182.265625 103.3984375 C-190.87757135 100.31681332 -198.46026962 92.71858891 -202.86328125 84.80078125 C-207.51576909 74.58882238 -208.55163956 62.05811581 -204.9453125 51.30078125 C-200.63964322 41.41424448 -194.87270593 34.60388128 -185.5078125 29.23828125 C-184.78335938 28.80386719 -184.05890625 28.36945313 -183.3125 27.921875 C-174.64692034 23.58908517 -161.7844852 23.64868464 -152.5078125 26.23828125 C-152.24871094 25.50867188 -151.98960937 24.7790625 -151.72265625 24.02734375 C-143.68215257 5.56779512 -122.26056813 -8.19651683 -104.5078125 -15.76171875 C-69.64464466 -28.95666802 -28.93702674 -24.43044061 0 0 Z " fill="#E6985D" transform="translate(432.5078125,60.76171875)"/>
<path d="M0 0 C0.1451001 0.57105469 0.2902002 1.14210938 0.43969727 1.73046875 C3.31521012 13.00400258 6.31676208 24.22023137 9.625 35.375 C10.49389379 38.35698267 11.35860301 41.34012435 12.22021484 44.32421875 C12.70296418 45.98074122 13.19387337 47.63493868 13.69775391 49.28515625 C21.17672209 73.92717613 17.8533323 99.30488133 6.0625 121.875 C-4.66073256 140.59241622 -21.51638123 155.10050603 -42 162 C-42.66032227 162.22703613 -43.32064453 162.45407227 -44.00097656 162.68798828 C-66.77228468 170.29041824 -89.96417417 168.75776589 -111.5 158.1875 C-118.13361197 154.75080946 -124.16049427 150.66370001 -130 146 C-130.60714844 145.5565625 -131.21429688 145.113125 -131.83984375 144.65625 C-148.31873448 131.93842375 -155.39335843 112.19573906 -161 93 C-161.57210633 91.08569514 -162.14504986 89.17164032 -162.71875 87.2578125 C-165.96455114 76.35270687 -168.97404195 65.40582471 -171.79638672 54.3840332 C-173.43710392 48.02447305 -175.21882993 41.7224494 -177.125 35.4375 C-177.37266113 34.61991211 -177.62032227 33.80232422 -177.87548828 32.95996094 C-178.79974553 29.91949463 -179.72783804 26.88028942 -180.66650391 23.84423828 C-181.26574924 21.89888217 -181.85203236 19.94954687 -182.4375 18 C-182.93056641 16.39125 -182.93056641 16.39125 -183.43359375 14.75 C-184.01166549 11.94336203 -183.7840975 10.67730145 -183 8 C-182.33468262 7.82871582 -181.66936523 7.65743164 -180.98388672 7.48095703 C-177.94702529 6.69781376 -174.91101022 5.91143638 -171.875 5.125 C-170.82828125 4.85558594 -169.7815625 4.58617187 -168.703125 4.30859375 C-164.62315417 3.24986714 -160.59275839 2.20395254 -156.60546875 0.83203125 C-146.97006114 -2.24494299 -137.71274902 0.60820781 -129 5 C-125.94295884 6.8172458 -122.98513054 8.77699663 -120.03100586 10.75585938 C-115.21201173 13.95996703 -110.51616948 16.28449025 -105 18 C-104.31164062 18.22300781 -103.62328125 18.44601562 -102.9140625 18.67578125 C-90.92005211 21.95295509 -79.08960312 20.07329317 -67.40283203 16.69335938 C-64.71004335 15.91633033 -62.01009417 15.16804203 -59.30859375 14.421875 C-53.9781125 12.94499325 -48.65413029 11.44596901 -43.33154297 9.94091797 C-37.76507216 8.36879585 -32.19497289 6.8096594 -26.625 5.25 C-25.62218994 4.96858154 -24.61937988 4.68716309 -23.58618164 4.3972168 C-21.66935206 3.85991516 -19.75165149 3.32570912 -17.83300781 2.79492188 C-15.87442756 2.24535817 -13.92085277 1.67775223 -11.97167969 1.09570312 C-10.99875977 0.81146484 -10.02583984 0.52722656 -9.0234375 0.234375 C-7.71898682 -0.15669434 -7.71898682 -0.15669434 -6.38818359 -0.55566406 C-3.87036557 -1.02411927 -2.39927653 -0.82129883 0 0 Z " fill="#FBCFA6" transform="translate(236,330)"/>
<path d="M0 0 C22.00225307 19.76064421 34.80019428 43.38476668 37.4921875 73.23828125 C37.60823646 75.9344855 37.60230617 78.5403739 37.4921875 81.23828125 C38.2759375 81.27953125 39.0596875 81.32078125 39.8671875 81.36328125 C47.95154644 83.31467823 55.48147065 88.61041373 60.4921875 95.23828125 C67.47345854 106.92747642 70.24578278 117.73848712 67.4296875 131.17578125 C64.72925439 140.99324369 59.01111644 149.55899529 50.4921875 155.23828125 C42.54599055 159.47625296 36.22949505 161.40399238 27.2421875 161.30078125 C26.49710938 161.29626953 25.75203125 161.29175781 24.984375 161.28710938 C23.1536111 161.27537371 21.32288877 161.25743975 19.4921875 161.23828125 C19.2240625 161.91890625 18.9559375 162.59953125 18.6796875 163.30078125 C9.49215963 186.02782388 -3.02287928 209.20052761 -25.5078125 221.23828125 C-31.427195 221.85063116 -31.427195 221.85063116 -34.3828125 220.17578125 C-36.14439418 217.14194614 -36.44758736 214.73133914 -36.5078125 211.23828125 C-34.15489368 207.04394769 -30.45063016 204.52527365 -26.60546875 201.765625 C-4.83793773 185.91626815 1.56435919 160.88146579 8.4921875 136.23828125 C9.15286625 133.92686036 9.81428819 131.61565173 10.4765625 129.3046875 C17.52692782 107.57466655 17.52692782 107.57466655 20.625 85.18359375 C20.62693359 83.76626953 20.62693359 83.76626953 20.62890625 82.3203125 C20.62503906 81.34449219 20.62117187 80.36867188 20.6171875 79.36328125 C20.62105469 78.39519531 20.62492188 77.42710937 20.62890625 76.4296875 C20.62186912 71.25739955 20.38650208 66.33445481 19.4921875 61.23828125 C18.07292969 62.00011719 18.07292969 62.00011719 16.625 62.77734375 C9.23333547 66.65709296 1.86013338 70.04112008 -6.0703125 72.67578125 C-6.80685059 72.92215332 -7.54338867 73.16852539 -8.30224609 73.42236328 C-17.34112926 76.31472367 -26.13941897 76.4497288 -35.5703125 76.48828125 C-36.80458984 76.50890625 -38.03886719 76.52953125 -39.31054688 76.55078125 C-63.03114405 76.65008255 -86.07978603 67.24361168 -103.5078125 51.23828125 C-104.23629395 50.58134277 -104.23629395 50.58134277 -104.97949219 49.91113281 C-112.38452344 43.1719361 -118.11630416 35.9534766 -123.44921875 27.48828125 C-125.04564195 24.96793191 -126.6718249 22.58459128 -128.5078125 20.23828125 C-137.59432586 29.38158532 -143.15512654 40.83231562 -148.0859375 52.59375 C-149.59382345 55.39825216 -150.78335258 56.64007445 -153.5078125 58.23828125 C-156.76696527 58.80863298 -158.0347553 58.54512916 -160.8203125 56.73828125 C-163.13223207 53.31321522 -163.11385528 50.19870037 -162.5078125 46.23828125 C-161.87597337 44.22700709 -161.21507942 42.22428677 -160.5078125 40.23828125 C-170.64451963 41.19215678 -178.30755766 42.39925092 -185.3203125 50.11328125 C-190.104048 56.94718911 -191.69616158 62.99906098 -190.5078125 71.23828125 C-188.00158497 78.99087842 -183.52355446 84.61983395 -176.29296875 88.39453125 C-175.70386719 88.67296875 -175.11476563 88.95140625 -174.5078125 89.23828125 C-174.33765625 88.47902344 -174.1675 87.71976562 -173.9921875 86.9375 C-173.74984375 85.94363281 -173.5075 84.94976562 -173.2578125 83.92578125 C-173.02578125 82.93964844 -172.79375 81.95351562 -172.5546875 80.9375 C-171.35378959 77.84115501 -170.41046116 76.79959504 -167.5078125 75.23828125 C-164.08445624 75.35839901 -161.55365181 75.63101972 -158.5703125 77.36328125 C-155.43192799 82.90160685 -158.34248688 90.05331633 -159.8984375 95.70507812 C-160.22328125 96.85041016 -160.548125 97.99574219 -160.8828125 99.17578125 C-161.5161615 101.45558019 -162.14898651 103.73552477 -162.78125 106.015625 C-163.0812793 107.09183105 -163.38130859 108.16803711 -163.69042969 109.27685547 C-170.12848498 132.60230671 -168.47622947 156.07011748 -156.57666016 177.42236328 C-153.89451295 181.97919538 -150.84896586 186.14860066 -147.5078125 190.23828125 C-146.96769531 190.94082031 -146.42757812 191.64335937 -145.87109375 192.3671875 C-133.86121952 207.22686239 -114.10412639 217.06987253 -95.5078125 220.23828125 C-93.34911791 220.32923507 -91.18795252 220.36892773 -89.02734375 220.37109375 C-87.78017578 220.37238281 -86.53300781 220.37367188 -85.24804688 220.375 C-83.95189453 220.37113281 -82.65574219 220.36726562 -81.3203125 220.36328125 C-80.04349609 220.36714844 -78.76667969 220.37101563 -77.45117188 220.375 C-71.04393813 220.36841158 -64.82047719 220.21806409 -58.47973633 219.2512207 C-56.5078125 219.23828125 -56.5078125 219.23828125 -53.3828125 221.30078125 C-51.19714878 224.72498774 -50.74576824 226.25871678 -51.5078125 230.23828125 C-55.48635233 235.41623382 -60.79556532 235.74659198 -66.890625 236.69921875 C-93.74539031 240.17508115 -121.52469557 233.52971296 -143.18237305 217.10864258 C-146.01709885 214.88355153 -148.76840752 212.5802596 -151.5078125 210.23828125 C-152.19359375 209.655625 -152.879375 209.07296875 -153.5859375 208.47265625 C-170.76806123 192.57517728 -181.98378328 167.43419158 -183.72900391 144.30712891 C-183.84637295 141.26002882 -183.88663401 138.2251081 -183.8828125 135.17578125 C-183.88474609 133.55845093 -183.88474609 133.55845093 -183.88671875 131.90844727 C-183.76142359 122.29987468 -182.14286805 113.44921202 -179.5078125 104.23828125 C-180.41789062 103.96113281 -181.32796875 103.68398437 -182.265625 103.3984375 C-190.87757135 100.31681332 -198.46026962 92.71858891 -202.86328125 84.80078125 C-207.51576909 74.58882238 -208.55163956 62.05811581 -204.9453125 51.30078125 C-200.63964322 41.41424448 -194.87270593 34.60388128 -185.5078125 29.23828125 C-184.78335938 28.80386719 -184.05890625 28.36945313 -183.3125 27.921875 C-174.64692034 23.58908517 -161.7844852 23.64868464 -152.5078125 26.23828125 C-152.24871094 25.50867188 -151.98960937 24.7790625 -151.72265625 24.02734375 C-143.68215257 5.56779512 -122.26056813 -8.19651683 -104.5078125 -15.76171875 C-69.64464466 -28.95666802 -28.93702674 -24.43044061 0 0 Z " fill="#010101" transform="translate(432.5078125,60.76171875)"/>
<path d="M0 0 C6.14261465 3.40079623 9.62191734 7.83171299 11.81030273 14.4675293 C12.53870308 17.15734658 13.2047446 19.85582128 13.8515625 22.56640625 C14.36679054 24.63095961 14.88511879 26.6947413 15.40625 28.7578125 C15.80602051 30.34166748 15.80602051 30.34166748 16.21386719 31.95751953 C17.52718868 37.00487046 18.99590292 42.00353094 20.4765625 47.00390625 C22.96761162 55.44768228 25.41107583 63.90252416 27.7890625 72.37890625 C28.07064209 73.37776855 28.35222168 74.37663086 28.64233398 75.40576172 C30.05139275 80.44273708 31.42205371 85.48975313 32.7421875 90.55078125 C33.11585449 91.97535645 33.11585449 91.97535645 33.49707031 93.42871094 C34.02831706 96.07537266 34.14044051 98.438114 34.0390625 101.12890625 C21.31979867 104.91647293 8.58585193 108.56400975 -4.2734375 111.84692383 C-12.59721835 113.99012566 -20.83938858 116.38286846 -29.0703125 118.85742188 C-42.44257748 122.84356089 -54.90186716 124.02053952 -67.9609375 118.12890625 C-71.66884377 115.95457662 -75.22158521 113.5548416 -78.77709961 111.1418457 C-89.97108507 103.61250477 -102.44679394 100.2682633 -115.9609375 102.12890625 C-122.22717198 103.58053142 -128.33353913 105.54514842 -134.45703125 107.5 C-138.98942494 108.92286098 -143.23212471 109.72873258 -147.9609375 110.12890625 C-150.79353374 103.01728164 -152.89012 95.87227112 -154.65332031 88.4375 C-155.52095707 84.68502094 -155.52095707 84.68502094 -156.9609375 81.12890625 C-157.77160569 72.82725355 -158.01607491 65.87746357 -152.859375 58.9609375 C-144.39646187 50.79405219 -133.22253259 48.92600513 -121.91259766 49.00292969 C-120.1330426 49.04474103 -118.35382308 49.10610953 -116.57568359 49.18847656 C-115.75922363 49.2190918 -114.94276367 49.24970703 -114.1015625 49.28125 C-113.01149902 49.34300415 -113.01149902 49.34300415 -111.89941406 49.40600586 C-109.86682696 49.27222785 -109.86682696 49.27222785 -108.2253418 47.84326172 C-105.83951652 44.60841617 -106.52507726 40.09554328 -106.52148438 36.19726562 C-106.38283772 31.08646295 -105.39152806 28.14367083 -101.9609375 24.12890625 C-96.19323459 19.21043567 -88.8679039 17.90748896 -81.6640625 16.125 C-78.868183 15.33208256 -76.46835982 14.60210305 -73.9609375 13.12890625 C-72.40174706 10.30816418 -72.24704618 8.41234401 -71.9609375 5.12890625 C-69.71288748 4.45569341 -67.46241526 3.79056502 -65.2109375 3.12890625 C-63.95796875 2.75765625 -62.705 2.38640625 -61.4140625 2.00390625 C-57.9609375 1.12890625 -57.9609375 1.12890625 -53.9609375 1.12890625 C-53.5484375 1.78890625 -53.1359375 2.44890625 -52.7109375 3.12890625 C-51.03651082 5.50082789 -51.03651082 5.50082789 -47.65234375 5.46875 C-41.59718088 5.31467808 -35.91538622 3.39976034 -30.1484375 1.69140625 C-28.45170898 1.20317383 -28.45170898 1.20317383 -26.72070312 0.70507812 C-8.96882657 -4.42277186 -8.96882657 -4.42277186 0 0 Z " fill="#FCDC44" transform="translate(195.9609375,213.87109375)"/>
<path d="M0 0 C0.68626465 0.28939453 1.3725293 0.57878906 2.07958984 0.87695312 C11.504081 4.96719531 19.42171621 9.98978533 27 17 C27.77730469 17.68578125 28.55460937 18.3715625 29.35546875 19.078125 C37.22971526 26.39670179 43.77505727 36.10915726 48 46 C46.31559155 51.05322536 41.56100353 52.64535969 37 55 C24.2551756 60.73758173 11.65641435 63.56657103 -2.3125 63.4375 C-3.49239502 63.42847656 -4.67229004 63.41945313 -5.88793945 63.41015625 C-30.24530716 62.92872588 -50.71577078 52.2277177 -67.609375 34.81640625 C-72.02320285 29.61645546 -75.58600537 23.89245699 -79 18 C-79.62003906 16.95328125 -80.24007813 15.9065625 -80.87890625 14.828125 C-82 12 -82 12 -81.6484375 9.875 C-79.14344713 7.02572185 -75.9953992 5.60016303 -72.625 4 C-71.90763672 3.65187256 -71.19027344 3.30374512 -70.45117188 2.94506836 C-49.11464909 -7.19832977 -22.04673753 -9.41931485 0 0 Z " fill="#678C96" transform="translate(399,59)"/>
<path d="M0 0 C3.44928742 1.63941145 6.80438535 3.44780033 10.15771484 5.27392578 C13.29930388 6.97958793 16.45767395 8.65199801 19.6171875 10.32421875 C26.71609 14.08719623 33.78450761 17.90474505 40.84765625 21.734375 C41.69424805 22.18973633 42.54083984 22.64509766 43.41308594 23.11425781 C45.39794969 24.18438117 47.37459807 25.2676857 49.34765625 26.359375 C50.34796875 26.90851563 51.34828125 27.45765625 52.37890625 28.0234375 C56.65726252 30.98850086 59.41952709 34.73592293 60.84765625 39.734375 C61.96244288 49.58165691 55.52126575 56.90942982 49.91015625 64.359375 C49.30236328 65.17921875 48.69457031 65.9990625 48.06835938 66.84375 C37.09920776 81.56394914 37.09920776 81.56394914 29.84765625 82.734375 C21.70092949 82.89676822 16.36889633 78.83173257 10.63085938 73.45458984 C5.93393342 68.92357392 1.31828068 64.30944294 -3.25170898 59.65063477 C-7.47245912 55.3527052 -11.75822954 51.24033262 -16.32836914 47.31591797 C-18.9935306 45.0049936 -21.51132593 42.58262764 -24.02734375 40.109375 C-24.95289063 39.20960938 -25.8784375 38.30984375 -26.83203125 37.3828125 C-30.77034783 32.88756226 -31.63560612 28.88057289 -31.453125 23.05078125 C-30.37672246 14.76108377 -23.85074626 7.44199823 -18.15234375 1.734375 C-11.7882245 -1.98618702 -6.84669533 -2.74885909 0 0 Z " fill="#010001" transform="translate(316.15234375,424.265625)"/>
<path d="M0 0 C1.38251953 -0.05607422 1.38251953 -0.05607422 2.79296875 -0.11328125 C9.60112886 0.84673098 14.59481714 5.58059219 19.5625 10 C20.79470077 11.07651993 22.02778266 12.15203209 23.26171875 13.2265625 C23.86419434 13.75282227 24.46666992 14.27908203 25.08740234 14.82128906 C27.47782984 16.8876252 29.92115404 18.88461836 32.375 20.875 C37.56856197 25.09572662 42.69184433 29.39358014 47.78515625 33.734375 C49.61849623 35.29567099 51.45795443 36.84987364 53.30859375 38.390625 C54.01113281 38.98359375 54.71367187 39.5765625 55.4375 40.1875 C56.02789062 40.67992187 56.61828125 41.17234375 57.2265625 41.6796875 C60.67532083 45.23037958 62.32506362 48.69348797 62.625 53.625 C62.44484833 62.15571166 57.30209471 69.9891146 51.8125 76.3125 C47.36832889 79.77032292 43.50700485 81.59565558 37.8125 81.3125 C31.51682504 79.75097193 25.56252667 77.00134584 19.67578125 74.328125 C18.83387741 73.94944275 17.99197357 73.5707605 17.1245575 73.18060303 C15.35300654 72.38259104 13.58241317 71.58245014 11.81274414 70.78027344 C9.15168819 69.57459199 6.48726993 68.37661208 3.82226562 67.1796875 C-1.19488019 64.92033844 -6.1954969 62.62681788 -11.1875 60.3125 C-11.90858948 59.98048584 -12.62967896 59.64847168 -13.37261963 59.30639648 C-15.32478766 58.40119383 -17.26717915 57.47812354 -19.20703125 56.546875 C-20.27671143 56.03866211 -21.3463916 55.53044922 -22.44848633 55.00683594 C-26.4121976 52.55491008 -28.54573653 49.68770744 -30.5 45.5 C-31.96531708 38.70625719 -30.23305859 33.57378609 -26.75 27.75 C-26.40090576 27.16428223 -26.05181152 26.57856445 -25.69213867 25.97509766 C-24.54483878 24.0737429 -23.37104223 22.19149164 -22.1875 20.3125 C-21.55618164 19.30485596 -21.55618164 19.30485596 -20.91210938 18.27685547 C-19.62325524 16.23681386 -18.31661575 14.2097205 -17 12.1875 C-16.596604 11.56029053 -16.19320801 10.93308105 -15.77758789 10.28686523 C-11.58979806 4.00047702 -7.62107811 0.19972481 0 0 Z " fill="#000100" transform="translate(121.1875,44.6875)"/>
<path d="M0 0 C6.37347848 3.07292713 9.79329073 8.38349944 13.21484375 14.40234375 C14.1116687 15.97024658 14.1116687 15.97024658 15.02661133 17.56982422 C15.65720459 18.68115723 16.28779785 19.79249023 16.9375 20.9375 C18.27241113 23.27273171 19.60816427 25.60745727 20.9453125 27.94140625 C21.2821254 28.53010498 21.61893829 29.11880371 21.96595764 29.7253418 C25.89095396 36.57527026 29.92148965 43.36239009 33.96264648 50.14428711 C34.46610596 50.99128174 34.96956543 51.83827637 35.48828125 52.7109375 C35.92696533 53.44618652 36.36564941 54.18143555 36.81762695 54.93896484 C39.20807995 59.10584574 40.33103423 61.93386254 40.4375 66.8125 C40.49744141 68.30716797 40.49744141 68.30716797 40.55859375 69.83203125 C39.40368235 76.38191337 34.99817161 80.41001401 29.73046875 84.12109375 C29.11816406 84.53488281 28.50585938 84.94867188 27.875 85.375 C27.25496094 85.81199219 26.63492188 86.24898438 25.99609375 86.69921875 C20.81339452 90.29924424 17.33019236 91.51886823 11 91 C4.49896038 88.73193732 0.13912517 84.61473926 -4.5 79.6875 C-8.14251263 75.88778419 -11.75738316 72.14527592 -15.7578125 68.71875 C-20.69409743 64.47232228 -25.29203979 59.8940285 -29.89306641 55.29223633 C-31.38818136 53.79933818 -32.89116956 52.31466608 -34.39453125 50.83007812 C-35.35465427 49.87288468 -36.31430722 48.91521944 -37.2734375 47.95703125 C-38.13372559 47.10085205 -38.99401367 46.24467285 -39.88037109 45.36254883 C-43.30330658 41.54732806 -44.302895 38.78532366 -44.375 33.6875 C-44.40335938 32.78386719 -44.43171875 31.88023438 -44.4609375 30.94921875 C-43.37367689 23.99259368 -39.55899328 20.21713262 -34.1628418 16.16674805 C-33.428479 15.63734619 -32.69411621 15.10794434 -31.9375 14.5625 C-31.17671143 14.00409424 -30.41592285 13.44568848 -29.63208008 12.87036133 C-28.11494888 11.75706965 -26.59507123 10.6475095 -25.07226562 9.54199219 C-23.27873279 8.20740767 -21.56180131 6.8302149 -19.859375 5.3828125 C-13.4378082 0.10661288 -8.30207149 -1.64096581 0 0 Z " fill="#000101" transform="translate(195,0)"/>
<path d="M0 0 C1.18815811 0.17045334 2.37631622 0.34090668 3.60047913 0.51652527 C6.08759071 0.87598282 8.5740368 1.24007347 11.05981445 1.60864258 C14.86016765 2.16981623 18.66314039 2.70977282 22.46679688 3.24804688 C24.89471597 3.60159838 27.32245735 3.95637295 29.75 4.3125 C31.44696266 4.55175957 31.44696266 4.55175957 33.1782074 4.79585266 C40.1641687 5.85120439 46.34716692 7.01040539 51.22265625 12.54296875 C51.95935547 13.33767578 51.95935547 13.33767578 52.7109375 14.1484375 C56.19809657 20.56617325 54.7134073 26.80467558 52.78515625 33.41796875 C52.55578369 34.2392627 52.32641113 35.06055664 52.09008789 35.90673828 C51.38444721 38.39635618 50.65257123 40.87659158 49.91015625 43.35546875 C49.6898877 44.10006348 49.46961914 44.8446582 49.24267578 45.61181641 C44.68594884 60.80900398 44.68594884 60.80900398 38.22265625 65.16796875 C29.25922317 68.38127495 22.39151456 65.3791477 14.16015625 61.66796875 C13.04995117 61.18191162 11.93974609 60.69585449 10.79589844 60.19506836 C7.79406456 58.87597321 4.79949609 57.54180452 1.80712891 56.20141602 C-0.79987118 55.0388349 -3.41427088 53.89340295 -6.02874756 52.74775696 C-8.66229172 51.5925805 -11.29286781 50.43077709 -13.92248535 49.26669312 C-15.19014833 48.70555835 -16.45828893 48.14550122 -17.72692871 47.58657837 C-19.51199505 46.7980351 -21.29317935 46.00072199 -23.07421875 45.203125 C-24.09225586 44.74945557 -25.11029297 44.29578613 -26.15917969 43.82836914 C-32.44990444 40.66676114 -37.78440594 37.27178218 -40.08984375 30.35546875 C-40.40687358 24.49974136 -39.6957623 19.78738951 -37.90234375 14.23046875 C-37.70576172 13.55371094 -37.50917969 12.87695312 -37.30664062 12.1796875 C-35.61518004 6.7982406 -33.19591776 2.35137394 -28.29969788 -0.79484558 C-19.93663619 -4.01043053 -8.61639932 -1.27709767 0 0 Z " fill="#010001" transform="translate(362.08984375,376.64453125)"/>
<path d="M0 0 C1.21742889 0.43301926 2.43485779 0.86603851 3.68917847 1.31217957 C6.25452926 2.22565208 8.81767976 3.14498529 11.37939453 4.06860352 C14.64792425 5.24652453 17.92152238 6.40955191 21.19691658 7.56822681 C24.34249745 8.68329095 27.48351454 9.81094885 30.625 10.9375 C31.79386749 11.35119339 32.96273499 11.76488678 34.16702271 12.19111633 C46.76980877 16.75949442 46.76980877 16.75949442 50.9921875 21.85546875 C54.96270144 31.25931755 52.5579104 41.37170909 49.1796875 50.66796875 C46.54939629 55.41830342 43.34984404 58.00674279 38.1796875 59.66796875 C25.93637764 60.88701452 13.02881942 59.03789337 0.80908203 58.1237793 C-2.83871559 57.85410826 -6.48753406 57.60362389 -10.13671875 57.35351562 C-12.46883642 57.18216171 -14.80087128 57.00967614 -17.1328125 56.8359375 C-18.75944824 56.72792061 -18.75944824 56.72792061 -20.41894531 56.61772156 C-26.58413035 56.13288703 -31.74775555 55.53617512 -36.46484375 51.1328125 C-41.32585148 44.77611009 -41.29720616 40.58173563 -40.8203125 32.66796875 C-40.11046091 27.96394749 -39.09176398 23.36096599 -38.0078125 18.73046875 C-37.74677734 17.53873047 -37.48574219 16.34699219 -37.21679688 15.11914062 C-35.55002932 7.78947885 -33.90217286 1.56724515 -27.8203125 -3.33203125 C-18.03684512 -7.28304692 -9.37451526 -3.37829607 0 0 Z " fill="#000101" transform="translate(124.8203125,126.33203125)"/>
<path d="M0 0 C7.69692572 7.06785006 6.31379152 20.37541542 6.73242188 29.94873047 C6.82796776 32.48410866 6.88802693 35.01802352 6.9375 37.5546875 C6.967229 38.35148926 6.99695801 39.14829102 7.02758789 39.96923828 C7.08126666 45.31112307 6.13926462 48.23909211 2.625 52.4921875 C-0.91410898 55.7658633 -3.53908077 57.39341376 -8.36572266 57.56152344 C-9.44152588 57.51946777 -9.44152588 57.51946777 -10.5390625 57.4765625 C-11.39387207 57.44385254 -12.24868164 57.41114258 -13.12939453 57.37744141 C-14.07669434 57.33280762 -15.02399414 57.28817383 -16 57.2421875 C-17.50796143 57.17330322 -17.50796143 57.17330322 -19.04638672 57.10302734 C-22.82365636 56.91693602 -26.59942521 56.70949724 -30.375 56.4921875 C-31.19661621 56.4449353 -32.01823242 56.39768311 -32.86474609 56.34899902 C-38.45977559 56.0230425 -44.05290622 55.67371943 -49.64520264 55.30383301 C-51.54276058 55.17977143 -53.44059546 55.05987284 -55.33868408 54.94421387 C-58.0419195 54.77772803 -60.74348962 54.59412447 -63.4453125 54.40625 C-64.25697876 54.35926971 -65.06864502 54.31228943 -65.90490723 54.2638855 C-72.14922464 53.80088907 -76.44140782 52.29394385 -81.125 47.9296875 C-86.76392998 40.49572836 -86.52737644 28.28149936 -85.375 19.4921875 C-82.48428646 14.08034937 -79.04005803 10.40668812 -73.17333984 8.39355469 C-71.94824707 8.11157227 -70.7231543 7.82958984 -69.4609375 7.5390625 C-68.4304982 7.29805817 -68.4304982 7.29805817 -67.37924194 7.05218506 C-65.04810747 6.51449516 -62.71256684 6.00115789 -60.375 5.4921875 C-59.09622986 5.21024536 -59.09622986 5.21024536 -57.79162598 4.92260742 C-52.17539522 3.68967026 -46.55045239 2.50387809 -40.91845703 1.34521484 C-37.98133206 0.73833023 -35.04741189 0.11727258 -32.11328125 -0.50390625 C-30.21372192 -0.89670605 -28.31398813 -1.2886633 -26.4140625 -1.6796875 C-25.55342194 -1.8640033 -24.69278137 -2.04831909 -23.80606079 -2.23822021 C-15.34001034 -3.94750437 -7.37006121 -5.26008401 0 0 Z " fill="#010001" transform="translate(401.375,306.5078125)"/>
<path d="M0 0 C3.42657499 2.74125999 5.26255154 4.70323399 6 9 C7.05394923 22.2521157 4.76290766 34.66878671 -4 45 C-11.47762348 53.19119391 -21.33735565 58.39596272 -32.46875 59.2734375 C-45.1468489 59.7244246 -55.43305525 56.73863785 -65 48 C-71.27993089 42.03537945 -76.30317922 34.67513832 -77.37890625 25.9140625 C-77 23 -77 23 -75.671875 20.82421875 C-71.53844553 18.00212582 -67.06234967 17.0469935 -62.25 15.8125 C-60.0036884 15.21044764 -57.75760619 14.60753897 -55.51171875 14.00390625 C-53.70453369 13.5246167 -53.70453369 13.5246167 -51.86083984 13.03564453 C-45.61331877 11.35978868 -39.38957718 9.60054487 -33.16467285 7.84286499 C-31.10744008 7.26267422 -29.04945054 6.68525024 -26.99121094 6.10864258 C-20.6331392 4.32483013 -14.28781408 2.51578809 -7.98144531 0.55566406 C-5.11119177 -0.24925179 -2.94397226 -0.54771577 0 0 Z " fill="#040302" transform="translate(215,397)"/>
<path d="M0 0 C4.88896461 0.85814009 9.51930376 2.29821161 14.22802734 3.84619141 C16.25961149 4.48987938 18.29217005 5.13049991 20.32568359 5.76806641 C21.30553223 6.07550781 22.28538086 6.38294922 23.29492188 6.69970703 C26.89570146 7.79345264 30.50723978 8.71251089 34.16552734 9.59619141 C40.5393226 11.15142403 46.89454572 12.75825029 53.22802734 14.47119141 C54.57501709 14.81452515 54.57501709 14.81452515 55.94921875 15.16479492 C61.1866823 16.60815515 64.68517951 17.99085422 68.04052734 22.53369141 C69.21690162 27.68869737 66.78093566 32.41378967 64.22802734 36.78369141 C63.18341182 38.37888077 62.12301056 39.96395232 61.04052734 41.53369141 C60.46302734 42.42056641 59.88552734 43.30744141 59.29052734 44.22119141 C50.40060397 53.3580571 39.58437898 57.60400388 26.91552734 58.03369141 C16.14538213 57.66354229 7.07428782 53.7014578 -0.95947266 46.53369141 C-10.66732504 35.90367688 -13.43203711 25.0770347 -13.29541016 11.10009766 C-12.91112724 7.02044295 -12.1992491 4.15104159 -9.69848633 0.88867188 C-6.67101527 -1.47023089 -3.63190626 -0.44108114 0 0 Z " fill="#040202" transform="translate(312.95947265625,187.46630859375)"/>
<path d="M0 0 C7.84300859 5.05438332 9.76646596 12.86329523 11.8125 21.4375 C12.32772804 23.50205336 12.84605629 25.56583505 13.3671875 27.62890625 C13.63370117 28.68480957 13.90021484 29.74071289 14.17480469 30.82861328 C15.48812618 35.87596421 16.95684042 40.87462469 18.4375 45.875 C20.92854912 54.31877603 23.37201333 62.77361791 25.75 71.25 C26.03157959 72.2488623 26.31315918 73.24772461 26.60327148 74.27685547 C28.01233025 79.31383083 29.38299121 84.36084688 30.703125 89.421875 C30.95223633 90.3715918 31.20134766 91.32130859 31.45800781 92.29980469 C31.98925456 94.94646641 32.10137801 97.30920775 32 100 C30.25183142 100.50636607 28.50137737 101.00484619 26.75 101.5 C25.77546875 101.7784375 24.8009375 102.056875 23.796875 102.34375 C21 103 21 103 17 103 C16.10293013 99.87535372 15.20760553 96.75020952 14.3125 93.625 C14.06822266 92.77421875 13.82394531 91.9234375 13.57226562 91.046875 C10.34741097 79.78029418 7.23348538 68.48253955 4.12129211 57.18441772 C3.29047573 54.16930332 2.45785683 51.15468805 1.625 48.14013672 C1.20741515 46.62671789 0.79075236 45.11304435 0.375 43.59912109 C-1.8685765 35.43285318 -4.16042651 27.28237082 -6.625 19.1796875 C-6.91600586 18.19813187 -6.91600586 18.19813187 -7.21289062 17.19674683 C-9.77725929 8.91266795 -14.6516173 2.89101767 -22.3125 -1.25 C-22.869375 -1.4975 -23.42625 -1.745 -24 -2 C-14.87838294 -5.04053902 -8.41611912 -4.6594989 0 0 Z " fill="#F4C22C" transform="translate(198,215)"/>
<path d="M0 0 C4.01740831 1.8768441 7.07640449 4.52002259 10.375 7.4375 C15.12730476 11.58150975 19.94503893 15.58641686 24.9375 19.4375 C32.55252607 25.32500301 39.77941811 31.63901119 47 38 C45.27687791 42.66209202 42.95555839 46.03332953 40 50 C34.0941787 48.14259911 28.46193598 45.99541886 22.8515625 43.3828125 C22.11352386 43.04377899 21.37548523 42.70474548 20.61508179 42.35543823 C18.28300945 41.28299978 15.95395489 40.20418904 13.625 39.125 C12.07311775 38.40971982 10.5210357 37.69487296 8.96875 36.98046875 C5.99288338 35.61040682 3.01802253 34.23819937 0.04394531 32.86425781 C-4.9607283 30.55420444 -9.97776687 28.27160312 -15 26 C-13.44649735 19.76527602 -9.89383184 14.89572889 -6.375 9.625 C-5.76398438 8.69816406 -5.15296875 7.77132812 -4.5234375 6.81640625 C-3.02161558 4.54020741 -1.51369384 2.2683138 0 0 Z " fill="#62DCC1" transform="translate(121,60)"/>
<path d="M0 0 C7.01805991 0.66412769 14.00994782 1.46307219 21 2.375 C21.99459229 2.50438965 22.98918457 2.6337793 24.01391602 2.76708984 C31.05692578 3.70105051 38.06643574 4.77178098 45.06445312 5.99755859 C49.70063874 6.80788515 54.32783561 7.44664869 59 8 C60.23569026 11.70707079 59.60498612 13.24522534 58.56640625 16.98046875 C58.24736328 18.14384766 57.92832031 19.30722656 57.59960938 20.50585938 C57.08624023 22.32827148 57.08624023 22.32827148 56.5625 24.1875 C56.22412109 25.41404297 55.88574219 26.64058594 55.53710938 27.90429688 C54.69890401 30.93836417 53.85291699 33.97004164 53 37 C48.06554104 36.46920008 44.13971334 35.41832383 39.640625 33.33984375 C38.45049805 32.79682617 37.26037109 32.25380859 36.03417969 31.69433594 C34.77276729 31.10876525 33.51137441 30.52315252 32.25 29.9375 C29.65810581 28.74982769 27.06340718 27.56834021 24.46875 26.38671875 C23.82967712 26.0946756 23.19060425 25.80263245 22.53216553 25.5017395 C16.20339803 22.61723166 9.80488509 19.91566686 3.37207031 17.27319336 C-1.90584577 15.09415423 -1.90584577 15.09415423 -3 14 C-2.86759248 9.07036605 -2.16137791 4.46684769 0 0 Z " fill="#F779B2" transform="translate(341,390)"/>
<path d="M0 0 C6.08383244 0.44734062 10.560405 3.24253306 15.75 6.1875 C17.69477865 7.27049048 19.64011695 8.3524764 21.5859375 9.43359375 C22.61557617 10.00835449 23.64521484 10.58311523 24.70605469 11.17529297 C29.98241605 14.09817503 35.29629275 16.95066989 40.61096191 19.8031311 C43.4369548 21.32001715 46.2612656 22.8400309 49.0859375 24.359375 C50.72391115 25.23967114 52.36191256 26.11991564 54 27 C53.11565182 31.3226329 50.8332391 34.32214081 48.25 37.8125 C47.81945312 38.40353516 47.38890625 38.99457031 46.9453125 39.60351562 C46.07707522 40.79539225 45.20663741 41.98566905 44.33398438 43.17431641 C42.1974797 46.09832482 40.10022805 49.04985952 38 52 C35.04955906 50.66131417 32.88213172 49.16727917 30.53125 46.9453125 C29.88349609 46.33623047 29.23574219 45.72714844 28.56835938 45.09960938 C27.88580078 44.44798828 27.20324219 43.79636719 26.5 43.125 C25.79166016 42.45533203 25.08332031 41.78566406 24.35351562 41.09570312 C19.49673325 36.48416855 14.73991694 31.78203586 10.03515625 27.01611328 C5.40756137 22.34845958 0.49361648 18.06787708 -4.5625 13.875 C-6 12 -6 12 -6.0625 9.6875 C-4.61049997 6.01479405 -2.4196712 3.09825057 0 0 Z " fill="#F87AB3" transform="translate(307,439)"/>
<path d="M0 0 C3.84209066 1.28069689 4.16285874 2.53058922 6.1171875 6.01171875 C6.71837402 7.06987793 7.31956055 8.12803711 7.93896484 9.21826172 C8.57785645 10.36311035 9.21674805 11.50795898 9.875 12.6875 C10.875781 14.45922198 11.87968518 16.22914747 12.88394165 17.99890137 C13.56884975 19.20609304 14.25273926 20.41386314 14.93563843 21.62219238 C18.85006737 28.53572969 22.93707888 35.346497 27.05029297 42.14331055 C27.55705566 42.99062744 28.06381836 43.83794434 28.5859375 44.7109375 C29.0298584 45.44618652 29.4737793 46.18143555 29.93115234 46.93896484 C30.98082488 48.96302504 31.55100454 50.77260573 32 53 C30.59627198 54.20276695 29.17647903 55.38680519 27.75 56.5625 C26.96109375 57.22378906 26.1721875 57.88507813 25.359375 58.56640625 C23 60 23 60 21.11914062 59.84008789 C18.32288271 58.73157136 16.8275056 57.14912738 14.734375 54.9921875 C13.92613281 54.16976562 13.11789063 53.34734375 12.28515625 52.5 C11.03025391 51.200625 11.03025391 51.200625 9.75 49.875 C4.61971425 44.60779924 -0.50195328 39.46286994 -6.08886719 34.6796875 C-9.37499409 31.79152282 -12.42922901 28.67610363 -15.5 25.5625 C-16.13164062 24.92634766 -16.76328125 24.29019531 -17.4140625 23.63476562 C-18.94505774 22.09217194 -20.47287667 20.54642686 -22 19 C-18.63733482 14.23769145 -14.53811819 11.18679572 -9.875 7.8125 C-8.4339243 6.75783663 -6.99377713 5.70190302 -5.5546875 4.64453125 C-4.92030762 4.18409424 -4.28592773 3.72365723 -3.63232422 3.24926758 C-1.86789404 1.95574279 -1.86789404 1.95574279 0 0 Z " fill="#62DDC1" transform="translate(188,15)"/>
<path d="M0 0 C3.54680129 0.63760929 6.83635956 1.55201081 10.23339844 2.75 C11.75957794 3.28560547 11.75957794 3.28560547 13.31658936 3.83203125 C14.94651825 4.41017578 14.94651825 4.41017578 16.609375 5 C17.73192688 5.39574219 18.85447876 5.79148438 20.01104736 6.19921875 C22.37855465 7.03480471 24.74546487 7.87208405 27.11181641 8.7109375 C30.74867097 9.99952911 34.38785051 11.28138266 38.02734375 12.5625 C40.32566254 13.37459906 42.62384446 14.18708561 44.921875 15 C46.01659119 15.38542969 47.11130737 15.77085937 48.23919678 16.16796875 C49.24404114 16.52503906 50.2488855 16.88210937 51.28417969 17.25 C52.17288757 17.56453125 53.06159546 17.8790625 53.97723389 18.203125 C56 19 56 19 57 20 C56.93579251 21.62853535 56.7987936 23.25449212 56.625 24.875 C56.48964844 26.20144531 56.48964844 26.20144531 56.3515625 27.5546875 C56 30 56 30 55 33 C51.62501842 33.02922646 48.25006979 33.04687468 44.875 33.0625 C43.44800781 33.07506836 43.44800781 33.07506836 41.9921875 33.08789062 C41.0640625 33.09111328 40.1359375 33.09433594 39.1796875 33.09765625 C38.33132324 33.10289307 37.48295898 33.10812988 36.60888672 33.11352539 C33.67468172 32.98584381 30.89667124 32.48277854 28 32 C25.3961656 31.79149451 22.80237806 31.61045346 20.1953125 31.46484375 C19.4713327 31.42186661 18.74735291 31.37888947 18.00143433 31.33460999 C15.70945385 31.19923852 13.41724546 31.06829963 11.125 30.9375 C9.56248277 30.84599687 7.99998254 30.75420293 6.4375 30.66210938 C2.62518838 30.43804254 -1.18733389 30.21794821 -5 30 C-5.97309227 26.22046551 -5.93899048 23.5902314 -5.0390625 19.8046875 C-4.81476563 18.84175781 -4.59046875 17.87882812 -4.359375 16.88671875 C-3.99585937 15.39591797 -3.99585937 15.39591797 -3.625 13.875 C-3.39039062 12.87339844 -3.15578125 11.87179688 -2.9140625 10.83984375 C-2.04851166 7.17600639 -1.19098419 3.57295257 0 0 Z " fill="#62DCC1" transform="translate(105,137)"/>
<path d="M0 0 C0.33977725 3.33270874 0.67063063 6.66624786 1 10 C1.09539062 10.93457031 1.19078125 11.86914062 1.2890625 12.83203125 C1.81980465 18.25318323 2.1027694 23.55322171 2 29 C-8.36218294 29.27429308 -18.50013 28.72063523 -28.81860352 27.78393555 C-36.54792491 27.09008187 -44.26559941 26.62863546 -52.02050781 26.34204102 C-57.89786351 26.10213649 -57.89786351 26.10213649 -59 25 C-59.07271741 22.64686445 -59.08370868 20.29166332 -59.0625 17.9375 C-59.05347656 16.64714844 -59.04445313 15.35679687 -59.03515625 14.02734375 C-59.02355469 13.02832031 -59.01195312 12.02929688 -59 11 C-45.26470884 7.86565266 -31.51599271 4.82273504 -17.6875 2.125 C-16.06255615 1.80269409 -16.06255615 1.80269409 -14.40478516 1.47387695 C-9.54631413 0.54168815 -4.9741844 -0.29108824 0 0 Z " fill="#F87AB3" transform="translate(391,319)"/>
<path d="M0 0 C-0.165 0.825 -0.33 1.65 -0.5 2.5 C-1.07153459 6.5007421 -1.26492385 9.95991129 -1 14 C-0.484375 14.495 0.03125 14.99 0.5625 15.5 C1.036875 15.995 1.51125 16.49 2 17 C1.89892647 19.88059564 1.5975081 22.21318486 1 25 C0.835 25.88300781 0.67 26.76601562 0.5 27.67578125 C-0.11364426 30.32595738 -0.72581373 32.59371298 -2 35 C-5.5 36.1875 -5.5 36.1875 -9 37 C-10.92951877 40.27988785 -10.92951877 40.27988785 -12 44 C-12.391875 44.969375 -12.78375 45.93875 -13.1875 46.9375 C-13.455625 47.618125 -13.72375 48.29875 -14 49 C-20.69056313 47.5313398 -24.71600618 43.55660035 -28.33203125 37.92578125 C-31.70951045 31.27823386 -32.41523176 24.46743665 -30.15234375 17.32421875 C-26.82738855 9.89660697 -21.63675706 4.34035763 -14.125 1.0625 C-9.49020565 -0.45165592 -4.82029703 -0.26669676 0 0 Z " fill="#C17849" transform="translate(272,101)"/>
<path d="M0 0 C3.22809523 11.09228466 6.37126547 22.20283377 9.3125 33.375 C9.56660645 34.33027588 9.82071289 35.28555176 10.08251953 36.26977539 C11.36180725 41.17429142 12.41043557 45.96442613 13 51 C4.82963918 51.69898524 -1.21786315 50.79486677 -8 46 C-13.30113875 41.13812698 -17.50626818 35.74001853 -18.46875 28.44921875 C-18.53535369 20.4317999 -18.30498535 14.2798872 -13 8 C-5.07575758 0 -5.07575758 0 0 0 Z " fill="#EFA46E" transform="translate(45,368)"/>
<path d="M0 0 C-0.33 1.65 -0.66 3.3 -1 5 C-1.60247559 5.15557373 -2.20495117 5.31114746 -2.82568359 5.47143555 C-17.62679287 9.293093 -17.62679287 9.293093 -32.375 13.3125 C-35.58324466 14.20865132 -38.79153139 15.10465079 -42 16 C-42.60851807 16.16989441 -43.21703613 16.33978882 -43.84399414 16.51483154 C-48.1883227 17.72683244 -52.53458395 18.93161998 -56.88262939 20.13021851 C-58.36330394 20.53947052 -59.84342054 20.95074718 -61.32293701 21.36416626 C-63.42480287 21.95119932 -65.52855233 22.53099183 -67.6328125 23.109375 C-68.85887207 23.44936523 -70.08493164 23.78935547 -71.34814453 24.13964844 C-89.52920481 28.42297886 -108.07744277 25.5732567 -124.01123047 15.88647461 C-126.35112759 14.42880676 -128.67386096 12.94652467 -130.99609375 11.4609375 C-139.89278411 5.8833734 -149.01866622 5.46142891 -159.15722656 7.69580078 C-165.73974894 9.39037736 -172.24688475 11.32351029 -178.73193359 13.35742188 C-181 14 -181 14 -183 14 C-183.33 12.35 -183.66 10.7 -184 9 C-167.20048793 2.43399352 -149.78633284 -3.99838802 -132.36328125 3.3046875 C-128.03213578 5.48786652 -124.05586586 8.05974923 -120.03100586 10.75585938 C-115.21201173 13.95996703 -110.51616948 16.28449025 -105 18 C-104.31164062 18.22300781 -103.62328125 18.44601562 -102.9140625 18.67578125 C-90.92005211 21.95295509 -79.08960312 20.07329317 -67.40283203 16.69335938 C-64.71004335 15.91633033 -62.01009417 15.16804203 -59.30859375 14.421875 C-53.9781125 12.94499325 -48.65413029 11.44596901 -43.33154297 9.94091797 C-37.76507216 8.36879585 -32.19497289 6.8096594 -26.625 5.25 C-25.62218994 4.96858154 -24.61937988 4.68716309 -23.58618164 4.3972168 C-21.66935206 3.85991516 -19.75165149 3.32570912 -17.83300781 2.79492188 C-15.87442756 2.24535817 -13.92085277 1.67775223 -11.97167969 1.09570312 C-10.99875977 0.81146484 -10.02583984 0.52722656 -9.0234375 0.234375 C-7.71898682 -0.15669434 -7.71898682 -0.15669434 -6.38818359 -0.55566406 C-3.87036557 -1.02411927 -2.39927653 -0.82129883 0 0 Z " fill="#F6B685" transform="translate(236,330)"/>
<path d="M0 0 C9.06118522 -0.69404823 15.7335217 1.18251433 23.3125 6.1875 C29.07873719 12.22193427 31.31647419 17.03331854 31.5625 25.5 C31.19136117 34.78774915 29.30869604 40.13998245 22.5 46.5 C19.64435451 48.96446117 17.65663389 50.20574689 14 51 C11.18559889 43.65416309 8.9028751 36.31713537 7 28.6875 C6.48836278 26.67542891 5.97534391 24.66370865 5.4609375 22.65234375 C5.0911377 21.20577393 5.0911377 21.20577393 4.71386719 19.72998047 C3.46942085 14.9709521 2.07750379 10.25834595 0.6640625 5.546875 C0 3 0 3 0 0 Z " fill="#F1A56F" transform="translate(246,311)"/>
<path d="M0 0 C6.04371266 0.73205534 8.94511563 2.59080535 13 7 C17.99823563 13.98548594 18.6395496 20.61608616 18 29 C16.81938925 34.43824636 14.32806248 39.39497855 10 43 C4.36339019 46.33687301 -1.04899659 49.15871019 -7.6875 49.0625 C-8.89986328 49.04896484 -8.89986328 49.04896484 -10.13671875 49.03515625 C-10.75160156 49.02355469 -11.36648438 49.01195312 -12 49 C-11.37458206 42.06203033 -9.63362867 35.67540879 -7.6875 29 C-4.93208845 19.37338252 -2.33628186 9.73692627 0 0 Z " fill="#C07748" transform="translate(467,158)"/>
<path d="M0 0 C2.45649662 3.19482567 4.41434897 6.27372009 6 10 C4.31559155 15.05322536 -0.43899647 16.64535969 -5 19 C-17.74529751 24.73779472 -30.34325989 27.56558415 -44.3125 27.4375 C-45.49094482 27.42920166 -46.66938965 27.42090332 -47.88354492 27.41235352 C-62.94605059 27.12159552 -74.87971833 23.29815668 -88 16 C-85.34993662 14.67496831 -83.65328179 15.38167643 -80.84838867 15.98022461 C-55.0518872 21.43913855 -28.65746877 17.41867671 -5.8125 4.1484375 C-3.81026251 2.82821215 -1.8784418 1.48921512 0 0 Z " fill="#537781" transform="translate(441,95)"/>
<path d="M0 0 C5.69971304 3.15321456 9.85627036 6.77326268 12.23046875 12.94140625 C12.84630103 17.04695477 12.91295122 18.91768255 10.60546875 22.37890625 C7.5322976 24.40072938 5.84798994 24.46896142 2.23046875 23.94140625 C-1.32473733 22.01143724 -2.84238436 19.42862443 -4.76953125 15.94140625 C-5.09953125 15.61140625 -5.42953125 15.28140625 -5.76953125 14.94140625 C-9.28698412 15.19389252 -9.28698412 15.19389252 -12.76953125 15.94140625 C-14.29071758 18.9837789 -14.10464543 22.16620957 -14.29296875 25.53125 C-14.85074771 28.35214853 -15.43379841 29.29359473 -17.76953125 30.94140625 C-20.47412525 31.49759292 -23.04689948 31.36770559 -25.76953125 30.94140625 C-28.44384614 29.12977358 -28.72873484 28.06379548 -29.76953125 24.94140625 C-30.58649951 18.47568603 -29.8538042 13.55006323 -26.40234375 7.98828125 C-19.83241719 -0.24770324 -10.12482313 -3.86999587 0 0 Z " fill="#050403" transform="translate(219.76953125,351.05859375)"/>
<path d="M0 0 C5.58383285 2.51164682 9.90959958 6.86998042 12.6484375 12.34765625 C12.93250095 15.28297852 13.14309491 17.49775503 12.6484375 20.34765625 C10.5234375 22.91015625 10.5234375 22.91015625 7.6484375 24.34765625 C4.5859375 24.41015625 4.5859375 24.41015625 1.6484375 23.34765625 C-0.72765326 20.83956045 -2.43631657 18.22052514 -4.3515625 15.34765625 C-7.8515625 14.84765625 -7.8515625 14.84765625 -11.3515625 15.34765625 C-13.83121349 19.06713274 -13.66962546 21.60848842 -13.8125 25.97265625 C-14.3515625 28.34765625 -14.3515625 28.34765625 -16.203125 30.1328125 C-19.15360994 31.80117762 -21.01367691 31.83443123 -24.3515625 31.34765625 C-27.19936869 29.11559194 -28.20153916 27.79772626 -29.3515625 24.34765625 C-30.13348085 17.84876109 -29.21255857 12.69451669 -25.3515625 7.34765625 C-18.15009858 -0.18798233 -10.37683428 -2.87862346 0 0 Z " fill="#050403" transform="translate(131.3515625,375.65234375)"/>
<path d="M0 0 C5.26496731 3.13132202 9.16453859 7.35871389 11.51953125 13.05078125 C11.8203125 15.890625 11.8203125 15.890625 11.83203125 18.98828125 C11.84878906 20.00792969 11.86554688 21.02757812 11.8828125 22.078125 C11.46610761 25.487936 10.61093697 27.34113089 8.51953125 30.05078125 C5.14453125 31.17578125 5.14453125 31.17578125 1.51953125 31.05078125 C-1.35546875 29.23828125 -1.35546875 29.23828125 -3.48046875 26.05078125 C-3.96078937 23.39464927 -4.16637544 20.85746944 -4.2421875 18.16015625 C-4.32082031 17.4640625 -4.39945312 16.76796875 -4.48046875 16.05078125 C-7.50446999 14.53878063 -9.11950709 14.46907635 -12.48046875 15.05078125 C-14.0305675 16.85312968 -14.0305675 16.85312968 -15.41796875 19.05078125 C-18.06154551 22.96410748 -18.06154551 22.96410748 -22.10546875 23.80078125 C-25.48046875 23.05078125 -25.48046875 23.05078125 -27.98046875 21.61328125 C-29.93110041 18.28095216 -29.89382616 16.19740973 -29.28515625 12.43359375 C-27.44674394 6.98975148 -23.31540367 3.44882691 -18.85546875 0.05078125 C-12.77075446 -1.75209706 -6.01985737 -2.30366195 0 0 Z " fill="#040301" transform="translate(400.48046875,162.94921875)"/>
<path d="M0 0 C4.84560205 3.56439201 8.20989907 8.76226555 9.3046875 14.6953125 C9.6458062 20.06793197 9.76398986 23.3046595 6.3046875 27.6953125 C3.25484754 29.22023248 0.6623506 28.93093798 -2.6953125 28.6953125 C-5.01023127 27.04867282 -5.61915945 26.14051495 -6.1015625 23.3203125 C-6.1640625 21.5703125 -6.2265625 19.8203125 -6.2890625 18.0703125 C-6.76879617 15.26571567 -7.40605791 14.34595706 -9.6953125 12.6953125 C-12.71031108 12.46081178 -12.71031108 12.46081178 -15.6953125 13.6953125 C-17.9968164 16.56406789 -17.9968164 16.56406789 -19.6953125 19.6953125 C-21.6953125 21.6953125 -21.6953125 21.6953125 -24.5703125 22.0078125 C-27.6953125 21.6953125 -27.6953125 21.6953125 -30.0703125 20.7578125 C-32.3506566 17.8635296 -32.25372908 15.5842468 -32.078125 11.97265625 C-31.04796921 5.84428046 -26.43334252 2.17631415 -21.6953125 -1.3046875 C-14.5132914 -5.38096974 -6.92438635 -3.77497698 0 0 Z " fill="#050302" transform="translate(317.6953125,140.3046875)"/>
<path d="M0 0 C-0.58718786 8.22063004 -2.62965777 14.08895795 -8.75 19.8125 C-15.6641363 25.36918202 -21.89108162 26.6461531 -30.74609375 26.41015625 C-37.77351993 25.52434623 -43.00008933 22.49159335 -47.625 17.1875 C-48.40875 16.135625 -49.1925 15.08375 -50 14 C-47.71602397 11.71602397 -46.56392182 11.46095876 -43.4765625 10.703125 C-42.5469873 10.46932129 -41.61741211 10.23551758 -40.65966797 9.99462891 C-39.65822754 9.74890137 -38.65678711 9.50317383 -37.625 9.25 C-28.79089729 7.02860777 -20.0624452 4.60294385 -11.38525391 1.82910156 C-7.48004805 0.61000315 -4.14719695 -0.3497636 0 0 Z " fill="#F578B1" transform="translate(206,415)"/>
<path d="M0 0 C9.38880926 1.89217845 18.4444525 4.60497705 27.58447266 7.43603516 C34.34531853 9.52205387 41.09554733 11.44093004 48 13 C45.47744309 18.66963034 40.91060635 22.41741165 35.25 24.875 C28.26474125 27.11351921 21.45855324 27.01782942 14.75 24 C7.48855142 19.91327059 2.49716767 13.93217966 0 6 C-0.04135369 4.00042758 -0.04760556 1.99943335 0 0 Z " fill="#F779B2" transform="translate(315,204)"/>
<path d="M0 0 C3.54680129 0.63760929 6.83635956 1.55201081 10.23339844 2.75 C11.75957794 3.28560547 11.75957794 3.28560547 13.31658936 3.83203125 C14.94651825 4.41017578 14.94651825 4.41017578 16.609375 5 C17.73192688 5.39574219 18.85447876 5.79148438 20.01104736 6.19921875 C22.37855465 7.03480471 24.74546487 7.87208405 27.11181641 8.7109375 C30.74867097 9.99952911 34.38785051 11.28138266 38.02734375 12.5625 C40.32566254 13.37459906 42.62384446 14.18708561 44.921875 15 C46.01659119 15.38542969 47.11130737 15.77085937 48.23919678 16.16796875 C49.24404114 16.52503906 50.2488855 16.88210937 51.28417969 17.25 C52.17288757 17.56453125 53.06159546 17.8790625 53.97723389 18.203125 C56 19 56 19 57 20 C56.91036938 21.69141656 56.75422324 23.37959602 56.5625 25.0625 C56.46066406 25.98160156 56.35882813 26.90070313 56.25390625 27.84765625 C56.17011719 28.55792969 56.08632812 29.26820313 56 30 C55.505 28.02 55.505 28.02 55 26 C53.74517822 25.75072754 52.49035645 25.50145508 51.19750977 25.24462891 C45.56675854 23.98975028 40.24624913 22.07713028 34.83984375 20.0859375 C33.80936417 19.71143463 32.77888458 19.33693176 31.71717834 18.95108032 C28.45534773 17.76429305 25.19640991 16.56978108 21.9375 15.375 C19.71437993 14.56459038 17.4910744 13.75468935 15.26757812 12.9453125 C9.84289318 10.96941866 4.4205563 8.98719023 -1 7 C-1.33 7.99 -1.66 8.98 -2 10 C-1.54177532 6.53058454 -1.10868317 3.32604951 0 0 Z " fill="#28CDB0" transform="translate(105,137)"/>
<path d="M0 0 C4.08048923 1.68195775 7.11235522 4.55181959 10.375 7.4375 C15.12730476 11.58150975 19.94503893 15.58641686 24.9375 19.4375 C32.55252607 25.32500301 39.77941811 31.63901119 47 38 C45.92598892 40.91517292 45.22189824 42.77810176 43 45 C43 44.34 43 43.68 43 43 C42.46503906 42.77441406 41.93007812 42.54882812 41.37890625 42.31640625 C38.22926067 40.57349892 35.64022489 38.28773035 32.9375 35.9375 C31.76622466 34.93289418 30.59434109 33.9289971 29.421875 32.92578125 C28.84115234 32.42771973 28.26042969 31.9296582 27.66210938 31.41650391 C23.50210795 27.8712148 19.2416277 24.44666281 15 21 C13.62093438 19.87389306 12.24204037 18.74757594 10.86328125 17.62109375 C9.40893607 16.43479542 7.95450919 15.24859724 6.5 14.0625 C5.80479248 13.49418457 5.10958496 12.92586914 4.39331055 12.34033203 C3.73758057 11.80649902 3.08185059 11.27266602 2.40625 10.72265625 C1.82166016 10.24578369 1.23707031 9.76891113 0.63476562 9.27758789 C-0.85614151 8.11242705 -2.42559817 7.04960122 -4 6 C-2.68 4.02 -1.36 2.04 0 0 Z " fill="#27CCAF" transform="translate(121,60)"/>
<path d="M0 0 C3.84209066 1.28069689 4.16285874 2.53058922 6.1171875 6.01171875 C7.01896729 7.59895752 7.01896729 7.59895752 7.93896484 9.21826172 C8.57785645 10.36311035 9.21674805 11.50795898 9.875 12.6875 C10.875781 14.45922198 11.87968518 16.22914747 12.88394165 17.99890137 C13.56884975 19.20609304 14.25273926 20.41386314 14.93563843 21.62219238 C18.85006737 28.53572969 22.93707888 35.346497 27.05029297 42.14331055 C27.55705566 42.99062744 28.06381836 43.83794434 28.5859375 44.7109375 C29.0298584 45.44618652 29.4737793 46.18143555 29.93115234 46.93896484 C30.98082488 48.96302504 31.55100454 50.77260573 32 53 C30.02 54.32 28.04 55.64 26 57 C25.56518311 56.09882446 25.56518311 56.09882446 25.12158203 55.17944336 C21.98850302 48.78793748 18.53834975 42.66274732 14.875 36.5625 C13.72963208 34.64242593 12.5851176 32.72184254 11.44140625 30.80078125 C10.86922363 29.83994629 10.29704102 28.87911133 9.70751953 27.88916016 C6.55955475 22.56273533 3.48631645 17.19260117 0.42724609 11.81469727 C0.0039502 11.07662842 -0.4193457 10.33855957 -0.85546875 9.578125 C-1.22309326 8.93262695 -1.59071777 8.28712891 -1.96948242 7.62207031 C-3.02630803 5.82858344 -3.02630803 5.82858344 -5 4 C-2.6875 1.9375 -2.6875 1.9375 0 0 Z " fill="#27CCAF" transform="translate(188,15)"/>
<path d="M0 0 C0.33977725 3.33270874 0.67063063 6.66624786 1 10 C1.09539062 10.93457031 1.19078125 11.86914062 1.2890625 12.83203125 C1.42441406 14.21455078 1.42441406 14.21455078 1.5625 15.625 C1.64628906 16.46289062 1.73007812 17.30078125 1.81640625 18.1640625 C2.04978463 21.76901371 2 25.38750243 2 29 C-3.28 29 -8.56 29 -14 29 C-12.68 28.67 -11.36 28.34 -10 28 C-10.33 19.42 -10.66 10.84 -11 2 C-11.66 1.67 -12.32 1.34 -13 1 C-8.6062682 0.29700291 -4.44493976 -0.05036759 0 0 Z " fill="#F45DA3" transform="translate(391,319)"/>
<path d="M0 0 C2.64 0 5.28 0 8 0 C9.23569026 3.70707079 8.60498612 5.24522534 7.56640625 8.98046875 C7.24736328 10.14384766 6.92832031 11.30722656 6.59960938 12.50585938 C6.25736328 13.72080078 5.91511719 14.93574219 5.5625 16.1875 C5.22412109 17.41404297 4.88574219 18.64058594 4.53710938 19.90429688 C3.69890401 22.93836417 2.85291699 25.97004164 2 29 C-4.75 28.125 -4.75 28.125 -7 27 C-5.38949895 17.77622123 -2.71861481 8.94445024 0 0 Z " fill="#F45DA2" transform="translate(392,398)"/>
<path d="M0 0 C3.465 1.485 3.465 1.485 7 3 C6.11565182 7.3226329 3.8332391 10.32214081 1.25 13.8125 C0.81945312 14.40353516 0.38890625 14.99457031 -0.0546875 15.60351562 C-0.92292478 16.79539225 -1.79336259 17.98566905 -2.66601562 19.17431641 C-4.8025203 22.09832482 -6.89977195 25.04985952 -9 28 C-11.88437779 26.70700306 -13.87219421 25.34058637 -16 23 C-14.63666252 20.12300422 -13.08654599 17.55962538 -11.25 14.9609375 C-10.7240625 14.21585937 -10.198125 13.47078125 -9.65625 12.703125 C-9.1096875 11.93484375 -8.563125 11.1665625 -8 10.375 C-7.4534375 9.59898437 -6.906875 8.82296875 -6.34375 8.0234375 C-2.26450893 2.26450893 -2.26450893 2.26450893 0 0 Z " fill="#F55DA3" transform="translate(354,463)"/>
</svg>
