<?xml version="1.0" encoding="UTF-8"?>
<svg version="1.1" xmlns="http://www.w3.org/2000/svg" width="100" height="100">
<path d="M0 0 C9.65595247 7.8787833 14.0312065 16.29439628 15.49609375 28.66015625 C15.94973187 37.02005871 13.89327659 43.60562121 9.91015625 50.88671875 C8.79608573 52.98316455 7.98256825 55.01926565 7.1875 57.25 C6.6925 58.219375 6.1975 59.18875 5.6875 60.1875 C3.4375 60.8125 3.4375 60.8125 0.6875 61.1875 C-0.859375 62.363125 -0.859375 62.363125 -2.4375 63.5625 C-9.8121791 69.06956556 -19.35917236 70.13473611 -28.3125 69.1875 C-38.13019872 67.3084449 -46.40186419 62.62872359 -52.515625 54.609375 C-55.43376222 50.80471508 -57.63750853 49.27470732 -62.3125 48.1875 C-63 45.9375 -63 45.9375 -63.3125 43.1875 C-62.82265625 42.62675781 -62.3328125 42.06601562 -61.828125 41.48828125 C-59.69579631 38.25131837 -60.15786368 35.33986231 -60.375 31.625 C-60.64461499 21.79407997 -58.37656746 13.78096807 -52.078125 6.03515625 C-38.16162637 -8.52790537 -16.92298287 -11.9324624 0 0 Z " fill="#BFE4E3" transform="translate(74.3125,20.8125)"/>
<path d="M0 0 C1.125 1.625 1.125 1.625 1.125 3.625 C2.445 3.955 3.765 4.285 5.125 4.625 C5.2796875 5.5840625 5.2796875 5.5840625 5.4375 6.5625 C5.664375 7.243125 5.89125 7.92375 6.125 8.625 C7.115 8.955 8.105 9.285 9.125 9.625 C9.75 11.4375 9.75 11.4375 10.125 13.625 C10.310625 14.3675 10.49625 15.11 10.6875 15.875 C10.831875 16.4525 10.97625 17.03 11.125 17.625 C10.47660156 17.9859375 9.82820313 18.346875 9.16015625 18.71875 C6.82742961 20.51665145 6.82742961 20.51665145 6.62109375 23.65625 C6.60175781 24.8009375 6.58242187 25.945625 6.5625 27.125 C6.44649943 33.18432406 6.44649943 33.18432406 4.765625 35.48828125 C2.62730579 36.96983099 0.67857933 37.27992171 -1.875 37.625 C-1.875 38.615 -1.875 39.605 -1.875 40.625 C-0.73611328 41.09679687 -0.73611328 41.09679687 0.42578125 41.578125 C1.41964844 42.00609375 2.41351563 42.4340625 3.4375 42.875 C4.42363281 43.29265625 5.40976563 43.7103125 6.42578125 44.140625 C9.31154025 45.72758364 10.59310111 46.72681292 12.125 49.625 C12.41796875 52.421875 12.41796875 52.421875 12.3125 55.375 C12.27189453 56.85226563 12.27189453 56.85226563 12.23046875 58.359375 C12.19566406 59.10703125 12.16085938 59.8546875 12.125 60.625 C10.73221983 61.27739158 9.33560788 61.92160552 7.9375 62.5625 C6.77154297 63.10197266 6.77154297 63.10197266 5.58203125 63.65234375 C-3.75748353 67.34954435 -13.70486982 66.17782531 -22.875 62.625 C-24.90217912 61.68131317 -26.91790043 60.70655503 -28.875 59.625 C-29.48488757 50.90021947 -29.48488757 50.90021947 -27.5 46.75 C-24.24352984 44.11380987 -20.97493683 42.92600399 -17.01953125 41.6171875 C-15.95798828 41.12605469 -15.95798828 41.12605469 -14.875 40.625 C-14.545 39.635 -14.215 38.645 -13.875 37.625 C-14.473125 37.3775 -15.07125 37.13 -15.6875 36.875 C-19.25239385 34.8379178 -20.51182582 32.50426381 -22.0625 28.75 C-24.36884143 19.50475201 -23.80079409 10.68628711 -19.06640625 2.41796875 C-17.875 0.625 -17.875 0.625 -16.875 -0.375 C-3.59860248 -2.63897516 -3.59860248 -2.63897516 0 0 Z " fill="#C99F83" transform="translate(58.875,24.375)"/>
<path d="M0 0 C2.02558881 3.34939881 2.21738987 5.86962551 2.125 9.75 C2.10695312 10.73484375 2.08890625 11.7196875 2.0703125 12.734375 C2.04710937 13.48203125 2.02390625 14.2296875 2 15 C-6.40000893 20.09919241 -15.53976715 20.22578777 -25.046875 18.421875 C-29.36698134 17.22042531 -32.48881726 15.82955359 -36 13 C-35.67 10.69 -35.34 8.38 -35 6 C-33.73285156 5.90203125 -32.46570312 5.8040625 -31.16015625 5.703125 C-19.57319797 4.84710273 -19.57319797 4.84710273 -8.80078125 0.8203125 C-5.81800013 -0.53843812 -3.2214154 -0.27416301 0 0 Z " fill="#02A2A2" transform="translate(67,69)"/>
<path d="M0 0 C1.32 0 2.64 0 4 0 C3.6875 2.375 3.6875 2.375 3 5 C2.01 5.66 1.02 6.32 0 7 C-0.47318362 10.01884316 -0.47318362 10.01884316 -0.5 13.4375 C-0.6636234 19.53928936 -0.6636234 19.53928936 -2.36328125 21.8671875 C-4.49965008 23.34581987 -6.44967487 23.65536147 -9 24 C-9 24.99 -9 25.98 -9 27 C-6.69 27.99 -4.38 28.98 -2 30 C-13.01686487 35.54573559 -21.5941364 37.18333789 -34 37 C-34 39.31 -34 41.62 -34 44 C-32.77493102 44.65357278 -31.54470484 45.29748233 -30.3125 45.9375 C-29.62800781 46.29714844 -28.94351563 46.65679687 -28.23828125 47.02734375 C-20.36501582 50.4487104 -9.02858578 50.52654155 -1.0625 47.5 C-0.051875 47.005 0.95875 46.51 2 46 C2 41.71 2 37.42 2 33 C5 36 5 36 5.29296875 38.69921875 C5.25816406 39.68535156 5.22335938 40.67148438 5.1875 41.6875 C5.14689453 43.17830078 5.14689453 43.17830078 5.10546875 44.69921875 C5.07066406 45.45847656 5.03585938 46.21773437 5 47 C3.60721983 47.65239158 2.21060788 48.29660552 0.8125 48.9375 C-0.35345703 49.47697266 -0.35345703 49.47697266 -1.54296875 50.02734375 C-10.88248353 53.72454435 -20.82986982 52.55282531 -30 49 C-32.02717912 48.05631317 -34.04290043 47.08155503 -36 46 C-36.60988757 37.27521947 -36.60988757 37.27521947 -34.625 33.125 C-31.36852984 30.48880987 -28.09993683 29.30100399 -24.14453125 27.9921875 C-23.43683594 27.66476563 -22.72914062 27.33734375 -22 27 C-21.67 26.01 -21.34 25.02 -21 24 C-22.32 23.34 -23.64 22.68 -25 22 C-25 21.01 -25 20.02 -25 19 C-24.319375 19.639375 -23.63875 20.27875 -22.9375 20.9375 C-19.53591161 23.3258493 -17.09566299 23.67877153 -13 24 C-12.67 22.68 -12.34 21.36 -12 20 C-10.7934375 20.0309375 -10.7934375 20.0309375 -9.5625 20.0625 C-7.06645115 20.29633621 -7.06645115 20.29633621 -6 19 C-5.76346477 16.47403741 -5.57826308 13.96892793 -5.4375 11.4375 C-5.39431641 10.72658203 -5.35113281 10.01566406 -5.30664062 9.28320312 C-5.20028223 7.52238088 -5.09961154 5.7612168 -5 4 C-1.535 3.505 -1.535 3.505 2 3 C1.34 2.67 0.68 2.34 0 2 C0 1.34 0 0.68 0 0 Z " fill="#A37F67" transform="translate(66,38)"/>
<path d="M0 0 C2.33944736 0.28730055 4.6739143 0.61936779 7 1 C7.33 1.99 7.66 2.98 8 4 C10.01508358 4.73323796 10.01508358 4.73323796 12 5 C12.103125 5.639375 12.20625 6.27875 12.3125 6.9375 C12.6528125 7.9584375 12.6528125 7.9584375 13 9 C13.99 9.33 14.98 9.66 16 10 C16 11.32 16 12.64 16 14 C15.34 14 14.68 14 14 14 C14 14.66 14 15.32 14 16 C14.99 16.33 15.98 16.66 17 17 C16 18 16 18 13.71484375 18.09765625 C12.34005859 18.08025391 12.34005859 18.08025391 10.9375 18.0625 C10.01839844 18.05347656 9.09929688 18.04445313 8.15234375 18.03515625 C7.44207031 18.02355469 6.73179688 18.01195313 6 18 C6 18.66 6 19.32 6 20 C4.02 20 2.04 20 0 20 C0 19.67 0 19.34 0 19 C1.65 19 3.3 19 5 19 C4.67 18.34 4.34 17.68 4 17 C1.94068468 16.57038779 1.94068468 16.57038779 -0.4375 16.4375 C-4.81333333 16.09333333 -4.81333333 16.09333333 -7 15 C-7 13.68 -7 12.36 -7 11 C-8.65 11 -10.3 11 -12 11 C-12.75 9.375 -12.75 9.375 -13 7 C-11.5625 3.75 -11.5625 3.75 -9 1 C-6.20026615 0.51710017 -3.86852499 0.764875 -1 1 C-0.67 0.67 -0.34 0.34 0 0 Z " fill="#E99E1B" transform="translate(52,24)"/>
<path d="M0 0 C1.26026798 2.52053595 0.91874445 3.8542098 0.5625 6.625 C0.40974609 7.85089844 0.40974609 7.85089844 0.25390625 9.1015625 C0.17011719 9.72804688 0.08632813 10.35453125 0 11 C1.22506898 11.65357278 2.45529516 12.29748233 3.6875 12.9375 C4.37199219 13.29714844 5.05648437 13.65679687 5.76171875 14.02734375 C13.63498418 17.4487104 24.97141422 17.52654155 32.9375 14.5 C33.948125 14.005 34.95875 13.51 36 13 C36 8.71 36 4.42 36 0 C39 3 39 3 39.29296875 5.69921875 C39.25816406 6.68535156 39.22335938 7.67148438 39.1875 8.6875 C39.14689453 10.17830078 39.14689453 10.17830078 39.10546875 11.69921875 C39.07066406 12.45847656 39.03585938 13.21773437 39 14 C37.60721983 14.65239158 36.21060788 15.29660552 34.8125 15.9375 C34.03519531 16.29714844 33.25789063 16.65679687 32.45703125 17.02734375 C23.11751647 20.72454435 13.17013018 19.55282531 4 16 C1.97282088 15.05631317 -0.04290043 14.08155503 -2 13 C-2.05416188 11.39620659 -2.09286638 9.79188594 -2.125 8.1875 C-2.14820312 7.29417969 -2.17140625 6.40085937 -2.1953125 5.48046875 C-2 3 -2 3 0 0 Z " fill="#4B5351" transform="translate(32,71)"/>
<path d="M0 0 C0.66 0.33 1.32 0.66 2 1 C2 1.66 2 2.32 2 3 C3.32 3.33 4.64 3.66 6 4 C6.103125 4.639375 6.20625 5.27875 6.3125 5.9375 C6.6528125 6.9584375 6.6528125 6.9584375 7 8 C7.99 8.33 8.98 8.66 10 9 C10 10.32 10 11.64 10 13 C9.34 13 8.68 13 8 13 C8 13.66 8 14.32 8 15 C8.99 15.33 9.98 15.66 11 16 C10 17 10 17 7.71484375 17.09765625 C6.34005859 17.08025391 6.34005859 17.08025391 4.9375 17.0625 C4.01839844 17.05347656 3.09929688 17.04445313 2.15234375 17.03515625 C1.44207031 17.02355469 0.73179688 17.01195313 0 17 C0 17.66 0 18.32 0 19 C-1.98 19 -3.96 19 -6 19 C-6 18.67 -6 18.34 -6 18 C-4.35 18 -2.7 18 -1 18 C-1.33 17.01 -1.66 16.02 -2 15 C-0.35 15.33 1.3 15.66 3 16 C2.40698758 11.15706521 1.37539633 6.67634753 0 2 C0 1.34 0 0.68 0 0 Z " fill="#BA7A1E" transform="translate(58,25)"/>
<path d="M0 0 C1 1 1 1 1.125 4 C1 7 1 7 0 8 C-1.99958364 8.04080783 -4.00045254 8.04254356 -6 8 C-6.66 6.35 -7.32 4.7 -8 3 C-8.66 3 -9.32 3 -10 3 C-10 2.01 -10 1.02 -10 0 C-6.31416418 -0.94778635 -3.67716794 -1.02143554 0 0 Z " fill="#F1BB17" transform="translate(87,13)"/>
<path d="M0 0 C0.33 0.66 0.66 1.32 1 2 C0.071875 1.979375 -0.85625 1.95875 -1.8125 1.9375 C-5.02286011 1.84230396 -5.02286011 1.84230396 -8 3 C-8.99 2.9175 -9.98 2.835 -11 2.75 C-12.485 2.87375 -12.485 2.87375 -14 3 C-16.31141604 5.85074644 -17 7.3139451 -17 11 C-15.35 11.33 -13.7 11.66 -12 12 C-12.33 12.66 -12.66 13.32 -13 14 C-14.32 14 -15.64 14 -17 14 C-17.33 17.3 -17.66 20.6 -18 24 C-18.99 24.33 -19.98 24.66 -21 25 C-21.63261132 16.03097729 -20.96743496 9.62216249 -16 2 C-12.91360612 -1.08639388 -4.03355451 -0.10342447 0 0 Z " fill="#7C5D46" transform="translate(57,23)"/>
<path d="M0 0 C2.97 0.495 2.97 0.495 6 1 C6.625 3.3125 6.625 3.3125 7 6 C6.01 7.485 6.01 7.485 5 9 C2.03 8.505 2.03 8.505 -1 8 C-1.625 5.6875 -1.625 5.6875 -2 3 C-1.34 2.01 -0.68 1.02 0 0 Z " fill="#F8CF5D" transform="translate(13,61)"/>
<path d="M0 0 C0.99 1.175625 0.99 1.175625 2 2.375 C4.88225905 4.89697667 5.73668912 5.39200708 9.25 6.125 C11.10625 6.558125 11.10625 6.558125 13 7 C13.33 7.99 13.66 8.98 14 10 C13.67 10.33 13.34 10.66 13 11 C6.92434762 10.76173912 4.03795142 9.33341128 0 5 C-0.375 2.1875 -0.375 2.1875 0 0 Z " fill="#D5AA8D" transform="translate(40,52)"/>
<path d="M0 0 C1.32 0 2.64 0 4 0 C3.6875 2.375 3.6875 2.375 3 5 C2.01 5.66 1.02 6.32 0 7 C-0.2502157 10.08365871 -0.2502157 10.08365871 0 13 C-1.32 13.33 -2.64 13.66 -4 14 C-4.33 10.7 -4.66 7.4 -5 4 C-1.535 3.505 -1.535 3.505 2 3 C1.34 2.67 0.68 2.34 0 2 C0 1.34 0 0.68 0 0 Z " fill="#573D35" transform="translate(66,38)"/>
<path d="M0 0 C0.33 1.32 0.66 2.64 1 4 C1.99 4 2.98 4 4 4 C4.36923077 9.53846154 4.36923077 9.53846154 2.5 11.875 C1.7575 12.431875 1.7575 12.431875 1 13 C0.01 12.67 -0.98 12.34 -2 12 C-1.34 8.04 -0.68 4.08 0 0 Z " fill="#878683" transform="translate(61,48)"/>
<path d="M0 0 C1.4540625 0.0309375 1.4540625 0.0309375 2.9375 0.0625 C1.9375 3.0625 1.9375 3.0625 -0.0625 4.0625 C-0.0625 5.0525 -0.0625 6.0425 -0.0625 7.0625 C3.4025 8.5475 3.4025 8.5475 6.9375 10.0625 C3.9375 11.0625 3.9375 11.0625 0.875 10.0625 C-2.0625 8.0625 -2.0625 8.0625 -3.4375 4.375 C-3.64375 3.281875 -3.85 2.18875 -4.0625 1.0625 C-3.0625 0.0625 -3.0625 0.0625 0 0 Z " fill="#5A423D" transform="translate(57.0625,57.9375)"/>
<path d="M0 0 C1.98 0.495 1.98 0.495 4 1 C3.67 2.32 3.34 3.64 3 5 C1.68 4.67 0.36 4.34 -1 4 C-0.67 2.68 -0.34 1.36 0 0 Z " fill="#F7FBFB" transform="translate(18,51)"/>
<path d="M0 0 C1.32 0 2.64 0 4 0 C3.67 1.65 3.34 3.3 3 5 C2.01 4.67 1.02 4.34 0 4 C0 2.68 0 1.36 0 0 Z " fill="#00A6A6" transform="translate(24,87)"/>
<path d="M0 0 C0.99 0.33 1.98 0.66 3 1 C3 2.32 3 3.64 3 5 C1.68 5 0.36 5 -1 5 C-0.67 3.35 -0.34 1.7 0 0 Z " fill="#00A6A6" transform="translate(87,23)"/>
<path d="M0 0 C0.99 0 1.98 0 3 0 C2.67 1.65 2.34 3.3 2 5 C1.01 4.67 0.02 4.34 -1 4 C-0.67 2.68 -0.34 1.36 0 0 Z " fill="#F6CE62" transform="translate(78,76)"/>
<path d="M0 0 C0.99 0 1.98 0 3 0 C3 2.64 3 5.28 3 8 C2.34 7.67 1.68 7.34 1 7 C0.59270772 4.67843403 0.25561323 2.3431213 0 0 Z " fill="#836A60" transform="translate(37,49)"/>
</svg>
